<?xml version="1.0" encoding="utf-8"?>
<!-- Generator: Adobe Illustrator 23.0.3, SVG Export Plug-In . SVG Version: 6.00 Build 0)  -->
<svg version="1.1" id="Layer_1" xmlns="http://www.w3.org/2000/svg" xmlns:xlink="http://www.w3.org/1999/xlink" x="0px" y="0px"
	 viewBox="0 0 283.5 170.1" style="enable-background:new 0 0 283.5 170.1;" xml:space="preserve">
<style type="text/css">
	.st0{fill:#FFFFFF;}
</style>
<title>Artboard 3</title>
<rect y="0" class="st0" width="283.5" height="170.1"/>
<path d="M104.3,81.1v20.1h-6.1v-2c-1.5,1.7-3.7,2.6-6,2.5c-5.4,0-9.7-4.6-9.7-10.5s4.2-10.5,9.7-10.5c2.3-0.1,4.5,0.9,6,2.5v-2
	L104.3,81.1z M93.5,96.4c2.8,0,4.9-2.2,4.9-5.3s-2.1-5.3-4.9-5.3c-2.9,0.3-5.1,2.8-4.8,5.8C88.9,94.1,90.9,96.2,93.5,96.4z"/>
<path d="M130,68.8v32.4h-6.1v-2c-1.5,1.7-3.7,2.6-6,2.5c-5.4,0-9.7-4.6-9.7-10.5s4.2-10.5,9.7-10.5c2.3-0.1,4.5,0.9,6,2.5V68.8H130z
	 M119.2,96.4c2.8,0,4.9-2.2,4.9-5.3s-2.1-5.3-4.9-5.3c-2.9,0.3-5.1,2.8-4.8,5.8C114.6,94.1,116.7,96.2,119.2,96.4z"/>
<path d="M134.9,96.3h7.2V86h-7.2v-4.9h13.3v15.2h7.2v4.9h-20.5V96.3z M140.5,72.4c0-2.2,1.8-4,4-4s4,1.8,4,4s-1.8,4-4,4
	S140.5,74.6,140.5,72.4z"/>
<path d="M178.5,96.3h7.2V73.6h-7.2v-4.9h13.3v27.5h7.2v4.9h-20.5V96.3z"/>
<path d="M167.3,96.4c-2.7,0-4.8-2.1-4.8-5.2s2.1-5.2,4.8-5.2c1.8,0,3.3,1.1,3.8,2.8h6.2c-0.6-4.6-5-8.1-10.1-8.1
	c-5.8-0.2-10.7,4.4-10.9,10.2s4.4,10.7,10.2,10.9c0.2,0,0.4,0,0.6,0c5.1,0,9.4-3.5,10.1-8.1h-6.2C170.6,95.2,169,96.4,167.3,96.4z"
	/>
<path d="M220.3,91.7c0-6.5-3.9-11.1-10.1-11.1c-5.8,0-10.4,4.7-10.4,10.5c0,0,0,0,0,0.1c0,6,4,10.5,10.5,10.5c6.3,0,9.2-4.6,9.5-6.9
	h-5.4c-0.5,1.2-1.8,2.2-4.1,2.2c-2.5,0.1-4.6-1.7-4.9-4.2h14.8C220.3,92.4,220.3,92,220.3,91.7z M205.7,88.9c0.6-2,2.5-3.4,4.6-3.4
	c2.1-0.1,3.9,1.3,4.2,3.4H205.7z"/>
<polygon points="79.5,81.1 63.2,81.1 63.2,101.2 69.3,101.2 69.3,85.9 79.5,85.9 "/>
</svg>
