<svg id="Layer_1" data-name="Layer 1" xmlns="http://www.w3.org/2000/svg" viewBox="0 0 1920 1080"><defs><style>.cls-1{fill:#f1f2f2;}.cls-2{fill:#55f;}</style></defs><title>guideline-0101</title><rect class="cls-1" width="1920" height="1080"/><path d="M701.46,506.24V642.43H660.22V628.6c-7.6,9.23-22.52,17.09-40.42,17.09-36.9,0-65.38-30.93-65.38-71.35S582.9,503,619.8,503c17.91,0,32.83,7.87,40.42,17.09V506.24Zm-73,103.91c19,0,33.1-14.92,33.1-35.81s-14.11-35.81-33.1-35.81c-18.72,0-33.1,14.92-33.1,35.81S609.76,610.15,628.48,610.15Z"/><path d="M875.74,422.86V642.43H834.5V628.6c-7.6,9.23-22.52,17.09-40.42,17.09-36.9,0-65.39-30.93-65.39-71.35S757.18,503,794.08,503c17.91,0,32.83,7.87,40.42,17.09V422.86Zm-73,187.29c19,0,33.1-14.92,33.1-35.81s-14.11-35.81-33.1-35.81c-18.72,0-33.1,14.92-33.1,35.81S784,610.15,802.76,610.15Z"/><path d="M908.55,609.34h48.84v-70H908.55v-33.1h90.07v103.1h48.84v33.1H908.55Zm38.25-161.84a27.13,27.13,0,1,1,27.13,26.86A27,27,0,0,1,946.81,447.49Z"/><path d="M1204.18,609.34H1253V456h-48.84v-33.1h90.07V609.34h48.84v33.1H1204.18Z"/><path d="M1128.29,609.88c-18.45,0-32.56-14.38-32.56-35.54s14.11-35.54,32.56-35.54c13.08,0,23.48,9.21,26,19h42.11c-4.35-30.86-33.79-54.8-68.08-54.8-39.88,0-73.25,30.38-73.25,71.35s33.37,71.35,73.25,71.35c34.28,0,63.73-23.94,68.08-54.8h-42.11C1151.76,600.67,1141.36,609.88,1128.29,609.88Z"/><path d="M1487.1,578.41c0-44-26.32-75.42-68.37-75.42-37.44,0-70.27,30.11-70.27,71.35,0,41,27.1,71.35,71.35,71.35,42.75,0,62.47-31.09,64.49-46.85h-36.52c-3.34,8.39-12.13,14.72-28,14.72-17.9,0-31.77-12.37-33.1-28.64h100.11A53.12,53.12,0,0,0,1487.1,578.41Zm-99-19c4.88-14.38,16.82-22.79,30.93-22.79,17.36,0,26.59,11.12,28.49,22.79Z"/><polygon points="533.89 506.24 423.2 506.24 423.2 642.43 464.44 642.43 464.44 539.34 533.89 539.34 533.89 506.24"/><path class="cls-2" d="M1440.62,471.3c-7.68,0-12.23-5.45-12.23-13,0-10.22,7-21.41,18.87-21.41a10.54,10.54,0,0,1,10.59,8.13l2.16-7.24h6l-7,24.84c-.6,2.39.67,3.51,2.39,3.51a7.73,7.73,0,0,0,4.77-1.72l-.45,4.63a8.53,8.53,0,0,1-5.74,2.09c-4.1,0-7.16-2.61-6.79-7.16A14.45,14.45,0,0,1,1440.62,471.3Zm15-17.38c1.57-6.86-1.79-12.23-7.76-12.23-8,0-13.06,8-13.06,16.26,0,5.45,3.06,8.5,8.21,8.5s10.67-4.55,12.16-10.74Z"/><path class="cls-2" d="M1490,423.41l-11.71,47h-6.19l11.71-47Z"/><path class="cls-2" d="M1493.14,482.94h-6.19l11.26-45.13h6.12l-1.64,6.71a15.54,15.54,0,0,1,12.91-7.61c7.91,0,12.23,5.37,12.23,12.91,0,10.22-6.94,21.49-18.95,21.49-5.67,0-9.77-3.51-10.82-8.06Zm7-28.72c-1.64,6.64,1.64,12.31,8,12.31,8.21,0,13.28-8,13.28-16.26,0-5.45-3.06-8.5-8.43-8.5s-10.82,4.48-12.38,10.74Z"/><path class="cls-2" d="M1539,470.4h-6.19l11.71-47h6.19l-5.22,20.89c2.69-4,7.24-7.38,12.46-7.38,8.13,0,11.79,5.74,9.92,13.43l-5,20.07h-6.19l4.85-19.4c1.34-5.52-.6-9-5.82-9-5,0-10.67,4-12.23,10.67Z"/><path class="cls-2" d="M1588.25,471.3c-7.68,0-12.23-5.45-12.23-13,0-10.22,7-21.41,18.87-21.41a10.54,10.54,0,0,1,10.59,8.13l2.16-7.24h6l-7,24.84c-.6,2.39.67,3.51,2.39,3.51a7.73,7.73,0,0,0,4.77-1.72l-.45,4.63a8.53,8.53,0,0,1-5.74,2.09c-4.1,0-7.16-2.61-6.79-7.16A14.45,14.45,0,0,1,1588.25,471.3Zm15-17.38c1.57-6.86-1.79-12.23-7.76-12.23-8,0-13.06,8-13.06,16.26,0,5.45,3.06,8.5,8.21,8.5s10.67-4.55,12.16-10.74Z"/></svg>