<svg xmlns="http://www.w3.org/2000/svg" viewBox="0 0 1920 1080"><defs><style>.cls-1{isolation:isolate;}.cls-2{fill:#f1f2f2;}.cls-3{fill:#f55;}.cls-3,.cls-4{mix-blend-mode:multiply;}.cls-4{fill:#37ff47;}</style></defs><title>guideline-0101</title><g class="cls-1"><g id="Layer_1" data-name="Layer 1"><rect class="cls-2" width="1920" height="1080"/><rect class="cls-3" x="695.83" y="168.77" width="103.54" height="103.54"/><path d="M774.23,210.79v49.34H759.29v-5c-2.75,3.34-8.16,6.19-14.65,6.19-13.37,0-23.69-11.21-23.69-25.85s10.32-25.85,23.69-25.85c6.49,0,11.89,2.85,14.65,6.19v-5Zm-26.44,37.65c6.88,0,12-5.41,12-13s-5.11-13-12-13-12,5.41-12,13S741,248.43,747.79,248.43Z"/><rect class="cls-4" x="799.36" y="168.77" width="103.54" height="103.54"/><path d="M875.37,181v79.55H860.43v-5c-2.75,3.34-8.16,6.19-14.65,6.19-13.37,0-23.69-11.21-23.69-25.85s10.32-25.85,23.69-25.85c6.49,0,11.89,2.85,14.65,6.19V181Zm-26.44,67.86c6.88,0,12-5.41,12-13s-5.11-13-12-13-12,5.41-12,13S842.14,248.89,848.92,248.89Z"/><rect class="cls-3" x="902.9" y="168.77" width="103.54" height="103.54"/><path d="M934.95,248.14h17.69V222.78H934.95v-12h32.63v37.35h17.69v12H934.95Zm13.86-58.64a9.83,9.83,0,1,1,9.83,9.73A9.77,9.77,0,0,1,948.81,189.5Z"/><rect class="cls-3" x="1109.97" y="168.77" width="103.54" height="103.54"/><path d="M1142,248.14h17.69V192.57H1142v-12h32.63v67.56h17.69v12H1142Z"/><rect class="cls-4" x="1006.43" y="168.77" width="103.54" height="103.54"/><path d="M1059.14,248.34c-6.68,0-11.8-5.21-11.8-12.88s5.11-12.88,11.8-12.88a9.77,9.77,0,0,1,9.41,6.88h15.26c-1.58-11.18-12.24-19.86-24.66-19.86-14.45,0-26.54,11-26.54,25.85s12.09,25.85,26.54,25.85c12.42,0,23.09-8.68,24.66-19.86h-15.26A9.77,9.77,0,0,1,1059.14,248.34Z"/><rect class="cls-4" x="592.29" y="168.77" width="103.54" height="103.54"/><rect class="cls-4" x="1213.5" y="168.77" width="103.54" height="103.54"/><path d="M1290.39,236.93c0-15.92-9.54-27.33-24.77-27.33a25.55,25.55,0,0,0-25.46,25.85c0,14.84,9.82,25.85,25.85,25.85,15.49,0,22.63-11.26,23.37-17h-13.23c-1.21,3-4.39,5.33-10.13,5.33-6.48,0-11.51-4.48-12-10.38h36.27A19.24,19.24,0,0,0,1290.39,236.93Zm-35.88-6.88a11.61,11.61,0,0,1,11.21-8.26c6.29,0,9.63,4,10.32,8.26Z"/><polygon points="668.06 210.79 627.95 210.79 627.95 260.13 642.89 260.13 642.89 222.78 668.06 222.78 668.06 210.79"/><rect class="cls-4" x="695.83" y="272.31" width="103.54" height="103.54"/><path d="M774.23,314.32v49.34H759.29v-5c-2.75,3.34-8.16,6.19-14.65,6.19C731.28,364.85,721,353.64,721,339s10.32-25.85,23.69-25.85c6.49,0,11.89,2.85,14.65,6.19v-5ZM747.79,352c6.88,0,12-5.41,12-13s-5.11-13-12-13-12,5.41-12,13S741,352,747.79,352Z"/><rect class="cls-3" x="799.36" y="272.31" width="103.54" height="103.54"/><path d="M875.37,284.57v79.55H860.43v-5c-2.75,3.34-8.16,6.19-14.65,6.19-13.37,0-23.69-11.21-23.69-25.85s10.32-25.85,23.69-25.85c6.49,0,11.89,2.85,14.65,6.19V284.57Zm-26.44,67.86c6.88,0,12-5.41,12-13s-5.11-13-12-13-12,5.41-12,13S842.14,352.42,848.92,352.42Z"/><rect class="cls-4" x="902.9" y="272.31" width="103.54" height="103.54"/><path d="M934.95,351.68h17.69V326.32H934.95v-12h32.63v37.35h17.69v12H934.95ZM948.81,293a9.83,9.83,0,1,1,9.83,9.73A9.77,9.77,0,0,1,948.81,293Z"/><rect class="cls-4" x="1109.97" y="272.31" width="103.54" height="103.54"/><path d="M1142,351.68h17.69V296.1H1142v-12h32.63v67.56h17.69v12H1142Z"/><rect class="cls-3" x="1006.43" y="272.31" width="103.54" height="103.54"/><path d="M1059.14,351.87c-6.68,0-11.8-5.21-11.8-12.88s5.11-12.88,11.8-12.88a9.77,9.77,0,0,1,9.41,6.88h15.26c-1.58-11.18-12.24-19.86-24.66-19.86-14.45,0-26.54,11-26.54,25.85s12.09,25.85,26.54,25.85c12.42,0,23.09-8.68,24.66-19.86h-15.26A9.77,9.77,0,0,1,1059.14,351.87Z"/><rect class="cls-3" x="592.29" y="272.31" width="103.54" height="103.54"/><rect class="cls-3" x="1213.5" y="272.31" width="103.54" height="103.54"/><path d="M1290.39,340.47c0-15.92-9.54-27.33-24.77-27.33A25.55,25.55,0,0,0,1240.16,339c0,14.84,9.82,25.85,25.85,25.85,15.49,0,22.63-11.26,23.37-17h-13.23c-1.21,3-4.39,5.33-10.13,5.33-6.48,0-11.51-4.48-12-10.38h36.27A19.24,19.24,0,0,0,1290.39,340.47Zm-35.88-6.88a11.61,11.61,0,0,1,11.21-8.26c6.29,0,9.63,4,10.32,8.26Z"/><polygon points="668.06 314.32 627.95 314.32 627.95 363.67 642.89 363.67 642.89 326.31 668.06 326.31 668.06 314.32"/><rect class="cls-3" x="695.83" y="375.85" width="103.54" height="103.54"/><path d="M774.23,417.86V467.2H759.29v-5c-2.75,3.34-8.16,6.19-14.65,6.19-13.37,0-23.69-11.21-23.69-25.85s10.32-25.85,23.69-25.85c6.49,0,11.89,2.85,14.65,6.19v-5Zm-26.44,37.65c6.88,0,12-5.41,12-13s-5.11-13-12-13-12,5.41-12,13S741,455.51,747.79,455.51Z"/><rect class="cls-4" x="799.36" y="375.85" width="103.54" height="103.54"/><path d="M875.37,388.1v79.55H860.43v-5c-2.75,3.34-8.16,6.19-14.65,6.19-13.37,0-23.69-11.21-23.69-25.85s10.32-25.85,23.69-25.85c6.49,0,11.89,2.85,14.65,6.19V388.1ZM848.92,456c6.88,0,12-5.41,12-13s-5.11-13-12-13-12,5.41-12,13S842.14,456,848.92,456Z"/><rect class="cls-3" x="902.9" y="375.85" width="103.54" height="103.54"/><path d="M934.95,455.21h17.69V429.85H934.95v-12h32.63v37.35h17.69v12H934.95Zm13.86-58.64a9.83,9.83,0,1,1,9.83,9.73A9.77,9.77,0,0,1,948.81,396.57Z"/><rect class="cls-3" x="1109.97" y="375.85" width="103.54" height="103.54"/><path d="M1142,455.21h17.69V399.64H1142v-12h32.63v67.56h17.69v12H1142Z"/><rect class="cls-4" x="1006.43" y="375.85" width="103.54" height="103.54"/><path d="M1059.14,455.41c-6.68,0-11.8-5.21-11.8-12.88s5.11-12.88,11.8-12.88a9.77,9.77,0,0,1,9.41,6.88h15.26c-1.58-11.18-12.24-19.86-24.66-19.86-14.45,0-26.54,11-26.54,25.85s12.09,25.85,26.54,25.85c12.42,0,23.09-8.68,24.66-19.86h-15.26A9.77,9.77,0,0,1,1059.14,455.41Z"/><rect class="cls-4" x="592.29" y="375.85" width="103.54" height="103.54"/><rect class="cls-4" x="1213.5" y="375.85" width="103.54" height="103.54"/><path d="M1290.39,444c0-15.92-9.54-27.33-24.77-27.33a25.55,25.55,0,0,0-25.46,25.85c0,14.84,9.82,25.85,25.85,25.85,15.49,0,22.63-11.26,23.37-17h-13.23c-1.21,3-4.39,5.33-10.13,5.33-6.48,0-11.51-4.48-12-10.38h36.27A19.24,19.24,0,0,0,1290.39,444Zm-35.88-6.88a11.61,11.61,0,0,1,11.21-8.26c6.29,0,9.63,4,10.32,8.26Z"/><polygon points="668.06 417.86 627.95 417.86 627.95 467.2 642.89 467.2 642.89 429.85 668.06 429.85 668.06 417.86"/><rect class="cls-4" x="695.83" y="479.38" width="103.54" height="103.54"/><path d="M774.23,521.39v49.34H759.29v-5c-2.75,3.34-8.16,6.19-14.65,6.19-13.37,0-23.69-11.21-23.69-25.85s10.32-25.85,23.69-25.85c6.49,0,11.89,2.85,14.65,6.19v-5ZM747.79,559c6.88,0,12-5.41,12-13s-5.11-13-12-13-12,5.41-12,13S741,559,747.79,559Z"/><rect class="cls-3" x="799.36" y="479.38" width="103.54" height="103.54"/><path d="M875.37,491.64v79.55H860.43v-5c-2.75,3.34-8.16,6.19-14.65,6.19-13.37,0-23.69-11.21-23.69-25.85s10.32-25.85,23.69-25.85c6.49,0,11.89,2.85,14.65,6.19V491.64ZM848.92,559.5c6.88,0,12-5.41,12-13s-5.11-13-12-13-12,5.41-12,13S842.14,559.5,848.92,559.5Z"/><rect class="cls-4" x="902.9" y="479.38" width="103.54" height="103.54"/><path d="M934.95,558.75h17.69V533.39H934.95v-12h32.63v37.35h17.69v12H934.95Zm13.86-58.64a9.83,9.83,0,1,1,9.83,9.73A9.77,9.77,0,0,1,948.81,500.11Z"/><rect class="cls-4" x="1109.97" y="479.38" width="103.54" height="103.54"/><path d="M1142,558.75h17.69V503.18H1142v-12h32.63v67.56h17.69v12H1142Z"/><rect class="cls-3" x="1006.43" y="479.38" width="103.54" height="103.54"/><path d="M1059.14,558.94c-6.68,0-11.8-5.21-11.8-12.88s5.11-12.88,11.8-12.88a9.77,9.77,0,0,1,9.41,6.88h15.26c-1.58-11.18-12.24-19.86-24.66-19.86-14.45,0-26.54,11-26.54,25.85s12.09,25.85,26.54,25.85c12.42,0,23.09-8.68,24.66-19.86h-15.26A9.77,9.77,0,0,1,1059.14,558.94Z"/><rect class="cls-3" x="592.29" y="479.38" width="103.54" height="103.54"/><rect class="cls-3" x="1213.5" y="479.38" width="103.54" height="103.54"/><path d="M1290.39,547.54c0-15.92-9.54-27.33-24.77-27.33a25.55,25.55,0,0,0-25.46,25.85c0,14.84,9.82,25.85,25.85,25.85,15.49,0,22.63-11.26,23.37-17h-13.23c-1.21,3-4.39,5.33-10.13,5.33-6.48,0-11.51-4.48-12-10.38h36.27A19.24,19.24,0,0,0,1290.39,547.54Zm-35.88-6.88a11.61,11.61,0,0,1,11.21-8.26c6.29,0,9.63,4,10.32,8.26Z"/><polygon points="668.06 521.39 627.95 521.39 627.95 570.74 642.89 570.74 642.89 533.39 668.06 533.39 668.06 521.39"/><rect class="cls-3" x="695.83" y="582.92" width="103.54" height="103.54"/><path d="M774.23,624.93v49.34H759.29v-5c-2.75,3.34-8.16,6.19-14.65,6.19-13.37,0-23.69-11.21-23.69-25.85s10.32-25.85,23.69-25.85c6.49,0,11.89,2.85,14.65,6.19v-5Zm-26.44,37.65c6.88,0,12-5.41,12-13s-5.11-13-12-13-12,5.41-12,13S741,662.58,747.79,662.58Z"/><rect class="cls-4" x="799.36" y="582.92" width="103.54" height="103.54"/><path d="M875.37,595.17v79.55H860.43v-5c-2.75,3.34-8.16,6.19-14.65,6.19-13.37,0-23.69-11.21-23.69-25.85s10.32-25.85,23.69-25.85c6.49,0,11.89,2.85,14.65,6.19V595.17ZM848.92,663c6.88,0,12-5.41,12-13s-5.11-13-12-13-12,5.41-12,13S842.14,663,848.92,663Z"/><rect class="cls-3" x="902.9" y="582.92" width="103.54" height="103.54"/><path d="M934.95,662.28h17.69V636.92H934.95v-12h32.63v37.35h17.69v12H934.95Zm13.86-58.64a9.83,9.83,0,1,1,9.83,9.73A9.77,9.77,0,0,1,948.81,603.65Z"/><rect class="cls-3" x="1109.97" y="582.92" width="103.54" height="103.54"/><path d="M1142,662.28h17.69V606.71H1142v-12h32.63v67.56h17.69v12H1142Z"/><rect class="cls-4" x="1006.43" y="582.92" width="103.54" height="103.54"/><path d="M1059.14,662.48c-6.68,0-11.8-5.21-11.8-12.88s5.11-12.88,11.8-12.88a9.77,9.77,0,0,1,9.41,6.88h15.26c-1.58-11.18-12.24-19.86-24.66-19.86-14.45,0-26.54,11-26.54,25.85s12.09,25.85,26.54,25.85c12.42,0,23.09-8.68,24.66-19.86h-15.26A9.77,9.77,0,0,1,1059.14,662.48Z"/><rect class="cls-4" x="592.29" y="582.92" width="103.54" height="103.54"/><rect class="cls-4" x="1213.5" y="582.92" width="103.54" height="103.54"/><path d="M1290.39,651.08c0-15.92-9.54-27.33-24.77-27.33a25.55,25.55,0,0,0-25.46,25.85c0,14.84,9.82,25.85,25.85,25.85,15.49,0,22.63-11.26,23.37-17h-13.23c-1.21,3-4.39,5.33-10.13,5.33-6.48,0-11.51-4.48-12-10.38h36.27A19.24,19.24,0,0,0,1290.39,651.08Zm-35.88-6.88a11.61,11.61,0,0,1,11.21-8.26c6.29,0,9.63,4,10.32,8.26Z"/><polygon points="668.06 624.93 627.95 624.93 627.95 674.27 642.89 674.27 642.89 636.92 668.06 636.92 668.06 624.93"/><rect class="cls-4" x="695.83" y="686.45" width="103.54" height="103.54"/><path d="M774.23,728.47v49.34H759.29v-5c-2.75,3.34-8.16,6.19-14.65,6.19C731.28,779,721,767.78,721,753.14s10.32-25.85,23.69-25.85c6.49,0,11.89,2.85,14.65,6.19v-5Zm-26.44,37.65c6.88,0,12-5.41,12-13s-5.11-13-12-13-12,5.41-12,13S741,766.11,747.79,766.11Z"/><rect class="cls-3" x="799.36" y="686.45" width="103.54" height="103.54"/><path d="M875.37,698.71v79.55H860.43v-5c-2.75,3.34-8.16,6.19-14.65,6.19-13.37,0-23.69-11.21-23.69-25.85s10.32-25.85,23.69-25.85c6.49,0,11.89,2.85,14.65,6.19V698.71Zm-26.44,67.86c6.88,0,12-5.41,12-13s-5.11-13-12-13-12,5.41-12,13S842.14,766.57,848.92,766.57Z"/><rect class="cls-4" x="902.9" y="686.45" width="103.54" height="103.54"/><path d="M934.95,765.82h17.69V740.46H934.95v-12h32.63v37.35h17.69v12H934.95Zm13.86-58.64a9.83,9.83,0,1,1,9.83,9.73A9.77,9.77,0,0,1,948.81,707.18Z"/><rect class="cls-4" x="1109.97" y="686.45" width="103.54" height="103.54"/><path d="M1142,765.82h17.69V710.25H1142v-12h32.63v67.56h17.69v12H1142Z"/><rect class="cls-3" x="1006.43" y="686.45" width="103.54" height="103.54"/><path d="M1059.14,766c-6.68,0-11.8-5.21-11.8-12.88s5.11-12.88,11.8-12.88a9.77,9.77,0,0,1,9.41,6.88h15.26c-1.58-11.18-12.24-19.86-24.66-19.86-14.45,0-26.54,11-26.54,25.85S1044.69,779,1059.14,779c12.42,0,23.09-8.68,24.66-19.86h-15.26A9.77,9.77,0,0,1,1059.14,766Z"/><rect class="cls-3" x="592.29" y="686.45" width="103.54" height="103.54"/><rect class="cls-3" x="1213.5" y="686.45" width="103.54" height="103.54"/><path d="M1290.39,754.61c0-15.92-9.54-27.33-24.77-27.33a25.55,25.55,0,0,0-25.46,25.85C1240.16,768,1250,779,1266,779c15.49,0,22.63-11.26,23.37-17h-13.23c-1.21,3-4.39,5.33-10.13,5.33-6.48,0-11.51-4.48-12-10.38h36.27A19.24,19.24,0,0,0,1290.39,754.61Zm-35.88-6.88a11.61,11.61,0,0,1,11.21-8.26c6.29,0,9.63,4,10.32,8.26Z"/><polygon points="668.06 728.47 627.95 728.47 627.95 777.81 642.89 777.81 642.89 740.46 668.06 740.46 668.06 728.47"/><rect class="cls-3" x="695.83" y="789.99" width="103.54" height="103.54"/><path d="M774.23,832v49.34H759.29v-5c-2.75,3.34-8.16,6.19-14.65,6.19-13.37,0-23.69-11.21-23.69-25.85s10.32-25.85,23.69-25.85c6.49,0,11.89,2.85,14.65,6.19v-5Zm-26.44,37.65c6.88,0,12-5.41,12-13s-5.11-13-12-13-12,5.41-12,13S741,869.65,747.79,869.65Z"/><rect class="cls-4" x="799.36" y="789.99" width="103.54" height="103.54"/><path d="M875.37,802.25V881.8H860.43v-5c-2.75,3.34-8.16,6.19-14.65,6.19-13.37,0-23.69-11.21-23.69-25.85s10.32-25.85,23.69-25.85c6.49,0,11.89,2.85,14.65,6.19V802.25ZM848.92,870.1c6.88,0,12-5.41,12-13s-5.11-13-12-13-12,5.41-12,13S842.14,870.1,848.92,870.1Z"/><rect class="cls-3" x="902.9" y="789.99" width="103.54" height="103.54"/><path d="M934.95,869.35h17.69V844H934.95V832h32.63v37.35h17.69v12H934.95Zm13.86-58.64a9.83,9.83,0,1,1,9.83,9.73A9.77,9.77,0,0,1,948.81,810.72Z"/><rect class="cls-3" x="1109.97" y="789.99" width="103.54" height="103.54"/><path d="M1142,869.35h17.69V813.78H1142v-12h32.63v67.56h17.69v12H1142Z"/><rect class="cls-4" x="1006.43" y="789.99" width="103.54" height="103.54"/><path d="M1059.14,869.55c-6.68,0-11.8-5.21-11.8-12.88s5.11-12.88,11.8-12.88a9.77,9.77,0,0,1,9.41,6.88h15.26c-1.58-11.18-12.24-19.86-24.66-19.86-14.45,0-26.54,11-26.54,25.85s12.09,25.85,26.54,25.85c12.42,0,23.09-8.68,24.66-19.86h-15.26A9.77,9.77,0,0,1,1059.14,869.55Z"/><rect class="cls-4" x="592.29" y="789.99" width="103.54" height="103.54"/><rect class="cls-4" x="1213.5" y="789.99" width="103.54" height="103.54"/><path d="M1290.39,858.15c0-15.92-9.54-27.33-24.77-27.33a25.55,25.55,0,0,0-25.46,25.85c0,14.84,9.82,25.85,25.85,25.85,15.49,0,22.63-11.26,23.37-17h-13.23c-1.21,3-4.39,5.33-10.13,5.33-6.48,0-11.51-4.48-12-10.38h36.27A19.24,19.24,0,0,0,1290.39,858.15Zm-35.88-6.88a11.61,11.61,0,0,1,11.21-8.26c6.29,0,9.63,4,10.32,8.26Z"/><polygon points="668.06 832 627.95 832 627.95 881.35 642.89 881.35 642.89 843.99 668.06 843.99 668.06 832"/></g></g></svg>