<svg id="Layer_1" data-name="Layer 1" xmlns="http://www.w3.org/2000/svg" viewBox="0 0 1920 1080"><defs><style>.cls-1{fill:#55f;}.cls-2{fill:#37ff47;}</style></defs><title>guideline-0101</title><rect class="cls-1" width="1920" height="1080"/><path class="cls-2" d="M490.08,407.67H479.85V322h26.71c15.92,0,28,9,28,24.55s-12,24.55-28,24.55H490.08Zm0-45.47h15.8c10,0,18.64-4.21,18.64-15.69s-8.64-15.69-18.64-15.69h-15.8Z"/><path class="cls-2" d="M592,389.14l7.73,4.32c-5.34,10-14.44,15.57-24.9,15.57-15,0-27.28-12.62-27.28-28.08s12.28-28.08,27.28-28.08c14.32,0,25.92,10.34,25.92,29.44H556.7c.68,10.34,8.75,17.73,18.19,17.73C583.75,400.05,588.3,396.19,592,389.14Zm-34.56-14.21h33.2c-1.25-7.5-6.71-13.3-15.8-13.3C566.59,361.63,559.88,367.09,557.49,374.93Z"/><path class="cls-2" d="M662.53,389.14l7.73,4.32c-5.34,10-14.44,15.57-24.9,15.57-15,0-27.28-12.62-27.28-28.08s12.28-28.08,27.28-28.08c14.32,0,25.92,10.34,25.92,29.44H627.18c.68,10.34,8.75,17.73,18.19,17.73C654.23,400.05,658.78,396.19,662.53,389.14ZM628,374.93h33.2c-1.25-7.5-6.71-13.3-15.8-13.3C637.07,361.63,630.36,367.09,628,374.93Z"/><path class="cls-2" d="M717.55,361.63c-9.21,0-15.57,8.07-15.57,19.44v26.6h-9.55V354.24H702V364.7c3.87-7.16,10.57-11.82,19.1-11.82,12.73,0,20,10.34,20,21.6V383h-9.44v-6.82C731.65,367.88,726.19,361.63,717.55,361.63Z"/><path class="cls-2" d="M809.52,373.22V382H761.78v-8.75Z"/><path class="cls-2" d="M827.71,354.24h23.65V334.91h9.55v19.33h23.64v8.41H860.91v45h-9.55v-45H827.71Z"/><path class="cls-2" d="M926.61,352.88A28.08,28.08,0,1,1,898.88,381,28,28,0,0,1,926.61,352.88Zm0,47.18C936.73,400.05,945,392,945,381s-8.3-19.1-18.42-19.1S908.2,369.93,908.2,381,916.5,400.05,926.61,400.05Z"/><path class="cls-2" d="M1021,373.22V382H973.22v-8.75Z"/><path class="cls-2" d="M1052.12,364c3.29-6.82,11.82-11.14,19.21-11.14,15.23,0,26.37,12.73,26.37,28.08S1086.56,409,1071.33,409c-7.39,0-15.92-4.32-19.21-11.14v39.79h-9.55V354.24h9.55Zm17.51-2.27c-10.35,0-18.19,8.18-18.19,19.21s7.84,19.21,18.19,19.21c10.57,0,18.64-8.18,18.64-19.21S1080.2,361.74,1069.63,361.74Z"/><path class="cls-2" d="M1155.91,389.14l7.73,4.32c-5.34,10-14.44,15.57-24.89,15.57-15,0-27.28-12.62-27.28-28.08s12.28-28.08,27.28-28.08c14.32,0,25.92,10.34,25.92,29.44h-44.11c.68,10.34,8.75,17.73,18.19,17.73C1147.61,400.05,1152.16,396.19,1155.91,389.14Zm-34.56-14.21h33.19c-1.25-7.5-6.71-13.3-15.8-13.3C1130.44,361.63,1123.74,367.09,1121.35,374.93Z"/><path class="cls-2" d="M1226.39,389.14l7.73,4.32c-5.34,10-14.44,15.57-24.89,15.57-15,0-27.28-12.62-27.28-28.08s12.28-28.08,27.28-28.08c14.32,0,25.92,10.34,25.92,29.44H1191c.68,10.34,8.75,17.73,18.19,17.73C1218.09,400.05,1222.64,396.19,1226.39,389.14Zm-34.56-14.21H1225c-1.25-7.5-6.71-13.3-15.8-13.3C1200.93,361.63,1194.22,367.09,1191.83,374.93Z"/><path class="cls-2" d="M1281.41,361.63c-9.21,0-15.57,8.07-15.57,19.44v26.6h-9.55V354.24h9.55V364.7c3.87-7.16,10.57-11.82,19.1-11.82,12.73,0,20,10.34,20,21.6V383h-9.44v-6.82C1295.51,367.88,1290.05,361.63,1281.41,361.63Z"/><path class="cls-2" d="M490.08,544.09H479.85V458.37h26.71c15.92,0,28,9,28,24.55s-12,24.55-28,24.55H490.08Zm0-45.47h15.8c10,0,18.64-4.21,18.64-15.69s-8.64-15.69-18.64-15.69h-15.8Z"/><path class="cls-2" d="M576.59,498c-9.21,0-15.57,8.07-15.57,19.44v26.6h-9.55V490.66H561v10.46c3.87-7.16,10.57-11.82,19.1-11.82,12.73,0,20,10.34,20,21.6v8.53h-9.44V512.6C590.69,504.3,585.23,498,576.59,498Z"/><path class="cls-2" d="M644.68,489.29a28.08,28.08,0,1,1-27.74,28.08A28,28,0,0,1,644.68,489.29Zm0,47.18c10.12,0,18.42-8.07,18.42-19.1s-8.3-19.1-18.42-19.1-18.42,8.07-18.42,19.1S634.57,536.47,644.68,536.47Z"/><path class="cls-2" d="M712.78,575c-13.19,0-26-9.21-26-24.21h9.32c.8,10.12,8,15.46,16.71,15.46,10.12,0,17.85-7.62,17.85-18.87V534.31c-3.3,6.82-11.82,11.14-19.21,11.14-15.23,0-26.37-12.73-26.37-28.08s11.14-28.08,26.38-28.08c7.39,0,15.91,4.32,19.21,11.14v-9.78h9.55v56.73A27.39,27.39,0,0,1,712.78,575Zm.34-38.42c10.34,0,18.19-8.18,18.19-19.21s-7.84-19.21-18.19-19.21c-10.57,0-18.64,8.18-18.64,19.21S702.55,536.58,713.12,536.58Z"/><path class="cls-2" d="M788,498c-9.21,0-15.57,8.07-15.57,19.44v26.6h-9.55V490.66h9.55v10.46c3.87-7.16,10.57-11.82,19.1-11.82,12.73,0,20,10.34,20,21.6v8.53h-9.44V512.6C802.13,504.3,796.68,498,788,498Z"/><path class="cls-2" d="M881.14,490.66v53.43h-9.55v-9.78c-3.3,6.82-11.82,11.14-19.21,11.14-15.23,0-26.37-12.73-26.37-28.08s11.14-28.08,26.38-28.08c7.39,0,15.91,4.32,19.21,11.14v-9.78Zm-27.05,45.93c10.34,0,18.19-8.18,18.19-19.21s-7.84-19.21-18.19-19.21c-10.57,0-18.64,8.18-18.64,19.21S843.51,536.58,854.09,536.58Z"/><path class="cls-2" d="M942.41,489.29c6.71,0,12.73,4.77,12.73,14v40.81h-9V506.8c0-5.8-2.5-9-6.71-9-5,0-8.18,4.43-8.18,11.82v34.44h-9V506.8c0-5.8-2.5-9-6.71-9-5,0-8.19,4.43-8.19,11.82v34.44h-9V490.66h9v6.93c2.16-5.91,6.82-8.3,11.37-8.3,5.46,0,8.87,3.3,10.57,8.3C932.18,492.59,937.07,489.29,942.41,489.29Z"/><path class="cls-2" d="M1012.9,489.29c6.71,0,12.73,4.77,12.73,14v40.81h-9V506.8c0-5.8-2.5-9-6.71-9-5,0-8.18,4.43-8.18,11.82v34.44h-9V506.8c0-5.8-2.5-9-6.71-9-5,0-8.19,4.43-8.19,11.82v34.44h-9V490.66h9v6.93c2.16-5.91,6.82-8.3,11.37-8.3,5.46,0,8.87,3.3,10.57,8.3C1002.67,492.59,1007.55,489.29,1012.9,489.29Z"/><path class="cls-2" d="M1092.59,490.66v53.43H1083v-9.78c-3.3,6.82-11.82,11.14-19.21,11.14-15.23,0-26.37-12.73-26.37-28.08s11.14-28.08,26.38-28.08c7.39,0,15.91,4.32,19.21,11.14v-9.78Zm-27.05,45.93c10.34,0,18.19-8.18,18.19-19.21s-7.84-19.21-18.19-19.21c-10.57,0-18.64,8.18-18.64,19.21S1055,536.58,1065.53,536.58Z"/><path class="cls-2" d="M1122.6,500.43c3.3-6.82,11.82-11.14,19.21-11.14,15.23,0,26.38,12.73,26.38,28.08s-11.14,28.08-26.37,28.08c-7.39,0-15.91-4.32-19.21-11.14v9.78h-9.55V445.64h9.55Zm17.51-2.27c-10.34,0-18.19,8.18-18.19,19.21s7.84,19.21,18.19,19.21c10.57,0,18.64-8.18,18.64-19.21S1150.68,498.16,1140.11,498.16Z"/><path class="cls-2" d="M1184.44,535.68H1206V454.05h-21.6v-8.41h31.15v90h21.6v8.41h-52.75Z"/><path class="cls-2" d="M1296.87,525.56l7.73,4.32c-5.34,10-14.44,15.57-24.89,15.57-15,0-27.28-12.62-27.28-28.08s12.28-28.08,27.28-28.08c14.32,0,25.92,10.34,25.92,29.44h-44.11c.68,10.34,8.75,17.73,18.19,17.73C1288.57,536.47,1293.12,532.61,1296.87,525.56Zm-34.56-14.21h33.19c-1.25-7.5-6.71-13.3-15.8-13.3C1271.41,498,1264.7,503.5,1262.31,511.35Z"/><path class="cls-2" d="M508.83,603.89v76.62H498.6V603.89H471.89v-9.09h63.66v9.09Z"/><path class="cls-2" d="M592,662l7.73,4.32c-5.34,10-14.44,15.57-24.9,15.57-15,0-27.28-12.62-27.28-28.08s12.28-28.08,27.28-28.08c14.32,0,25.92,10.34,25.92,29.44H556.7c.68,10.34,8.75,17.73,18.19,17.73C583.75,672.89,588.3,669,592,662Zm-34.56-14.21h33.2c-1.25-7.5-6.71-13.3-15.8-13.3C566.59,634.47,559.88,639.92,557.49,647.77Z"/><path class="cls-2" d="M647.07,634.47c-9.21,0-15.57,8.07-15.57,19.44v26.6h-9.55V627.08h9.55v10.46c3.87-7.16,10.57-11.82,19.1-11.82,12.73,0,20,10.34,20,21.6v8.53h-9.44V649C661.17,640.72,655.71,634.47,647.07,634.47Z"/><path class="cls-2" d="M731,625.71c6.71,0,12.73,4.77,12.73,14v40.81h-9V643.22c0-5.8-2.5-9-6.71-9-5,0-8.18,4.43-8.18,11.82v34.44h-9V643.22c0-5.8-2.5-9-6.71-9-5,0-8.19,4.43-8.19,11.82v34.44h-9V627.08h9V634c2.16-5.91,6.82-8.3,11.37-8.3,5.46,0,8.87,3.3,10.57,8.3C720.74,629,725.63,625.71,731,625.71Z"/><path class="cls-2" d="M761.55,672.09h21.6v-36.6h-21.6v-8.41H792.7v45h21.6v8.41H761.55Zm17.73-69.8a7.72,7.72,0,0,1,7.5-7.5,7.57,7.57,0,0,1,7.5,7.5,7.42,7.42,0,0,1-7.5,7.5A7.57,7.57,0,0,1,779.28,602.3Z"/><path class="cls-2" d="M857.27,634.24c-8.41,0-14.32,6.48-14.32,17.05v29.21H833.4V627.08h9.55v8.3a19.93,19.93,0,0,1,17.51-9.66c12.28,0,18.87,8.75,18.87,19.1v35.7h-9.55V647.2C869.77,639,865.11,634.24,857.27,634.24Z"/><path class="cls-2" d="M951.62,627.08v53.43h-9.55v-9.78c-3.3,6.82-11.82,11.14-19.21,11.14-15.23,0-26.37-12.73-26.37-28.08s11.14-28.08,26.38-28.08c7.39,0,15.91,4.32,19.21,11.14v-9.78ZM924.57,673c10.34,0,18.19-8.18,18.19-19.21s-7.84-19.21-18.19-19.21c-10.57,0-18.64,8.18-18.64,19.21S914,673,924.57,673Z"/><path class="cls-2" d="M973,672.09h21.6V590.47H973v-8.41h31.15v90h21.6v8.41H973Z"/><path class="cls-2" d="M1091.45,646.06v8.75h-47.74v-8.75Z"/><path class="cls-2" d="M1109.64,627.08h23.64V607.52c0-15.12,10.35-26.15,24.33-26.15a26.8,26.8,0,0,1,8.64,1.36v9a27.36,27.36,0,0,0-8.87-1.36c-8.64,0-14.55,5.8-14.55,17.51v19.21h23.53v8.41h-23.53v45h-9.55v-45h-23.64Z"/><path class="cls-2" d="M1184.44,672.09H1206v-36.6h-21.6v-8.41h31.15v45h21.6v8.41h-52.75Zm17.73-69.8a7.73,7.73,0,0,1,7.5-7.5,7.57,7.57,0,0,1,7.5,7.5,7.42,7.42,0,0,1-7.5,7.5A7.57,7.57,0,0,1,1202.18,602.3Z"/><path class="cls-2" d="M1281.41,634.47c-9.21,0-15.57,8.07-15.57,19.44v26.6h-9.55V627.08h9.55v10.46c3.87-7.16,10.57-11.82,19.1-11.82,12.73,0,20,10.34,20,21.6v8.53h-9.44V649C1295.51,640.72,1290.05,634.47,1281.41,634.47Z"/><path class="cls-2" d="M1332.23,662.89c2.73,7.28,10.46,10.91,18.53,10.91,7.39,0,13.53-3.3,13.53-9.09,0-13.19-36.72-1.36-36.72-22.17,0-9.43,8.87-16.82,21.71-16.82,12.16,0,19.21,5.34,22.85,12.85l-8.87,3.64c-2.5-5.68-7.73-8.41-14.78-8.41s-11.82,3.3-11.82,8.18c0,11.48,37.06,1.14,37.06,22.39,0,10.46-10.35,17.51-23.3,17.51-12.39,0-22.73-5.23-27.28-15.23Z"/><path class="cls-2" d="M1391.57,627.08h23.64V607.75h9.55v19.33h23.64v8.41h-23.64v45h-9.55v-45h-23.64Z"/></svg>