<svg xmlns="http://www.w3.org/2000/svg" viewBox="0 0 1920 1080"><defs><style>.cls-1{isolation:isolate;}.cls-2{fill:#f1f2f2;}.cls-3{fill:none;mix-blend-mode:multiply;}</style></defs><title>guideline-0101</title><g class="cls-1"><g id="Layer_1" data-name="Layer 1"><rect class="cls-2" width="1920" height="1080"/><rect class="cls-3" x="152.25" y="179.93" width="96.79" height="96.79"/><polygon points="223.08 219.2 185.59 219.2 185.59 265.34 199.56 265.34 199.56 230.42 223.08 230.42 223.08 219.2"/><rect class="cls-3" x="249.04" y="276.72" width="96.79" height="96.79"/><path d="M322.34,316v46.13h-14v-4.69c-2.57,3.13-7.63,5.79-13.69,5.79-12.5,0-22.15-10.48-22.15-24.17s9.65-24.17,22.15-24.17c6.07,0,11.12,2.66,13.69,5.79V316Zm-24.72,35.2c6.43,0,11.21-5.05,11.21-12.13s-4.78-12.13-11.21-12.13-11.21,5.05-11.21,12.13S291.28,351.2,297.62,351.2Z"/><rect class="cls-3" x="345.84" y="276.72" width="96.79" height="96.79"/><path d="M416.89,288.18v74.37h-14v-4.69c-2.57,3.13-7.63,5.79-13.69,5.79-12.5,0-22.15-10.48-22.15-24.17s9.65-24.17,22.15-24.17c6.07,0,11.12,2.66,13.69,5.79V288.18Zm-24.72,63.44c6.43,0,11.21-5.05,11.21-12.13s-4.78-12.13-11.21-12.13S381,332.41,381,339.49,385.83,351.62,392.17,351.62Z"/><rect class="cls-3" x="152.25" y="276.72" width="96.79" height="96.79"/><polygon points="223.08 316 185.59 316 185.59 362.13 199.56 362.13 199.56 327.21 223.08 327.21 223.08 316"/><rect class="cls-3" x="249.04" y="373.52" width="96.79" height="96.79"/><path d="M322.34,412.79v46.13h-14v-4.69c-2.57,3.13-7.63,5.79-13.69,5.79-12.5,0-22.15-10.48-22.15-24.17s9.65-24.17,22.15-24.17c6.07,0,11.12,2.66,13.69,5.79v-4.69ZM297.62,448c6.43,0,11.21-5.05,11.21-12.13s-4.78-12.13-11.21-12.13-11.21,5.05-11.21,12.13S291.28,448,297.62,448Z"/><rect class="cls-3" x="345.84" y="373.52" width="96.79" height="96.79"/><path d="M416.89,385v74.37h-14v-4.69c-2.57,3.13-7.63,5.79-13.69,5.79-12.5,0-22.15-10.48-22.15-24.17s9.65-24.17,22.15-24.17c6.07,0,11.12,2.66,13.69,5.79V385Zm-24.72,63.44c6.43,0,11.21-5.05,11.21-12.13s-4.78-12.13-11.21-12.13S381,429.21,381,436.28,385.83,448.41,392.17,448.41Z"/><rect class="cls-3" x="442.63" y="373.52" width="96.79" height="96.79"/><path d="M472.6,447.72h16.54V424H472.6V412.79h30.51v34.92h16.54v11.21H472.6Zm13-54.82a9.19,9.19,0,1,1,9.19,9.1A9.14,9.14,0,0,1,485.55,392.9Z"/><rect class="cls-3" x="539.43" y="373.52" width="96.79" height="96.79"/><path d="M588.7,447.9c-6.25,0-11-4.87-11-12s4.78-12,11-12a9.13,9.13,0,0,1,8.8,6.43h14.26c-1.47-10.45-11.45-18.56-23.06-18.56-13.51,0-24.81,10.29-24.81,24.17S575.19,460,588.7,460c11.61,0,21.59-8.11,23.06-18.56H597.5A9.13,9.13,0,0,1,588.7,447.9Z"/><rect class="cls-3" x="152.25" y="373.52" width="96.79" height="96.79"/><polygon points="223.08 412.79 185.59 412.79 185.59 458.93 199.56 458.93 199.56 424 223.08 424 223.08 412.79"/><rect class="cls-3" x="249.04" y="470.31" width="96.79" height="96.79"/><path d="M322.34,509.59v46.13h-14V551c-2.57,3.13-7.63,5.79-13.69,5.79-12.5,0-22.15-10.48-22.15-24.17s9.65-24.17,22.15-24.17c6.07,0,11.12,2.66,13.69,5.79v-4.69Zm-24.72,35.2c6.43,0,11.21-5.05,11.21-12.13s-4.78-12.13-11.21-12.13-11.21,5.05-11.21,12.13S291.28,544.78,297.62,544.78Z"/><rect class="cls-3" x="345.84" y="470.31" width="96.79" height="96.79"/><path d="M416.89,481.77v74.37h-14v-4.69c-2.57,3.13-7.63,5.79-13.69,5.79-12.5,0-22.15-10.48-22.15-24.17s9.65-24.17,22.15-24.17c6.07,0,11.12,2.66,13.69,5.79V481.77Zm-24.72,63.44c6.43,0,11.21-5.05,11.21-12.13s-4.78-12.13-11.21-12.13S381,526,381,533.08,385.83,545.21,392.17,545.21Z"/><rect class="cls-3" x="442.63" y="470.31" width="96.79" height="96.79"/><path d="M472.6,544.51h16.54V520.8H472.6V509.59h30.51v34.92h16.54v11.21H472.6Zm13-54.82a9.19,9.19,0,1,1,9.19,9.1A9.14,9.14,0,0,1,485.55,489.69Z"/><rect class="cls-3" x="636.22" y="470.31" width="96.79" height="96.79"/><path d="M666.19,544.51h16.54v-52H666.19V481.35H696.7v63.16h16.54v11.21H666.19Z"/><rect class="cls-3" x="539.43" y="470.31" width="96.79" height="96.79"/><path d="M588.7,544.69c-6.25,0-11-4.87-11-12s4.78-12,11-12a9.13,9.13,0,0,1,8.8,6.43h14.26c-1.47-10.45-11.45-18.56-23.06-18.56-13.51,0-24.81,10.29-24.81,24.17s11.3,24.17,24.81,24.17c11.61,0,21.59-8.11,23.06-18.56H597.5A9.13,9.13,0,0,1,588.7,544.69Z"/><rect class="cls-3" x="152.25" y="470.31" width="96.79" height="96.79"/><rect class="cls-3" x="733.02" y="470.31" width="96.79" height="96.79"/><path d="M804.89,534c0-14.89-8.91-25.55-23.16-25.55a23.88,23.88,0,0,0-23.8,24.17c0,13.88,9.18,24.17,24.17,24.17,14.48,0,21.16-10.53,21.84-15.87H791.58c-1.13,2.84-4.11,5-9.47,5-6.06,0-10.76-4.19-11.21-9.7H804.8A18,18,0,0,0,804.89,534Zm-33.54-6.43a10.85,10.85,0,0,1,10.48-7.72c5.88,0,9,3.77,9.65,7.72Z"/><polygon points="223.08 509.59 185.59 509.59 185.59 555.72 199.56 555.72 199.56 520.8 223.08 520.8 223.08 509.59"/><rect class="cls-3" x="345.84" y="567.11" width="96.79" height="96.79"/><path d="M416.89,578.57v74.37h-14v-4.69c-2.57,3.13-7.63,5.79-13.69,5.79-12.5,0-22.15-10.48-22.15-24.17s9.65-24.17,22.15-24.17c6.07,0,11.12,2.66,13.69,5.79V578.57ZM392.17,642c6.43,0,11.21-5.05,11.21-12.13s-4.78-12.13-11.21-12.13S381,622.8,381,629.87,385.83,642,392.17,642Z"/><rect class="cls-3" x="442.63" y="567.11" width="96.79" height="96.79"/><path d="M472.6,641.31h16.54V617.59H472.6V606.38h30.51v34.92h16.54v11.21H472.6Zm13-54.82a9.19,9.19,0,1,1,9.19,9.1A9.14,9.14,0,0,1,485.55,586.48Z"/><rect class="cls-3" x="636.22" y="567.11" width="96.79" height="96.79"/><path d="M666.19,641.31h16.54v-52H666.19V578.14H696.7v63.16h16.54v11.21H666.19Z"/><rect class="cls-3" x="539.43" y="567.11" width="96.79" height="96.79"/><path d="M588.7,641.49c-6.25,0-11-4.87-11-12s4.78-12,11-12a9.13,9.13,0,0,1,8.8,6.43h14.26c-1.47-10.45-11.45-18.56-23.06-18.56-13.51,0-24.81,10.29-24.81,24.17s11.3,24.17,24.81,24.17c11.61,0,21.59-8.11,23.06-18.56H597.5A9.13,9.13,0,0,1,588.7,641.49Z"/><rect class="cls-3" x="733.02" y="567.11" width="96.79" height="96.79"/><path d="M804.89,630.83c0-14.89-8.91-25.55-23.16-25.55a23.88,23.88,0,0,0-23.8,24.17c0,13.88,9.18,24.17,24.17,24.17,14.48,0,21.16-10.53,21.84-15.87H791.58c-1.13,2.84-4.11,5-9.47,5-6.06,0-10.76-4.19-11.21-9.7H804.8A18,18,0,0,0,804.89,630.83Zm-33.54-6.43a10.85,10.85,0,0,1,10.48-7.72c5.88,0,9,3.77,9.65,7.72Z"/><rect class="cls-3" x="636.22" y="663.9" width="96.79" height="96.79"/><path d="M666.19,738.1h16.54v-52H666.19V674.94H696.7V738.1h16.54v11.21H666.19Z"/><rect class="cls-3" x="539.43" y="663.9" width="96.79" height="96.79"/><path d="M588.7,738.28c-6.25,0-11-4.87-11-12s4.78-12,11-12a9.13,9.13,0,0,1,8.8,6.43h14.26c-1.47-10.45-11.45-18.56-23.06-18.56-13.51,0-24.81,10.29-24.81,24.17s11.3,24.17,24.81,24.17c11.61,0,21.59-8.11,23.06-18.56H597.5A9.13,9.13,0,0,1,588.7,738.28Z"/><rect class="cls-3" x="733.02" y="663.9" width="96.79" height="96.79"/><path d="M804.89,727.62c0-14.89-8.91-25.55-23.16-25.55a23.88,23.88,0,0,0-23.8,24.17c0,13.88,9.18,24.17,24.17,24.17,14.48,0,21.16-10.53,21.84-15.87H791.58c-1.13,2.84-4.11,5-9.47,5-6.06,0-10.76-4.19-11.21-9.7H804.8A18,18,0,0,0,804.89,727.62Zm-33.54-6.43a10.85,10.85,0,0,1,10.48-7.72c5.88,0,9,3.77,9.65,7.72Z"/><rect class="cls-3" x="733.02" y="760.69" width="96.79" height="96.79"/><path d="M804.89,824.42c0-14.89-8.91-25.55-23.16-25.55A23.88,23.88,0,0,0,757.93,823c0,13.88,9.18,24.17,24.17,24.17,14.48,0,21.16-10.53,21.84-15.87H791.58c-1.13,2.84-4.11,5-9.47,5-6.06,0-10.76-4.19-11.21-9.7H804.8A18,18,0,0,0,804.89,824.42ZM771.35,818a10.85,10.85,0,0,1,10.48-7.72c5.88,0,9,3.77,9.65,7.72Z"/><rect class="cls-3" x="1335.8" y="179.93" width="96.79" height="96.79"/><polygon points="1402.95 219.2 1365.45 219.2 1365.45 265.34 1379.42 265.34 1379.42 230.42 1402.95 230.42 1402.95 219.2"/><rect class="cls-3" x="1335.8" y="276.72" width="96.79" height="96.79"/><path d="M1409.1,316v46.13h-14v-4.69c-2.57,3.13-7.63,5.79-13.69,5.79-12.5,0-22.15-10.48-22.15-24.17s9.65-24.17,22.15-24.17c6.07,0,11.12,2.66,13.69,5.79V316Zm-24.72,35.2c6.43,0,11.21-5.05,11.21-12.13s-4.78-12.13-11.21-12.13-11.21,5.05-11.21,12.13S1378,351.2,1384.38,351.2Z"/><rect class="cls-3" x="1432.6" y="276.72" width="96.79" height="96.79"/><path d="M1503.65,288.18v74.37h-14v-4.69c-2.57,3.13-7.63,5.79-13.69,5.79-12.5,0-22.15-10.48-22.15-24.17s9.65-24.17,22.15-24.17c6.07,0,11.12,2.66,13.69,5.79V288.18Zm-24.72,63.44c6.43,0,11.21-5.05,11.21-12.13s-4.78-12.13-11.21-12.13-11.21,5.05-11.21,12.13S1472.59,351.62,1478.93,351.62Z"/><rect class="cls-3" x="1239.01" y="276.72" width="96.79" height="96.79"/><polygon points="1309.84 316 1272.35 316 1272.35 362.13 1286.31 362.13 1286.31 327.21 1309.84 327.21 1309.84 316"/><rect class="cls-3" x="1239.01" y="373.52" width="96.79" height="96.79"/><path d="M1312.31,412.79v46.13h-14v-4.69c-2.57,3.13-7.63,5.79-13.69,5.79-12.5,0-22.15-10.48-22.15-24.17s9.65-24.17,22.15-24.17c6.07,0,11.12,2.66,13.69,5.79v-4.69ZM1287.59,448c6.43,0,11.21-5.05,11.21-12.13s-4.78-12.13-11.21-12.13-11.21,5.05-11.21,12.13S1281.25,448,1287.59,448Z"/><rect class="cls-3" x="1335.8" y="373.52" width="96.79" height="96.79"/><path d="M1406.86,385v74.37h-14v-4.69c-2.57,3.13-7.63,5.79-13.69,5.79-12.5,0-22.15-10.48-22.15-24.17s9.65-24.17,22.15-24.17c6.07,0,11.12,2.66,13.69,5.79V385Zm-24.72,63.44c6.43,0,11.21-5.05,11.21-12.13s-4.78-12.13-11.21-12.13-11.21,5.05-11.21,12.13S1375.8,448.41,1382.14,448.41Z"/><rect class="cls-3" x="1432.6" y="373.52" width="96.79" height="96.79"/><path d="M1462.56,447.72h16.54V424h-16.54V412.79h30.51v34.92h16.54v11.21h-47.05Zm13-54.82a9.19,9.19,0,1,1,9.19,9.1A9.14,9.14,0,0,1,1475.52,392.9Z"/><rect class="cls-3" x="1529.39" y="373.52" width="96.79" height="96.79"/><path d="M1578.67,447.9c-6.25,0-11-4.87-11-12s4.78-12,11-12a9.13,9.13,0,0,1,8.8,6.43h14.26c-1.47-10.45-11.45-18.56-23.06-18.56-13.51,0-24.81,10.29-24.81,24.17s11.3,24.17,24.81,24.17c11.61,0,21.59-8.11,23.06-18.56h-14.26A9.13,9.13,0,0,1,1578.67,447.9Z"/><rect class="cls-3" x="1142.21" y="373.52" width="96.79" height="96.79"/><polygon points="1213.05 412.79 1175.55 412.79 1175.55 458.93 1189.52 458.93 1189.52 424 1213.05 424 1213.05 412.79"/><rect class="cls-3" x="1142.21" y="470.31" width="96.79" height="96.79"/><path d="M1215.51,509.59v46.13h-14V551c-2.57,3.13-7.63,5.79-13.69,5.79-12.5,0-22.15-10.48-22.15-24.17s9.65-24.17,22.15-24.17c6.07,0,11.12,2.66,13.69,5.79v-4.69Zm-24.72,35.2c6.43,0,11.21-5.05,11.21-12.13s-4.78-12.13-11.21-12.13-11.21,5.05-11.21,12.13S1184.45,544.78,1190.79,544.78Z"/><rect class="cls-3" x="1239.01" y="470.31" width="96.79" height="96.79"/><path d="M1310.06,481.77v74.37h-14v-4.69c-2.57,3.13-7.63,5.79-13.69,5.79-12.5,0-22.15-10.48-22.15-24.17s9.65-24.17,22.15-24.17c6.07,0,11.12,2.66,13.69,5.79V481.77Zm-24.72,63.44c6.43,0,11.21-5.05,11.21-12.13s-4.78-12.13-11.21-12.13-11.21,5.05-11.21,12.13S1279,545.21,1285.34,545.21Z"/><rect class="cls-3" x="1335.8" y="470.31" width="96.79" height="96.79"/><path d="M1365.77,544.51h16.54V520.8h-16.54V509.59h30.51v34.92h16.54v11.21h-47.05Zm13-54.82a9.19,9.19,0,1,1,9.19,9.1A9.14,9.14,0,0,1,1378.72,489.69Z"/><rect class="cls-3" x="1529.39" y="470.31" width="96.79" height="96.79"/><path d="M1559.36,544.51h16.54v-52h-16.54V481.35h30.51v63.16h16.54v11.21h-47.05Z"/><rect class="cls-3" x="1432.6" y="470.31" width="96.79" height="96.79"/><path d="M1481.87,544.69c-6.25,0-11-4.87-11-12s4.78-12,11-12a9.13,9.13,0,0,1,8.8,6.43h14.26c-1.47-10.45-11.45-18.56-23.06-18.56-13.51,0-24.81,10.29-24.81,24.17s11.3,24.17,24.81,24.17c11.61,0,21.59-8.11,23.06-18.56h-14.26A9.13,9.13,0,0,1,1481.87,544.69Z"/><rect class="cls-3" x="1045.42" y="470.31" width="96.79" height="96.79"/><rect class="cls-3" x="1626.19" y="470.31" width="96.79" height="96.79"/><path d="M1698.06,534c0-14.89-8.91-25.55-23.16-25.55a23.88,23.88,0,0,0-23.8,24.17c0,13.88,9.18,24.17,24.17,24.17,14.48,0,21.16-10.53,21.84-15.87h-12.37c-1.13,2.84-4.11,5-9.47,5-6.06,0-10.76-4.19-11.21-9.7H1698A18,18,0,0,0,1698.06,534Zm-33.54-6.43a10.85,10.85,0,0,1,10.48-7.72c5.88,0,9,3.77,9.65,7.72Z"/><polygon points="1116.25 509.59 1078.76 509.59 1078.76 555.72 1092.72 555.72 1092.72 520.8 1116.25 520.8 1116.25 509.59"/><rect class="cls-3" x="1142.21" y="567.11" width="96.79" height="96.79"/><path d="M1213.27,578.57v74.37h-14v-4.69c-2.57,3.13-7.63,5.79-13.69,5.79-12.5,0-22.15-10.48-22.15-24.17s9.65-24.17,22.15-24.17c6.07,0,11.12,2.66,13.69,5.79V578.57ZM1188.55,642c6.43,0,11.21-5.05,11.21-12.13s-4.78-12.13-11.21-12.13-11.21,5.05-11.21,12.13S1182.21,642,1188.55,642Z"/><rect class="cls-3" x="1239.01" y="567.11" width="96.79" height="96.79"/><path d="M1269,641.31h16.54V617.59H1269V606.38h30.51v34.92H1316v11.21H1269Zm13-54.82a9.19,9.19,0,1,1,9.19,9.1A9.14,9.14,0,0,1,1281.93,586.48Z"/><rect class="cls-3" x="1432.6" y="567.11" width="96.79" height="96.79"/><path d="M1462.56,641.31h16.54v-52h-16.54V578.14h30.51v63.16h16.54v11.21h-47.05Z"/><rect class="cls-3" x="1335.8" y="567.11" width="96.79" height="96.79"/><path d="M1385.08,641.49c-6.25,0-11-4.87-11-12s4.78-12,11-12a9.13,9.13,0,0,1,8.8,6.43h14.26c-1.47-10.45-11.45-18.56-23.06-18.56-13.51,0-24.81,10.29-24.81,24.17s11.3,24.17,24.81,24.17c11.61,0,21.59-8.11,23.06-18.56h-14.26A9.13,9.13,0,0,1,1385.08,641.49Z"/><rect class="cls-3" x="1529.39" y="567.11" width="96.79" height="96.79"/><path d="M1601.27,630.83c0-14.89-8.91-25.55-23.16-25.55a23.88,23.88,0,0,0-23.8,24.17c0,13.88,9.18,24.17,24.17,24.17,14.48,0,21.16-10.53,21.84-15.87H1588c-1.13,2.84-4.11,5-9.47,5-6.06,0-10.76-4.19-11.21-9.7h33.91A18,18,0,0,0,1601.27,630.83Zm-33.54-6.43a10.85,10.85,0,0,1,10.48-7.72c5.88,0,9,3.77,9.65,7.72Z"/><rect class="cls-3" x="1335.8" y="663.9" width="96.79" height="96.79"/><path d="M1365.77,738.1h16.54v-52h-16.54V674.94h30.51V738.1h16.54v11.21h-47.05Z"/><rect class="cls-3" x="1239.01" y="663.9" width="96.79" height="96.79"/><path d="M1288.28,738.28c-6.25,0-11-4.87-11-12s4.78-12,11-12a9.13,9.13,0,0,1,8.8,6.43h14.26c-1.47-10.45-11.45-18.56-23.06-18.56-13.51,0-24.81,10.29-24.81,24.17s11.3,24.17,24.81,24.17c11.61,0,21.59-8.11,23.06-18.56h-14.26A9.13,9.13,0,0,1,1288.28,738.28Z"/><rect class="cls-3" x="1432.6" y="663.9" width="96.79" height="96.79"/><path d="M1504.47,727.62c0-14.89-8.91-25.55-23.16-25.55a23.88,23.88,0,0,0-23.8,24.17c0,13.88,9.18,24.17,24.17,24.17,14.48,0,21.16-10.53,21.84-15.87h-12.37c-1.13,2.84-4.11,5-9.47,5-6.06,0-10.76-4.19-11.21-9.7h33.91A18,18,0,0,0,1504.47,727.62Zm-33.54-6.43a10.85,10.85,0,0,1,10.48-7.72c5.88,0,9,3.77,9.65,7.72Z"/><rect class="cls-3" x="1335.8" y="760.69" width="96.79" height="96.79"/><path d="M1407.68,824.42c0-14.89-8.91-25.55-23.16-25.55a23.88,23.88,0,0,0-23.8,24.17c0,13.88,9.18,24.17,24.17,24.17,14.48,0,21.16-10.53,21.84-15.87h-12.37c-1.13,2.84-4.11,5-9.47,5-6.06,0-10.76-4.19-11.21-9.7h33.91A18,18,0,0,0,1407.68,824.42ZM1374.14,818a10.85,10.85,0,0,1,10.48-7.72c5.88,0,9,3.77,9.65,7.72Z"/></g></g></svg>