<svg id="Layer_1" data-name="Layer 1" xmlns="http://www.w3.org/2000/svg" viewBox="0 0 1920 1080"><defs><style>.cls-1{fill:#f1f2f2;}</style></defs><title>guideline-0101</title><rect class="cls-1" width="1920" height="1080"/><path d="M526.08,489.83V602.14h-34V590.73c-6.26,7.61-18.57,14.1-33.34,14.1-30.43,0-53.92-25.51-53.92-58.84s23.49-58.84,53.92-58.84c14.77,0,27.07,6.49,33.34,14.1V489.83Zm-60.18,85.69c15.66,0,27.29-12.31,27.29-29.53s-11.63-29.53-27.29-29.53c-15.44,0-27.29,12.31-27.29,29.53S450.45,575.52,465.89,575.52Z"/><path d="M669.8,421.07V602.14h-34V590.73c-6.26,7.61-18.57,14.1-33.34,14.1-30.43,0-53.92-25.51-53.92-58.84s23.49-58.84,53.92-58.84c14.77,0,27.07,6.49,33.34,14.1V421.07ZM609.62,575.52c15.66,0,27.29-12.31,27.29-29.53s-11.63-29.53-27.29-29.53c-15.44,0-27.29,12.31-27.29,29.53S594.18,575.52,609.62,575.52Z"/><path d="M696.86,574.85h40.27V517.12H696.86v-27.3h74.28v85h40.27v27.29H696.86Zm31.55-133.47a22.37,22.37,0,1,1,22.37,22.15A22.25,22.25,0,0,1,728.41,441.38Z"/><path d="M940.65,574.85h40.27V448.36H940.65V421.07h74.28V574.85h40.27v27.29H940.65Z"/><path d="M878.06,575.3c-15.21,0-26.85-11.86-26.85-29.31s11.63-29.31,26.85-29.31c10.78,0,19.36,7.6,21.41,15.66H934.2c-3.59-25.45-27.87-45.19-56.14-45.19-32.89,0-60.41,25.06-60.41,58.84s27.52,58.84,60.41,58.84c28.27,0,52.55-19.75,56.14-45.19H899.48C897.42,567.7,888.85,575.3,878.06,575.3Z"/><path d="M1174,549.34c0-36.25-21.7-62.2-56.38-62.2-30.87,0-57.95,24.83-57.95,58.84,0,33.78,22.35,58.84,58.84,58.84,35.25,0,51.51-25.64,53.18-38.64h-30.12c-2.75,6.91-10,12.14-23.06,12.14-14.76,0-26.2-10.2-27.29-23.62h82.56A43.8,43.8,0,0,0,1174,549.34Zm-81.66-15.66c4-11.86,13.87-18.79,25.51-18.79,14.32,0,21.93,9.17,23.49,18.79Z"/><polygon points="387.89 489.83 296.61 489.83 296.61 602.14 330.61 602.14 330.61 517.12 387.89 517.12 387.89 489.83"/><path d="M1283.27,490.17l20.93,30.29,22.05-30.29h36.07l-39,53,43,58.79H1328l-25.17-35.18L1277.47,602h-36.52l43.22-57.47L1245,490.17Z"/><path d="M1420.73,579.7l-48.11-89.53h37l29.18,55.46,29.16-55.46h35.87l-90.66,170.59H1378Z"/><path d="M1512.93,517.34V490.17h110.46l-60.81,84.64h59.92V602H1511.06l58.44-84.64Z"/><path d="M1185,585.38a19.69,19.69,0,1,1,19.68,19.49A19.58,19.58,0,0,1,1185,585.38Z"/></svg>