<svg id="Layer_1" data-name="Layer 1" xmlns="http://www.w3.org/2000/svg" viewBox="0 0 1920 1080"><defs><style>.cls-1{fill:#37ff47;}</style></defs><title>guideline-0101</title><rect width="1920" height="1080"/><path class="cls-1" d="M156.08,167.32v-6.48c-6.36-.54-11.88-3.72-14.28-8.58l3.24-3.78a13.93,13.93,0,0,0,11,8.22V143.2l-3.12-.72c-5.1-1.14-9.48-3.9-9.48-9.84,0-6.24,5.16-10.68,12.6-10.92V115.6h3.36v6.3c5.58.72,9.66,3.6,11.76,7.26l-3.36,3.54a11.34,11.34,0,0,0-8.4-6.54v12.9l2.88.66c5.76,1.32,10.32,3.78,10.32,10.26s-5.76,10.56-13.2,10.92v6.42Zm0-29V125.86c-4.56.18-7.74,2.52-7.74,6.54,0,3.54,2.7,4.74,6.84,5.7Zm3.36,5.64v12.84c4.8-.3,8.4-2.58,8.4-6.6,0-3.42-2.46-4.8-6.66-5.82Z"/><path class="cls-1" d="M224.36,149.08v11.16h-5V134h5v7.56c1.26-4.2,4.74-8.28,10.5-8.28a8.88,8.88,0,0,1,9.24,9.12,7.44,7.44,0,0,1-.24,2.34l-4.62,1.32a7.18,7.18,0,0,0,.3-2.46c0-3.48-2-6-6.24-6C228.38,137.62,224.36,143,224.36,149.08Z"/><path class="cls-1" d="M255.32,140.56c1.8-4.14,6.06-7.26,12.24-7.26,5.94,0,9.66,2.58,9.66,7.86v12.78a2.7,2.7,0,0,0,2.82,2.94,4.77,4.77,0,0,0,3.06-1.2l.3,3.72a7.18,7.18,0,0,1-4.32,1.44A6.38,6.38,0,0,1,272.6,155c-1.32,3.3-5.22,5.76-10,5.76s-8.34-2.94-8.34-7.56,4.14-6.78,10.26-8.16l8-1.86V141c0-1.8-1.32-3.72-5.1-3.72-4.14,0-6.84,2.28-7.68,4.92Zm17.22,5.82L265.7,148c-4,1-6.48,2-6.48,4.86,0,2.34,1.56,4.14,4.56,4.14,4.62,0,8.76-3.48,8.76-7.32Z"/><path class="cls-1" d="M311.6,154.6a9.6,9.6,0,0,1-9.42,6.36c-7.8,0-12.42-6.12-12.42-13.8s4.62-13.86,12.42-13.86a9.65,9.65,0,0,1,9.42,6.42V122.44h5v37.8h-5Zm.18-8c0-5.7-3.78-9.36-8.34-9.36-5.34,0-8.52,4-8.52,10s3.18,10,8.52,10c4.56,0,8.34-3.66,8.34-9.42Z"/><path class="cls-1" d="M366,160.24V156.4h11.16V137.92h-10V134H382.1V156.4h11.22v3.84Zm9.9-38.88h6.78v6.42h-6.78Z"/><path class="cls-1" d="M404.84,151.66c1.92,3.54,6.24,5.46,10.44,5.46s6.9-1.14,6.9-3.78c0-2-1.56-2.94-4.38-3.54l-6.42-1.38c-4.5-1-7.92-2.94-7.92-7.38,0-4.62,4.68-7.74,10.74-7.74,5.52,0,9.66,2,11.82,5.4l-3.36,2.76c-1.5-2.7-4.74-4.26-8.46-4.26-3.36,0-6,1.32-6,3.48,0,1.92,1.38,2.88,4.26,3.54l7.32,1.62c4,.84,7.2,2.94,7.2,7.14,0,4.92-5,8-11.64,8-5.82,0-11.22-2.28-13.56-6Z"/><path class="cls-1" d="M441.68,151.66c1.92,3.54,6.24,5.46,10.44,5.46s6.9-1.14,6.9-3.78c0-2-1.56-2.94-4.38-3.54l-6.42-1.38c-4.5-1-7.92-2.94-7.92-7.38,0-4.62,4.68-7.74,10.74-7.74,5.52,0,9.66,2,11.82,5.4l-3.36,2.76c-1.5-2.7-4.74-4.26-8.46-4.26-3.36,0-6,1.32-6,3.48,0,1.92,1.38,2.88,4.26,3.54l7.32,1.62c4,.84,7.2,2.94,7.2,7.14,0,4.92-5,8-11.64,8-5.82,0-11.22-2.28-13.56-6Z"/><path class="cls-1" d="M495.74,134h5v26.22h-5V154.9a9.87,9.87,0,0,1-9.42,6.06c-6.9,0-9.72-4.56-9.72-10.62V134h5v15.6c0,4.44,2.16,7.2,6.48,7.2s7.68-3.48,7.68-8.58Z"/><path class="cls-1" d="M538.22,153.7c-2,4.62-6.24,7.26-12.36,7.26-7.92,0-13.68-5.4-13.68-13.44,0-8.28,5.76-14.22,13.5-14.22,8.46,0,12.66,6.12,12.66,12.9v1.56H517.1c0,5.7,4.08,9.3,8.94,9.3,4.38,0,6.9-1.92,8.34-5.64Zm-4.68-9.18a7.48,7.48,0,0,0-7.86-7.32,8.36,8.36,0,0,0-8.4,7.32Z"/><path class="cls-1" d="M592.4,160.24h-5V134h5v5.34a9.93,9.93,0,0,1,9.42-6.06c7,0,9.9,4.56,9.9,10.68v16.26h-5v-15.6c0-4.38-2.28-7.14-6.6-7.14s-7.74,3.42-7.74,8.58Z"/><path class="cls-1" d="M648.74,153.7c-2,4.62-6.24,7.26-12.36,7.26-7.92,0-13.68-5.4-13.68-13.44,0-8.28,5.76-14.22,13.5-14.22,8.46,0,12.66,6.12,12.66,12.9v1.56H627.62c0,5.7,4.08,9.3,8.94,9.3,4.38,0,6.9-1.92,8.34-5.64Zm-4.68-9.18a7.48,7.48,0,0,0-7.86-7.32,8.36,8.36,0,0,0-8.4,7.32Z"/><path class="cls-1" d="M680.24,154.36h.24L685,134h4.62l-6.48,26.22h-4.86l-5.16-20.7h-.24l-5.16,20.7H663L656.42,134h4.86l4.62,20.34h.24L670.82,134h4.62Z"/><path class="cls-1" d="M172.4,217.1c-1.8,7-6.72,11.46-14.28,11.46-9,0-16.08-8-16.08-19.62s7.08-19.62,16.2-19.62c6.78,0,11.52,3.84,13.62,10l-4.74,2.88c-1.26-5-4.26-8.34-9.06-8.34-5.88,0-10.62,5.82-10.62,15.12s4.8,15.12,10.5,15.12c5.34,0,8.4-3.48,9.48-9.48Z"/><path class="cls-1" d="M187.52,216.68v11.16h-5V201.62h5v7.56c1.26-4.2,4.74-8.28,10.5-8.28a8.88,8.88,0,0,1,9.24,9.12,7.44,7.44,0,0,1-.24,2.34l-4.62,1.32a7.18,7.18,0,0,0,.3-2.46c0-3.48-2-6-6.24-6C191.54,205.22,187.52,210.62,187.52,216.68Z"/><path class="cls-1" d="M243.5,221.3c-2,4.62-6.24,7.26-12.36,7.26-7.92,0-13.68-5.4-13.68-13.44,0-8.28,5.76-14.22,13.5-14.22,8.46,0,12.66,6.12,12.66,12.9v1.56H222.38c0,5.7,4.08,9.3,8.94,9.3,4.38,0,6.9-1.92,8.34-5.64Zm-4.68-9.18A7.48,7.48,0,0,0,231,204.8a8.36,8.36,0,0,0-8.4,7.32Z"/><path class="cls-1" d="M255.32,208.16c1.8-4.14,6.06-7.26,12.24-7.26,5.94,0,9.66,2.58,9.66,7.86v12.78a2.7,2.7,0,0,0,2.82,2.94,4.77,4.77,0,0,0,3.06-1.2l.3,3.72a7.18,7.18,0,0,1-4.32,1.44,6.38,6.38,0,0,1-6.48-5.82c-1.32,3.3-5.22,5.76-10,5.76s-8.34-2.94-8.34-7.56,4.14-6.78,10.26-8.16l8-1.86v-2.22c0-1.8-1.32-3.72-5.1-3.72-4.14,0-6.84,2.28-7.68,4.92ZM272.54,214l-6.84,1.62c-4,1-6.48,2-6.48,4.86,0,2.34,1.56,4.14,4.56,4.14,4.62,0,8.76-3.48,8.76-7.32Z"/><path class="cls-1" d="M297,203v-8.64l4.86-1.5V203h14.7v3.72h-14.7v10.14a6.93,6.93,0,0,0,7.2,7.38c3.9,0,6.72-2.16,8.58-6.48l2.64,3.78c-1.5,3.72-6.12,7-11.46,7-6.54,0-11.82-3.84-11.82-11.28V206.72H288.5V203Z"/><path class="cls-1" d="M354,221.3c-2,4.62-6.24,7.26-12.36,7.26-7.92,0-13.68-5.4-13.68-13.44,0-8.28,5.76-14.22,13.5-14.22,8.46,0,12.66,6.12,12.66,12.9v1.56H332.9c0,5.7,4.08,9.3,8.94,9.3,4.38,0,6.9-1.92,8.34-5.64Zm-4.68-9.18a7.48,7.48,0,0,0-7.86-7.32,8.36,8.36,0,0,0-8.4,7.32Z"/><path class="cls-1" d="M385.28,222.2a9.6,9.6,0,0,1-9.42,6.36c-7.8,0-12.42-6.12-12.42-13.8s4.62-13.86,12.42-13.86a9.65,9.65,0,0,1,9.42,6.42V190h5v37.8h-5Zm.18-8c0-5.7-3.78-9.36-8.34-9.36-5.34,0-8.52,4-8.52,10s3.18,10,8.52,10c4.56,0,8.34-3.66,8.34-9.42Z"/><path class="cls-1" d="M439.7,227.84V224h11.16V205.52h-10v-3.9h14.88V224H467v3.84ZM449.6,189h6.78v6.42H449.6Z"/><path class="cls-1" d="M478.52,219.26c1.92,3.54,6.24,5.46,10.44,5.46s6.9-1.14,6.9-3.78c0-2-1.56-2.94-4.38-3.54L485.06,216c-4.5-1-7.92-2.94-7.92-7.38,0-4.62,4.68-7.74,10.74-7.74,5.52,0,9.66,2,11.82,5.4l-3.36,2.76c-1.5-2.7-4.74-4.26-8.46-4.26-3.36,0-6,1.32-6,3.48,0,1.92,1.38,2.88,4.26,3.54l7.32,1.62c4,.84,7.2,2.94,7.2,7.14,0,4.92-5,8-11.64,8-5.82,0-11.22-2.28-13.56-6Z"/><path class="cls-1" d="M515.36,219.26c1.92,3.54,6.24,5.46,10.44,5.46s6.9-1.14,6.9-3.78c0-2-1.56-2.94-4.38-3.54L521.9,216c-4.5-1-7.92-2.94-7.92-7.38,0-4.62,4.68-7.74,10.74-7.74,5.52,0,9.66,2,11.82,5.4l-3.36,2.76c-1.5-2.7-4.74-4.26-8.46-4.26-3.36,0-6,1.32-6,3.48,0,1.92,1.38,2.88,4.26,3.54l7.32,1.62c4,.84,7.2,2.94,7.2,7.14,0,4.92-5,8-11.64,8-5.82,0-11.22-2.28-13.56-6Z"/><path class="cls-1" d="M569.42,201.62h5v26.22h-5V222.5a9.87,9.87,0,0,1-9.42,6.06c-6.9,0-9.72-4.56-9.72-10.62V201.62h5v15.6c0,4.44,2.16,7.2,6.48,7.2s7.68-3.48,7.68-8.58Z"/><path class="cls-1" d="M611.9,221.3c-2,4.62-6.24,7.26-12.36,7.26-7.92,0-13.68-5.4-13.68-13.44,0-8.28,5.76-14.22,13.5-14.22,8.46,0,12.66,6.12,12.66,12.9v1.56H590.78c0,5.7,4.08,9.3,8.94,9.3,4.38,0,6.9-1.92,8.34-5.64Zm-4.68-9.18a7.48,7.48,0,0,0-7.86-7.32,8.36,8.36,0,0,0-8.4,7.32Z"/><path class="cls-1" d="M659.36,200.78c.9-6.72,5.94-11.46,13.74-11.46,8.34,0,13,4.32,13,10.62a9.12,9.12,0,0,1-8,8.82,9.14,9.14,0,0,1,8.7,9.06c0,6.3-5.34,10.74-13.68,10.74s-13.92-4.26-14.82-11.4l5-1.56c.36,5.64,4.26,8.76,9.84,8.76,4.92,0,8.4-2.4,8.4-6.9,0-4.32-3.9-6.6-8.7-6.6a23.16,23.16,0,0,0-3.6.36v-4.74a20.36,20.36,0,0,0,3.66.36c4,0,8-1.56,8-6.42,0-4.08-2.7-6.9-7.92-6.9s-8.46,3.3-8.76,8.82Z"/><path class="cls-1" d="M723.56,223.34v4.5H695.78v-3l10.74-9.18c6-5.16,10.44-9,10.44-14.52,0-4.44-2.64-7.44-7.68-7.44s-8,3.18-8,8.7a9.55,9.55,0,0,0,.6,3.42l-5.22-.24a12.37,12.37,0,0,1-.54-3.54c0-7.74,5.22-12.72,13.26-12.72,8.76,0,13,5.16,13,11.58,0,6.84-6.24,12.24-11.4,16.56l-7,5.88Z"/><path class="cls-1" d="M771.26,227.84V224h11.16V205.52h-10v-3.9h14.88V224h11.22v3.84Zm9.9-38.88h6.78v6.42h-6.78Z"/><path class="cls-1" d="M813.44,227.84h-5V201.62h5V207a9.93,9.93,0,0,1,9.42-6.06c7,0,9.9,4.56,9.9,10.68v16.26h-5v-15.6c0-4.38-2.28-7.14-6.6-7.14s-7.74,3.42-7.74,8.58Z"/><path class="cls-1" d="M887.48,216.68v11.16h-5V201.62h5v7.56c1.26-4.2,4.74-8.28,10.5-8.28a8.88,8.88,0,0,1,9.24,9.12,7.44,7.44,0,0,1-.24,2.34l-4.62,1.32a7.18,7.18,0,0,0,.3-2.46c0-3.48-2-6-6.24-6C891.5,205.22,887.48,210.62,887.48,216.68Z"/><path class="cls-1" d="M918.44,208.16c1.8-4.14,6.06-7.26,12.24-7.26,5.94,0,9.66,2.58,9.66,7.86v12.78a2.7,2.7,0,0,0,2.82,2.94,4.77,4.77,0,0,0,3.06-1.2l.3,3.72a7.18,7.18,0,0,1-4.32,1.44,6.38,6.38,0,0,1-6.48-5.82c-1.32,3.3-5.22,5.76-10,5.76s-8.34-2.94-8.34-7.56,4.14-6.78,10.26-8.16l8-1.86v-2.22c0-1.8-1.32-3.72-5.1-3.72-4.14,0-6.84,2.28-7.68,4.92ZM935.66,214l-6.84,1.62c-4,1-6.48,2-6.48,4.86,0,2.34,1.56,4.14,4.56,4.14,4.62,0,8.76-3.48,8.76-7.32Z"/><path class="cls-1" d="M974.72,222.2a9.6,9.6,0,0,1-9.42,6.36c-7.8,0-12.42-6.12-12.42-13.8s4.62-13.86,12.42-13.86a9.65,9.65,0,0,1,9.42,6.42V190h5v37.8h-5Zm.18-8c0-5.7-3.78-9.36-8.34-9.36-5.34,0-8.52,4-8.52,10s3.18,10,8.52,10c4.56,0,8.34-3.66,8.34-9.42Z"/><path class="cls-1" d="M1000.76,220.16h7.68v7.68h-7.68Z"/><path class="cls-1" d="M1026.32,227.84l12.24-13.62-11.16-12.6h5.94l8.22,9.48,8.34-9.48h5.64L1044.38,214l12.24,13.8h-5.94l-9.36-10.62L1032,227.84Z"/><path class="cls-1" d="M1076.6,227.78l-12.48-26.16h5.52l9.3,20.4h.24l8.34-20.4h4.86l-11.76,28c-2.16,5-5,9.06-10.08,9.06a6.87,6.87,0,0,1-7.2-6.12l4.08-2.22c0,2.64,1.08,4.32,3.3,4.32,2,0,3.6-1.5,4.86-4.44Z"/><path class="cls-1" d="M1127.06,201.62v3.6l-18.36,18.6H1128v4h-25.44v-3.6l18.12-18.6h-17.64v-4Z"/><path class="cls-1" d="M156.08,302.52V296c-6.36-.54-11.88-3.72-14.28-8.58l3.24-3.78a13.93,13.93,0,0,0,11,8.22V278.4l-3.12-.72c-5.1-1.14-9.48-3.9-9.48-9.84,0-6.24,5.16-10.68,12.6-10.92V250.8h3.36v6.3c5.58.72,9.66,3.6,11.76,7.26l-3.36,3.54a11.34,11.34,0,0,0-8.4-6.54v12.9l2.88.66c5.76,1.32,10.32,3.78,10.32,10.26s-5.76,10.56-13.2,10.92v6.42Zm0-29V261.06c-4.56.18-7.74,2.52-7.74,6.54,0,3.54,2.7,4.74,6.84,5.7Zm3.36,5.64V292c4.8-.3,8.4-2.58,8.4-6.6,0-3.42-2.46-4.8-6.66-5.82Z"/><path class="cls-1" d="M224.36,284.28v11.16h-5V269.22h5v7.56c1.26-4.2,4.74-8.28,10.5-8.28a8.88,8.88,0,0,1,9.24,9.12,7.44,7.44,0,0,1-.24,2.34l-4.62,1.32a7.18,7.18,0,0,0,.3-2.46c0-3.48-2-6-6.24-6C228.38,272.82,224.36,278.22,224.36,284.28Z"/><path class="cls-1" d="M255.32,275.76c1.8-4.14,6.06-7.26,12.24-7.26,5.94,0,9.66,2.58,9.66,7.86v12.78a2.7,2.7,0,0,0,2.82,2.94,4.77,4.77,0,0,0,3.06-1.2l.3,3.72a7.18,7.18,0,0,1-4.32,1.44,6.38,6.38,0,0,1-6.48-5.82c-1.32,3.3-5.22,5.76-10,5.76s-8.34-2.94-8.34-7.56,4.14-6.78,10.26-8.16l8-1.86v-2.22c0-1.8-1.32-3.72-5.1-3.72-4.14,0-6.84,2.28-7.68,4.92Zm17.22,5.82-6.84,1.62c-4,1-6.48,2-6.48,4.86,0,2.34,1.56,4.14,4.56,4.14,4.62,0,8.76-3.48,8.76-7.32Z"/><path class="cls-1" d="M311.6,289.8a9.6,9.6,0,0,1-9.42,6.36c-7.8,0-12.42-6.12-12.42-13.8s4.62-13.86,12.42-13.86a9.65,9.65,0,0,1,9.42,6.42V257.64h5v37.8h-5Zm.18-8c0-5.7-3.78-9.36-8.34-9.36-5.34,0-8.52,4-8.52,10s3.18,10,8.52,10c4.56,0,8.34-3.66,8.34-9.42Z"/><path class="cls-1" d="M366,295.44V291.6h11.16V273.12h-10v-3.9H382.1V291.6h11.22v3.84Zm9.9-38.88h6.78V263h-6.78Z"/><path class="cls-1" d="M404.84,286.86c1.92,3.54,6.24,5.46,10.44,5.46s6.9-1.14,6.9-3.78c0-2-1.56-2.94-4.38-3.54l-6.42-1.38c-4.5-1-7.92-2.94-7.92-7.38,0-4.62,4.68-7.74,10.74-7.74,5.52,0,9.66,2,11.82,5.4l-3.36,2.76c-1.5-2.7-4.74-4.26-8.46-4.26-3.36,0-6,1.32-6,3.48,0,1.92,1.38,2.88,4.26,3.54l7.32,1.62c4,.84,7.2,2.94,7.2,7.14,0,4.92-5,8-11.64,8-5.82,0-11.22-2.28-13.56-6Z"/><path class="cls-1" d="M441.68,286.86c1.92,3.54,6.24,5.46,10.44,5.46s6.9-1.14,6.9-3.78c0-2-1.56-2.94-4.38-3.54l-6.42-1.38c-4.5-1-7.92-2.94-7.92-7.38,0-4.62,4.68-7.74,10.74-7.74,5.52,0,9.66,2,11.82,5.4l-3.36,2.76c-1.5-2.7-4.74-4.26-8.46-4.26-3.36,0-6,1.32-6,3.48,0,1.92,1.38,2.88,4.26,3.54l7.32,1.62c4,.84,7.2,2.94,7.2,7.14,0,4.92-5,8-11.64,8-5.82,0-11.22-2.28-13.56-6Z"/><path class="cls-1" d="M495.74,269.22h5v26.22h-5V290.1a9.87,9.87,0,0,1-9.42,6.06c-6.9,0-9.72-4.56-9.72-10.62V269.22h5v15.6c0,4.44,2.16,7.2,6.48,7.2s7.68-3.48,7.68-8.58Z"/><path class="cls-1" d="M538.22,288.9c-2,4.62-6.24,7.26-12.36,7.26-7.92,0-13.68-5.4-13.68-13.44,0-8.28,5.76-14.22,13.5-14.22,8.46,0,12.66,6.12,12.66,12.9V283H517.1c0,5.7,4.08,9.3,8.94,9.3,4.38,0,6.9-1.92,8.34-5.64Zm-4.68-9.18a7.48,7.48,0,0,0-7.86-7.32,8.36,8.36,0,0,0-8.4,7.32Z"/><path class="cls-1" d="M586.94,295.44v-3.78H598.1V261.42h-10v-3.78H603v34h11.22v3.78Z"/><path class="cls-1" d="M623.9,295.44V291.6h11.16V273.12h-10v-3.9H640V291.6H651.2v3.84Zm9.9-38.88h6.78V263H633.8Z"/><path class="cls-1" d="M662.72,286.86c1.92,3.54,6.24,5.46,10.44,5.46s6.9-1.14,6.9-3.78c0-2-1.56-2.94-4.38-3.54l-6.42-1.38c-4.5-1-7.92-2.94-7.92-7.38,0-4.62,4.68-7.74,10.74-7.74,5.52,0,9.66,2,11.82,5.4l-3.36,2.76c-1.5-2.7-4.74-4.26-8.46-4.26-3.36,0-6,1.32-6,3.48,0,1.92,1.38,2.88,4.26,3.54l7.32,1.62c4,.84,7.2,2.94,7.2,7.14,0,4.92-5,8-11.64,8-5.82,0-11.22-2.28-13.56-6Z"/><path class="cls-1" d="M702.26,270.6V262l4.86-1.5V270.6h14.7v3.72h-14.7v10.14a6.93,6.93,0,0,0,7.2,7.38c3.9,0,6.72-2.16,8.58-6.48l2.64,3.78c-1.5,3.72-6.12,7-11.46,7-6.54,0-11.82-3.84-11.82-11.28V274.32h-8.52V270.6Z"/><path class="cls-1" d="M147,354.46c1.92,3.54,6.24,5.46,10.44,5.46s6.9-1.14,6.9-3.78c0-2-1.56-2.94-4.38-3.54l-6.42-1.38c-4.5-1-7.92-2.94-7.92-7.38,0-4.62,4.68-7.74,10.74-7.74,5.52,0,9.66,2,11.82,5.4l-3.36,2.76c-1.5-2.7-4.74-4.26-8.46-4.26-3.36,0-6,1.32-6,3.48,0,1.92,1.38,2.88,4.26,3.54l7.32,1.62c4,.84,7.2,2.94,7.2,7.14,0,4.92-5,8-11.64,8-5.82,0-11.22-2.28-13.56-6Z"/><path class="cls-1" d="M186.5,338.2v-8.64l4.86-1.5V338.2h14.7v3.72h-14.7v10.14a6.93,6.93,0,0,0,7.2,7.38c3.9,0,6.72-2.16,8.58-6.48l2.64,3.78c-1.5,3.72-6.12,7-11.46,7-6.54,0-11.82-3.84-11.82-11.28V341.92H178V338.2Z"/><path class="cls-1" d="M218.48,343.36c1.8-4.14,6.06-7.26,12.24-7.26,5.94,0,9.66,2.58,9.66,7.86v12.78a2.7,2.7,0,0,0,2.82,2.94,4.77,4.77,0,0,0,3.06-1.2l.3,3.72a7.18,7.18,0,0,1-4.32,1.44,6.38,6.38,0,0,1-6.48-5.82c-1.32,3.3-5.22,5.76-10,5.76s-8.34-2.94-8.34-7.56,4.14-6.78,10.26-8.16l8-1.86v-2.22c0-1.8-1.32-3.72-5.1-3.72-4.14,0-6.84,2.28-7.68,4.92Zm17.22,5.82-6.84,1.62c-4,1-6.48,2-6.48,4.86,0,2.34,1.56,4.14,4.56,4.14,4.62,0,8.76-3.48,8.76-7.32Z"/><path class="cls-1" d="M260.18,338.2v-8.64l4.86-1.5V338.2h14.7v3.72H265v10.14a6.93,6.93,0,0,0,7.2,7.38c3.9,0,6.72-2.16,8.58-6.48l2.64,3.78c-1.5,3.72-6.12,7-11.46,7-6.54,0-11.82-3.84-11.82-11.28V341.92h-8.52V338.2Z"/><path class="cls-1" d="M317.18,356.5c-2,4.62-6.24,7.26-12.36,7.26-7.92,0-13.68-5.4-13.68-13.44,0-8.28,5.76-14.22,13.5-14.22,8.46,0,12.66,6.12,12.66,12.9v1.56H296.06c0,5.7,4.08,9.3,8.94,9.3,4.38,0,6.9-1.92,8.34-5.64Zm-4.68-9.18a7.48,7.48,0,0,0-7.86-7.32,8.36,8.36,0,0,0-8.4,7.32Z"/><path class="cls-1" d="M491.48,353h-8.94l-2.4,10h-4.2l2.4-10H472.1l.6-3.48h6.48l2.52-10.8h-7.08l.66-3.54h7.26l2.4-10h4.2l-2.4,10h8.94l2.4-10h4.2l-2.4,10h6.3l-.66,3.54H499l-2.52,10.8h7.08L503,353h-7.32l-2.4,10h-4.2Zm3.36-14.28H485.9l-2.52,10.8h8.94Z"/><path class="cls-1" d="M665.42,338.2v-8.64l4.86-1.5V338.2H685v3.72h-14.7v10.14a6.93,6.93,0,0,0,7.2,7.38c3.9,0,6.72-2.16,8.58-6.48l2.64,3.78c-1.5,3.72-6.12,7-11.46,7-6.54,0-11.82-3.84-11.82-11.28V341.92H656.9V338.2Z"/><path class="cls-1" d="M697.58,363V359.2h11.16V340.72h-10v-3.9h14.88V359.2h11.22V363Zm9.9-38.88h6.78v6.42h-6.78Z"/><path class="cls-1" d="M739.1,338.2v-8.64l4.86-1.5V338.2h14.7v3.72H744v10.14a6.93,6.93,0,0,0,7.2,7.38c3.9,0,6.72-2.16,8.58-6.48l2.64,3.78c-1.5,3.72-6.12,7-11.46,7-6.54,0-11.82-3.84-11.82-11.28V341.92h-8.52V338.2Z"/><path class="cls-1" d="M771.14,363v-3.78H782.3V329h-10v-3.78h14.88v34h11.22V363Z"/><path class="cls-1" d="M832.94,356.5c-2,4.62-6.24,7.26-12.36,7.26-7.92,0-13.68-5.4-13.68-13.44,0-8.28,5.76-14.22,13.5-14.22,8.46,0,12.66,6.12,12.66,12.9v1.56H811.82c0,5.7,4.08,9.3,8.94,9.3,4.38,0,6.9-1.92,8.34-5.64Zm-4.68-9.18A7.48,7.48,0,0,0,820.4,340a8.36,8.36,0,0,0-8.4,7.32Z"/><path class="cls-1" d="M157.28,431.36c-7.8,0-13.92-5.7-13.92-13.8a13.51,13.51,0,0,1,13.92-13.86c7.86,0,14,5.7,14,13.86S165.14,431.36,157.28,431.36Zm0-4c5.4,0,8.76-4,8.76-9.84s-3.36-9.9-8.76-9.9-8.7,4-8.7,9.9S151.94,427.4,157.28,427.4Z"/><path class="cls-1" d="M187.16,440.72h-5v-36.3h5v5.7a9.64,9.64,0,0,1,9.42-6.42c7.8,0,12.42,6.12,12.42,13.86s-4.62,13.8-12.42,13.8a9.6,9.6,0,0,1-9.42-6.36ZM187,418.1c0,5.76,3.78,9.42,8.34,9.42,5.34,0,8.52-4,8.52-10s-3.18-10-8.52-10c-4.56,0-8.34,3.66-8.34,9.36Z"/><path class="cls-1" d="M243.5,424.1c-2,4.62-6.24,7.26-12.36,7.26-7.92,0-13.68-5.4-13.68-13.44,0-8.28,5.76-14.22,13.5-14.22,8.46,0,12.66,6.12,12.66,12.9v1.56H222.38c0,5.7,4.08,9.3,8.94,9.3,4.38,0,6.9-1.92,8.34-5.64Zm-4.68-9.18A7.48,7.48,0,0,0,231,407.6a8.36,8.36,0,0,0-8.4,7.32Z"/><path class="cls-1" d="M260.84,430.64h-5V404.42h5v5.34a9.93,9.93,0,0,1,9.42-6.06c7,0,9.9,4.56,9.9,10.68v16.26h-5V415c0-4.38-2.28-7.14-6.6-7.14s-7.74,3.42-7.74,8.58Z"/><path class="cls-1" d="M475.16,403.58c.9-6.72,5.94-11.46,13.74-11.46,8.34,0,13,4.32,13,10.62a9.12,9.12,0,0,1-8,8.82,9.14,9.14,0,0,1,8.7,9.06c0,6.3-5.34,10.74-13.68,10.74S475,427.1,474.14,420l5-1.56c.36,5.64,4.26,8.76,9.84,8.76,4.92,0,8.4-2.4,8.4-6.9,0-4.32-3.9-6.6-8.7-6.6a23.16,23.16,0,0,0-3.6.36v-4.74a20.36,20.36,0,0,0,3.66.36c4,0,8-1.56,8-6.42,0-4.08-2.7-6.9-7.92-6.9s-8.46,3.3-8.76,8.82Z"/><path class="cls-1" d="M539.36,426.14v4.5H511.58v-3l10.74-9.18c6-5.16,10.44-9,10.44-14.52,0-4.44-2.64-7.44-7.68-7.44s-8,3.18-8,8.7a9.55,9.55,0,0,0,.6,3.42l-5.22-.24a12.37,12.37,0,0,1-.54-3.54c0-7.74,5.22-12.72,13.26-12.72,8.76,0,13,5.16,13,11.58,0,6.84-6.24,12.24-11.4,16.56l-7,5.88Z"/><path class="cls-1" d="M685.7,423.5c-1.5,4.32-5.34,7.86-11.88,7.86-8,0-13.68-5.64-13.68-13.8S665.78,403.7,674,403.7c5.94,0,9.66,3,11.4,7.08l-4.14,2.4c-1.08-3.06-3.42-5.4-7.2-5.4-5.22,0-8.7,3.72-8.7,9.78s3.48,9.72,8.58,9.72a7.61,7.61,0,0,0,7.62-5.82Z"/><path class="cls-1" d="M697.4,411c1.8-4.14,6.06-7.26,12.24-7.26,5.94,0,9.66,2.58,9.66,7.86v12.78a2.7,2.7,0,0,0,2.82,2.94,4.77,4.77,0,0,0,3.06-1.2l.3,3.72a7.18,7.18,0,0,1-4.32,1.44,6.38,6.38,0,0,1-6.48-5.82c-1.32,3.3-5.22,5.76-10,5.76s-8.34-2.94-8.34-7.56,4.14-6.78,10.26-8.16l8-1.86v-2.22c0-1.8-1.32-3.72-5.1-3.72-4.14,0-6.84,2.28-7.68,4.92Zm17.22,5.82-6.84,1.62c-4,1-6.48,2-6.48,4.86,0,2.34,1.56,4.14,4.56,4.14,4.62,0,8.76-3.48,8.76-7.32Z"/><path class="cls-1" d="M739.76,430.64h-5V404.42h5v5.34a9.93,9.93,0,0,1,9.42-6.06c7,0,9.9,4.56,9.9,10.68v16.26h-5V415c0-4.38-2.28-7.14-6.6-7.14s-7.74,3.42-7.74,8.58Z"/><path class="cls-1" d="M780.74,392.84h5.58l-.84,16.86h-3.9Z"/><path class="cls-1" d="M812.78,405.8v-8.64l4.86-1.5V405.8h14.7v3.72h-14.7v10.14a6.93,6.93,0,0,0,7.2,7.38c3.9,0,6.72-2.16,8.58-6.48l2.64,3.78c-1.5,3.72-6.12,7-11.46,7-6.54,0-11.82-3.84-11.82-11.28V409.52h-8.52V405.8Z"/><path class="cls-1" d="M881.66,430.64v-3.78h11.16V396.62h-10v-3.78h14.88v34H909v3.78Z"/><path class="cls-1" d="M930.92,431.36c-7.8,0-13.92-5.7-13.92-13.8a13.51,13.51,0,0,1,13.92-13.86c7.86,0,14,5.7,14,13.86S938.78,431.36,930.92,431.36Zm0-4c5.4,0,8.76-4,8.76-9.84s-3.36-9.9-8.76-9.9-8.7,4-8.7,9.9S925.58,427.4,930.92,427.4Z"/><path class="cls-1" d="M967.16,441.44c-7.74,0-14.46-2.28-14.46-7.38,0-2.76,2.64-5,6.18-5.4-2.64-.72-4.08-2.4-4.08-4.62s1.68-4,4.08-4.92a7.78,7.78,0,0,1-3.3-6.54c0-5.4,4.74-8.88,11.4-8.88a13.32,13.32,0,0,1,8.16,2.46c1.5-2.46,4.74-5,8.64-4.44l.54,4.38a9.05,9.05,0,0,0-7.26,2.16,7.61,7.61,0,0,1,1.26,4.32c0,5.46-4.74,8.88-11.34,8.88a14.9,14.9,0,0,1-5.88-1.08,3,3,0,0,0-2,2.7c0,1.32,1.08,2.22,3.66,2.22H973.4c6,0,9.6,2.82,9.6,7C983,438.86,974.84,441.44,967.16,441.44Zm0-3.3c6.06,0,11-1.62,11-5.22,0-2.52-2.58-3.42-5.88-3.42h-9c-2.94,0-5.76,1.38-5.76,3.9C957.5,436.7,961.82,438.14,967.16,438.14ZM967,407c-3.48,0-6.3,2.22-6.3,5.58s2.82,5.64,6.3,5.64,6.3-2.22,6.3-5.64S970.46,407,967,407Z"/><path class="cls-1" d="M1029.14,430.64V426.8h11.16V408.32h-10v-3.9h14.88V426.8h11.22v3.84Zm9.9-38.88h6.78v6.42H1039Z"/><path class="cls-1" d="M1071.32,430.64h-5V404.42h5v5.34a9.93,9.93,0,0,1,9.42-6.06c7,0,9.9,4.56,9.9,10.68v16.26h-5V415c0-4.38-2.28-7.14-6.6-7.14s-7.74,3.42-7.74,8.58Z"/><path class="cls-1" d="M157.28,499c-7.8,0-13.92-5.7-13.92-13.8a13.51,13.51,0,0,1,13.92-13.86c7.86,0,14,5.7,14,13.86S165.14,499,157.28,499Zm0-4c5.4,0,8.76-4,8.76-9.84s-3.36-9.9-8.76-9.9-8.7,4-8.7,9.9S151.94,495,157.28,495Z"/><path class="cls-1" d="M187.16,508.32h-5V472h5v5.7a9.64,9.64,0,0,1,9.42-6.42c7.8,0,12.42,6.12,12.42,13.86S204.38,499,196.58,499a9.6,9.6,0,0,1-9.42-6.36ZM187,485.7c0,5.76,3.78,9.42,8.34,9.42,5.34,0,8.52-4,8.52-10s-3.18-10-8.52-10c-4.56,0-8.34,3.66-8.34,9.36Z"/><path class="cls-1" d="M243.5,491.7c-2,4.62-6.24,7.26-12.36,7.26-7.92,0-13.68-5.4-13.68-13.44,0-8.28,5.76-14.22,13.5-14.22,8.46,0,12.66,6.12,12.66,12.9v1.56H222.38c0,5.7,4.08,9.3,8.94,9.3,4.38,0,6.9-1.92,8.34-5.64Zm-4.68-9.18A7.48,7.48,0,0,0,231,475.2a8.36,8.36,0,0,0-8.4,7.32Z"/><path class="cls-1" d="M260.84,498.24h-5V472h5v5.34a9.93,9.93,0,0,1,9.42-6.06c7,0,9.9,4.56,9.9,10.68v16.26h-5v-15.6c0-4.38-2.28-7.14-6.6-7.14s-7.74,3.42-7.74,8.58Z"/><path class="cls-1" d="M502.52,493.74v4.5H474.74v-3l10.74-9.18c6-5.16,10.44-9,10.44-14.52,0-4.44-2.64-7.44-7.68-7.44s-8,3.18-8,8.7a9.55,9.55,0,0,0,.6,3.42l-5.22-.24a12.37,12.37,0,0,1-.54-3.54c0-7.74,5.22-12.72,13.26-12.72,8.76,0,13,5.16,13,11.58,0,6.84-6.24,12.24-11.4,16.56l-7,5.88Z"/><path class="cls-1" d="M512,471.18c.9-6.72,5.94-11.46,13.74-11.46,8.34,0,13,4.32,13,10.62a9.12,9.12,0,0,1-8,8.82,9.14,9.14,0,0,1,8.7,9.06c0,6.3-5.34,10.74-13.68,10.74s-13.92-4.26-14.82-11.4l5-1.56c.36,5.64,4.26,8.76,9.84,8.76,4.92,0,8.4-2.4,8.4-6.9,0-4.32-3.9-6.6-8.7-6.6a23.16,23.16,0,0,0-3.6.36v-4.74a20.36,20.36,0,0,0,3.66.36c4,0,8-1.56,8-6.42,0-4.08-2.7-6.9-7.92-6.9s-8.46,3.3-8.76,8.82Z"/><path class="cls-1" d="M662.72,489.66c1.92,3.54,6.24,5.46,10.44,5.46s6.9-1.14,6.9-3.78c0-2-1.56-2.94-4.38-3.54l-6.42-1.38c-4.5-1-7.92-2.94-7.92-7.38,0-4.62,4.68-7.74,10.74-7.74,5.52,0,9.66,2,11.82,5.4l-3.36,2.76c-1.5-2.7-4.74-4.26-8.46-4.26-3.36,0-6,1.32-6,3.48,0,1.92,1.38,2.88,4.26,3.54l7.32,1.62c4,.84,7.2,2.94,7.2,7.14,0,4.92-5,8-11.64,8-5.82,0-11.22-2.28-13.56-6Z"/><path class="cls-1" d="M709.88,499c-7.8,0-13.92-5.7-13.92-13.8a13.51,13.51,0,0,1,13.92-13.86c7.86,0,14,5.7,14,13.86S717.74,499,709.88,499Zm0-4c5.4,0,8.76-4,8.76-9.84s-3.36-9.9-8.76-9.9-8.7,4-8.7,9.9S704.54,495,709.88,495Z"/><path class="cls-1" d="M736.34,498.24h-4.56V472h4.56v5.46c.78-3.3,2.94-6.18,6.66-6.18,3.24,0,5.4,2.34,5.82,6,.84-3.24,3.24-6,6.84-6s6,3,6,7.44v19.5H757.1V480.78c0-3.06-.72-5.4-3.66-5.4S749,478.86,749,483.6v14.64h-4.56V480.78c0-3.06-.72-5.4-3.66-5.4s-4.44,3.48-4.44,8.22Z"/><path class="cls-1" d="M796.1,491.7c-2,4.62-6.24,7.26-12.36,7.26-7.92,0-13.68-5.4-13.68-13.44,0-8.28,5.76-14.22,13.5-14.22,8.46,0,12.66,6.12,12.66,12.9v1.56H775c0,5.7,4.08,9.3,8.94,9.3,4.38,0,6.9-1.92,8.34-5.64Zm-4.68-9.18a7.48,7.48,0,0,0-7.86-7.32,8.36,8.36,0,0,0-8.4,7.32Z"/><path class="cls-1" d="M849.62,473.4v-8.64l4.86-1.5V473.4h14.7v3.72h-14.7v10.14a6.93,6.93,0,0,0,7.2,7.38c3.9,0,6.72-2.16,8.58-6.48l2.64,3.78c-1.5,3.72-6.12,7-11.46,7-6.54,0-11.82-3.84-11.82-11.28V477.12H841.1V473.4Z"/><path class="cls-1" d="M881.78,498.24V494.4h11.16V475.92H883V472h14.88V494.4h11.22v3.84Zm9.9-38.88h6.78v6.42h-6.78Z"/><path class="cls-1" d="M923.3,473.4v-8.64l4.86-1.5V473.4h14.7v3.72h-14.7v10.14a6.93,6.93,0,0,0,7.2,7.38c3.9,0,6.72-2.16,8.58-6.48l2.64,3.78c-1.5,3.72-6.12,7-11.46,7-6.54,0-11.82-3.84-11.82-11.28V477.12h-8.52V473.4Z"/><path class="cls-1" d="M955.34,498.24v-3.78H966.5V464.22h-10v-3.78h14.88v34h11.22v3.78Z"/><path class="cls-1" d="M1017.14,491.7c-2,4.62-6.24,7.26-12.36,7.26-7.92,0-13.68-5.4-13.68-13.44,0-8.28,5.76-14.22,13.5-14.22,8.46,0,12.66,6.12,12.66,12.9v1.56H996c0,5.7,4.08,9.3,8.94,9.3,4.38,0,6.9-1.92,8.34-5.64Zm-4.68-9.18a7.48,7.48,0,0,0-7.86-7.32,8.36,8.36,0,0,0-8.4,7.32Z"/><path class="cls-1" d="M169.94,558.7c-1.5,4.32-5.34,7.86-11.88,7.86-8,0-13.68-5.64-13.68-13.8S150,538.9,158.24,538.9c5.94,0,9.66,3,11.4,7.08l-4.14,2.4c-1.08-3.06-3.42-5.4-7.2-5.4-5.22,0-8.7,3.72-8.7,9.78s3.48,9.72,8.58,9.72a7.61,7.61,0,0,0,7.62-5.82Z"/><path class="cls-1" d="M181.7,565.84v-3.78h11.16V531.82h-10V528h14.88v34H209v3.78Z"/><path class="cls-1" d="M231,566.56c-7.8,0-13.92-5.7-13.92-13.8A13.51,13.51,0,0,1,231,538.9c7.86,0,14,5.7,14,13.86S238.82,566.56,231,566.56Zm0-4c5.4,0,8.76-4,8.76-9.84s-3.36-9.9-8.76-9.9-8.7,4-8.7,9.9S225.62,562.6,231,562.6Z"/><path class="cls-1" d="M257.48,557.26c1.92,3.54,6.24,5.46,10.44,5.46s6.9-1.14,6.9-3.78c0-2-1.56-2.94-4.38-3.54L264,554c-4.5-1-7.92-2.94-7.92-7.38,0-4.62,4.68-7.74,10.74-7.74,5.52,0,9.66,2,11.82,5.4l-3.36,2.76c-1.5-2.7-4.74-4.26-8.46-4.26-3.36,0-6,1.32-6,3.48,0,1.92,1.38,2.88,4.26,3.54l7.32,1.62c4,.84,7.2,2.94,7.2,7.14,0,4.92-5,8-11.64,8-5.82,0-11.22-2.28-13.56-6Z"/><path class="cls-1" d="M317.18,559.3c-2,4.62-6.24,7.26-12.36,7.26-7.92,0-13.68-5.4-13.68-13.44,0-8.28,5.76-14.22,13.5-14.22,8.46,0,12.66,6.12,12.66,12.9v1.56H296.06c0,5.7,4.08,9.3,8.94,9.3,4.38,0,6.9-1.92,8.34-5.64Zm-4.68-9.18a7.48,7.48,0,0,0-7.86-7.32,8.36,8.36,0,0,0-8.4,7.32Z"/><path class="cls-1" d="M348.44,560.2a9.6,9.6,0,0,1-9.42,6.36c-7.8,0-12.42-6.12-12.42-13.8S331.22,538.9,339,538.9a9.65,9.65,0,0,1,9.42,6.42V528h5v37.8h-5Zm.18-8c0-5.7-3.78-9.36-8.34-9.36-5.34,0-8.52,4-8.52,10s3.18,10,8.52,10c4.56,0,8.34-3.66,8.34-9.42Z"/><path class="cls-1" d="M475.58,565.84v-4.32h11.94V537.28H477v-3.84h3.18c6.36,0,8.1-1.2,9.18-5.64h3.36v33.72h11.16v4.32Z"/><path class="cls-1" d="M539.36,561.34v4.5H511.58v-3l10.74-9.18c6-5.16,10.44-9,10.44-14.52,0-4.44-2.64-7.44-7.68-7.44s-8,3.18-8,8.7a9.55,9.55,0,0,0,.6,3.42l-5.22-.24a12.37,12.37,0,0,1-.54-3.54c0-7.74,5.22-12.72,13.26-12.72,8.76,0,13,5.16,13,11.58,0,6.84-6.24,12.24-11.4,16.56l-7,5.88Z"/><path class="cls-1" d="M680.24,560h.24L685,539.62h4.62l-6.48,26.22h-4.86l-5.16-20.7h-.24l-5.16,20.7H663l-6.54-26.22h4.86L665.9,560h.24l4.68-20.34h4.62Z"/><path class="cls-1" d="M703,565.84h-5V528h5V545a9.87,9.87,0,0,1,9.42-6.06c6.9,0,9.84,4.56,9.84,10.68v16.26h-5v-15.6c0-4.38-2.28-7.14-6.6-7.14s-7.68,3.42-7.68,8.58Z"/><path class="cls-1" d="M745,565.78l-12.48-26.16h5.52l9.3,20.4h.24l8.34-20.4h4.86l-11.76,28c-2.16,5-5,9.06-10.08,9.06a6.87,6.87,0,0,1-7.2-6.12l4.08-2.22c0,2.64,1.08,4.32,3.3,4.32,2,0,3.6-1.5,4.86-4.44Z"/><path class="cls-1" d="M827.36,560.2a9.6,9.6,0,0,1-9.42,6.36c-7.8,0-12.42-6.12-12.42-13.8s4.62-13.86,12.42-13.86a9.65,9.65,0,0,1,9.42,6.42V528h5v37.8h-5Zm.18-8c0-5.7-3.78-9.36-8.34-9.36-5.34,0-8.52,4-8.52,10s3.18,10,8.52,10c4.56,0,8.34-3.66,8.34-9.42Z"/><path class="cls-1" d="M857.24,566.56c-7.8,0-13.92-5.7-13.92-13.8a13.51,13.51,0,0,1,13.92-13.86c7.86,0,14,5.7,14,13.86S865.1,566.56,857.24,566.56Zm0-4c5.4,0,8.76-4,8.76-9.84s-3.36-9.9-8.76-9.9-8.7,4-8.7,9.9S851.9,562.6,857.24,562.6Z"/><path class="cls-1" d="M906.62,559.3c-2,4.62-6.24,7.26-12.36,7.26-7.92,0-13.68-5.4-13.68-13.44,0-8.28,5.76-14.22,13.5-14.22,8.46,0,12.66,6.12,12.66,12.9v1.56H885.5c0,5.7,4.08,9.3,8.94,9.3,4.38,0,6.9-1.92,8.34-5.64Zm-4.68-9.18a7.48,7.48,0,0,0-7.86-7.32,8.36,8.36,0,0,0-8.4,7.32Z"/><path class="cls-1" d="M920.6,557.26c1.92,3.54,6.24,5.46,10.44,5.46s6.9-1.14,6.9-3.78c0-2-1.56-2.94-4.38-3.54L927.14,554c-4.5-1-7.92-2.94-7.92-7.38,0-4.62,4.68-7.74,10.74-7.74,5.52,0,9.66,2,11.82,5.4l-3.36,2.76c-1.5-2.7-4.74-4.26-8.46-4.26-3.36,0-6,1.32-6,3.48,0,1.92,1.38,2.88,4.26,3.54l7.32,1.62c4,.84,7.2,2.94,7.2,7.14,0,4.92-5,8-11.64,8-5.82,0-11.22-2.28-13.56-6Z"/><path class="cls-1" d="M960.8,565.84h-5V539.62h5V545a9.93,9.93,0,0,1,9.42-6.06c7,0,9.9,4.56,9.9,10.68v16.26h-5v-15.6c0-4.38-2.28-7.14-6.6-7.14s-7.74,3.42-7.74,8.58Z"/><path class="cls-1" d="M1001.78,528h5.58l-.84,16.86h-3.9Z"/><path class="cls-1" d="M1033.82,541v-8.64l4.86-1.5V541h14.7v3.72h-14.7v10.14a6.93,6.93,0,0,0,7.2,7.38c3.9,0,6.72-2.16,8.58-6.48l2.64,3.78c-1.5,3.72-6.12,7-11.46,7-6.54,0-11.82-3.84-11.82-11.28V544.72h-8.52V541Z"/><path class="cls-1" d="M1107.5,541v-8.64l4.86-1.5V541h14.7v3.72h-14.7v10.14a6.93,6.93,0,0,0,7.2,7.38c3.9,0,6.72-2.16,8.58-6.48l2.64,3.78c-1.5,3.72-6.12,7-11.46,7-6.54,0-11.82-3.84-11.82-11.28V544.72H1099V541Z"/><path class="cls-1" d="M1145.06,565.84h-5V528h5V545a9.87,9.87,0,0,1,9.42-6.06c6.9,0,9.84,4.56,9.84,10.68v16.26h-5v-15.6c0-4.38-2.28-7.14-6.6-7.14s-7.68,3.42-7.68,8.58Z"/><path class="cls-1" d="M1176.5,565.84V562h11.16V543.52h-10v-3.9h14.88V562h11.22v3.84Zm9.9-38.88h6.78v6.42h-6.78Z"/><path class="cls-1" d="M1215.32,557.26c1.92,3.54,6.24,5.46,10.44,5.46s6.9-1.14,6.9-3.78c0-2-1.56-2.94-4.38-3.54l-6.42-1.38c-4.5-1-7.92-2.94-7.92-7.38,0-4.62,4.68-7.74,10.74-7.74,5.52,0,9.66,2,11.82,5.4l-3.36,2.76c-1.5-2.7-4.74-4.26-8.46-4.26-3.36,0-6,1.32-6,3.48,0,1.92,1.38,2.88,4.26,3.54l7.32,1.62c4,.84,7.2,2.94,7.2,7.14,0,4.92-5,8-11.64,8-5.82,0-11.22-2.28-13.56-6Z"/><path class="cls-1" d="M1306.52,560h.24l4.56-20.34h4.62l-6.48,26.22h-4.86l-5.16-20.7h-.24l-5.16,20.7h-4.8l-6.54-26.22h4.86l4.62,20.34h.24l4.68-20.34h4.62Z"/><path class="cls-1" d="M1336.16,566.56c-7.8,0-13.92-5.7-13.92-13.8a13.51,13.51,0,0,1,13.92-13.86c7.86,0,14,5.7,14,13.86S1344,566.56,1336.16,566.56Zm0-4c5.4,0,8.76-4,8.76-9.84s-3.36-9.9-8.76-9.9-8.7,4-8.7,9.9S1330.82,562.6,1336.16,562.6Z"/><path class="cls-1" d="M1366.4,554.68v11.16h-5V539.62h5v7.56c1.26-4.2,4.74-8.28,10.5-8.28a8.88,8.88,0,0,1,9.24,9.12,7.44,7.44,0,0,1-.24,2.34l-4.62,1.32a7.18,7.18,0,0,0,.3-2.46c0-3.48-2-6-6.24-6C1370.42,543.22,1366.4,548.62,1366.4,554.68Z"/><path class="cls-1" d="M1402.88,565.84h-5V528h5v24.3l15.66-12.72H1425L1411.88,550l13.74,15.84h-6.06l-11.34-13-5.34,4.32Z"/><path class="cls-1" d="M1444,553.6c.12-3,1.32-4.74,4.38-7s6.12-4,6.12-8-2.58-7.14-7.56-7.14c-5.22,0-8.1,3.3-8.1,8.88a11.35,11.35,0,0,0,.24,2.46l-5.34-.3a18.42,18.42,0,0,1-.18-2.52c0-7.68,5.4-12.72,13.44-12.72,8.76,0,12.9,5.28,12.9,11.22,0,5.22-3.72,7.86-8.1,10.86-2,1.38-2.94,2.34-3.12,4.2Zm-1.44,5h7.38v7.26h-7.38Z"/><path class="cls-1" d="M156.08,640.52V634c-6.36-.54-11.88-3.72-14.28-8.58l3.24-3.78a13.93,13.93,0,0,0,11,8.22V616.4l-3.12-.72c-5.1-1.14-9.48-3.9-9.48-9.84,0-6.24,5.16-10.68,12.6-10.92V588.8h3.36v6.3c5.58.72,9.66,3.6,11.76,7.26l-3.36,3.54a11.34,11.34,0,0,0-8.4-6.54v12.9l2.88.66c5.76,1.32,10.32,3.78,10.32,10.26s-5.76,10.56-13.2,10.92v6.42Zm0-29V599.06c-4.56.18-7.74,2.52-7.74,6.54,0,3.54,2.7,4.74,6.84,5.7Zm3.36,5.64V630c4.8-.3,8.4-2.58,8.4-6.6,0-3.42-2.46-4.8-6.66-5.82Z"/><path class="cls-1" d="M224.36,622.28v11.16h-5V607.22h5v7.56c1.26-4.2,4.74-8.28,10.5-8.28a8.88,8.88,0,0,1,9.24,9.12,7.44,7.44,0,0,1-.24,2.34l-4.62,1.32a7.18,7.18,0,0,0,.3-2.46c0-3.48-2-6-6.24-6C228.38,610.82,224.36,616.22,224.36,622.28Z"/><path class="cls-1" d="M255.32,613.76c1.8-4.14,6.06-7.26,12.24-7.26,5.94,0,9.66,2.58,9.66,7.86v12.78a2.7,2.7,0,0,0,2.82,2.94,4.77,4.77,0,0,0,3.06-1.2l.3,3.72a7.18,7.18,0,0,1-4.32,1.44,6.38,6.38,0,0,1-6.48-5.82c-1.32,3.3-5.22,5.76-10,5.76s-8.34-2.94-8.34-7.56,4.14-6.78,10.26-8.16l8-1.86v-2.22c0-1.8-1.32-3.72-5.1-3.72-4.14,0-6.84,2.28-7.68,4.92Zm17.22,5.82-6.84,1.62c-4,1-6.48,2-6.48,4.86,0,2.34,1.56,4.14,4.56,4.14,4.62,0,8.76-3.48,8.76-7.32Z"/><path class="cls-1" d="M311.6,627.8a9.6,9.6,0,0,1-9.42,6.36c-7.8,0-12.42-6.12-12.42-13.8s4.62-13.86,12.42-13.86a9.65,9.65,0,0,1,9.42,6.42V595.64h5v37.8h-5Zm.18-8c0-5.7-3.78-9.36-8.34-9.36-5.34,0-8.52,4-8.52,10s3.18,10,8.52,10c4.56,0,8.34-3.66,8.34-9.42Z"/><path class="cls-1" d="M366,633.44V629.6h11.16V611.12h-10v-3.9H382.1V629.6h11.22v3.84Zm9.9-38.88h6.78V601h-6.78Z"/><path class="cls-1" d="M404.84,624.86c1.92,3.54,6.24,5.46,10.44,5.46s6.9-1.14,6.9-3.78c0-2-1.56-2.94-4.38-3.54l-6.42-1.38c-4.5-1-7.92-2.94-7.92-7.38,0-4.62,4.68-7.74,10.74-7.74,5.52,0,9.66,2,11.82,5.4l-3.36,2.76c-1.5-2.7-4.74-4.26-8.46-4.26-3.36,0-6,1.32-6,3.48,0,1.92,1.38,2.88,4.26,3.54l7.32,1.62c4,.84,7.2,2.94,7.2,7.14,0,4.92-5,8-11.64,8-5.82,0-11.22-2.28-13.56-6Z"/><path class="cls-1" d="M441.68,624.86c1.92,3.54,6.24,5.46,10.44,5.46s6.9-1.14,6.9-3.78c0-2-1.56-2.94-4.38-3.54l-6.42-1.38c-4.5-1-7.92-2.94-7.92-7.38,0-4.62,4.68-7.74,10.74-7.74,5.52,0,9.66,2,11.82,5.4l-3.36,2.76c-1.5-2.7-4.74-4.26-8.46-4.26-3.36,0-6,1.32-6,3.48,0,1.92,1.38,2.88,4.26,3.54l7.32,1.62c4,.84,7.2,2.94,7.2,7.14,0,4.92-5,8-11.64,8-5.82,0-11.22-2.28-13.56-6Z"/><path class="cls-1" d="M495.74,607.22h5v26.22h-5V628.1a9.87,9.87,0,0,1-9.42,6.06c-6.9,0-9.72-4.56-9.72-10.62V607.22h5v15.6c0,4.44,2.16,7.2,6.48,7.2s7.68-3.48,7.68-8.58Z"/><path class="cls-1" d="M538.22,626.9c-2,4.62-6.24,7.26-12.36,7.26-7.92,0-13.68-5.4-13.68-13.44,0-8.28,5.76-14.22,13.5-14.22,8.46,0,12.66,6.12,12.66,12.9V621H517.1c0,5.7,4.08,9.3,8.94,9.3,4.38,0,6.9-1.92,8.34-5.64Zm-4.68-9.18a7.48,7.48,0,0,0-7.86-7.32,8.36,8.36,0,0,0-8.4,7.32Z"/><path class="cls-1" d="M612,626.3c-1.5,4.32-5.34,7.86-11.88,7.86-8,0-13.68-5.64-13.68-13.8s5.64-13.86,13.86-13.86c5.94,0,9.66,3,11.4,7.08l-4.14,2.4c-1.08-3.06-3.42-5.4-7.2-5.4-5.22,0-8.7,3.72-8.7,9.78s3.48,9.72,8.58,9.72a7.61,7.61,0,0,0,7.62-5.82Z"/><path class="cls-1" d="M636.2,634.16c-7.8,0-13.92-5.7-13.92-13.8A13.51,13.51,0,0,1,636.2,606.5c7.86,0,14,5.7,14,13.86S644.06,634.16,636.2,634.16Zm0-4c5.4,0,8.76-4,8.76-9.84s-3.36-9.9-8.76-9.9-8.7,4-8.7,9.9S630.86,630.2,636.2,630.2Z"/><path class="cls-1" d="M662.66,633.44H658.1V607.22h4.56v5.46c.78-3.3,2.94-6.18,6.66-6.18,3.24,0,5.4,2.34,5.82,6,.84-3.24,3.24-6,6.84-6s6,3,6,7.44v19.5h-4.56V616c0-3.06-.72-5.4-3.66-5.4s-4.44,3.48-4.44,8.22v14.64h-4.56V616c0-3.06-.72-5.4-3.66-5.4s-4.44,3.48-4.44,8.22Z"/><path class="cls-1" d="M699.5,633.44h-4.56V607.22h4.56v5.46c.78-3.3,2.94-6.18,6.66-6.18,3.24,0,5.4,2.34,5.82,6,.84-3.24,3.24-6,6.84-6s6,3,6,7.44v19.5h-4.56V616c0-3.06-.72-5.4-3.66-5.4s-4.44,3.48-4.44,8.22v14.64H707.6V616c0-3.06-.72-5.4-3.66-5.4s-4.44,3.48-4.44,8.22Z"/><path class="cls-1" d="M759.26,626.9c-2,4.62-6.24,7.26-12.36,7.26-7.92,0-13.68-5.4-13.68-13.44,0-8.28,5.76-14.22,13.5-14.22,8.46,0,12.66,6.12,12.66,12.9V621H738.14c0,5.7,4.08,9.3,8.94,9.3,4.38,0,6.9-1.92,8.34-5.64Zm-4.68-9.18a7.48,7.48,0,0,0-7.86-7.32,8.36,8.36,0,0,0-8.4,7.32Z"/><path class="cls-1" d="M776.6,633.44h-5V607.22h5v5.34A9.93,9.93,0,0,1,786,606.5c7,0,9.9,4.56,9.9,10.68v16.26h-5v-15.6c0-4.38-2.28-7.14-6.6-7.14s-7.74,3.42-7.74,8.58Z"/><path class="cls-1" d="M812.78,608.6V600l4.86-1.5V608.6h14.7v3.72h-14.7v10.14a6.93,6.93,0,0,0,7.2,7.38c3.9,0,6.72-2.16,8.58-6.48l2.64,3.78c-1.5,3.72-6.12,7-11.46,7-6.54,0-11.82-3.84-11.82-11.28V612.32h-8.52V608.6Z"/><path class="cls-1" d="M880.4,606.38c.9-6.72,5.94-11.46,13.74-11.46,8.34,0,13,4.32,13,10.62a9.12,9.12,0,0,1-8,8.82,9.14,9.14,0,0,1,8.7,9.06c0,6.3-5.34,10.74-13.68,10.74s-13.92-4.26-14.82-11.4l5-1.56c.36,5.64,4.26,8.76,9.84,8.76,4.92,0,8.4-2.4,8.4-6.9,0-4.32-3.9-6.6-8.7-6.6a23.16,23.16,0,0,0-3.6.36v-4.74a20.36,20.36,0,0,0,3.66.36c4,0,8-1.56,8-6.42,0-4.08-2.7-6.9-7.92-6.9s-8.46,3.3-8.76,8.82Z"/><path class="cls-1" d="M944.6,628.94v4.5H916.82v-3l10.74-9.18c6-5.16,10.44-9,10.44-14.52,0-4.44-2.64-7.44-7.68-7.44s-8,3.18-8,8.7a9.55,9.55,0,0,0,.6,3.42l-5.22-.24a12.37,12.37,0,0,1-.54-3.54c0-7.74,5.22-12.72,13.26-12.72,8.76,0,13,5.16,13,11.58,0,6.84-6.24,12.24-11.4,16.56l-7,5.88Z"/><path class="cls-1" d="M1001.78,595.64h5.58l-.84,16.86h-3.9Z"/><path class="cls-1" d="M1034.54,633.44h-5v-37.8h5v16.92a9.87,9.87,0,0,1,9.42-6.06c6.9,0,9.84,4.56,9.84,10.68v16.26h-5v-15.6c0-4.38-2.28-7.14-6.6-7.14s-7.68,3.42-7.68,8.58Z"/><path class="cls-1" d="M1065.8,613.76c1.8-4.14,6.06-7.26,12.24-7.26,5.94,0,9.66,2.58,9.66,7.86v12.78a2.7,2.7,0,0,0,2.82,2.94,4.77,4.77,0,0,0,3.06-1.2l.3,3.72a7.18,7.18,0,0,1-4.32,1.44,6.38,6.38,0,0,1-6.48-5.82c-1.32,3.3-5.22,5.76-10,5.76s-8.34-2.94-8.34-7.56,4.14-6.78,10.26-8.16l8-1.86v-2.22c0-1.8-1.32-3.72-5.1-3.72-4.14,0-6.84,2.28-7.68,4.92Zm17.22,5.82-6.84,1.62c-4,1-6.48,2-6.48,4.86,0,2.34,1.56,4.14,4.56,4.14,4.62,0,8.76-3.48,8.76-7.32Z"/><path class="cls-1" d="M1108.22,633.44h-5v-37.8h5v16.92a9.87,9.87,0,0,1,9.42-6.06c6.9,0,9.84,4.56,9.84,10.68v16.26h-5v-15.6c0-4.38-2.28-7.14-6.6-7.14s-7.68,3.42-7.68,8.58Z"/><path class="cls-1" d="M1139.48,613.76c1.8-4.14,6.06-7.26,12.24-7.26,5.94,0,9.66,2.58,9.66,7.86v12.78a2.7,2.7,0,0,0,2.82,2.94,4.77,4.77,0,0,0,3.06-1.2l.3,3.72a7.18,7.18,0,0,1-4.32,1.44,6.38,6.38,0,0,1-6.48-5.82c-1.32,3.3-5.22,5.76-10,5.76s-8.34-2.94-8.34-7.56,4.14-6.78,10.26-8.16l8-1.86v-2.22c0-1.8-1.32-3.72-5.1-3.72-4.14,0-6.84,2.28-7.68,4.92Zm17.22,5.82-6.84,1.62c-4,1-6.48,2-6.48,4.86,0,2.34,1.56,4.14,4.56,4.14,4.62,0,8.76-3.48,8.76-7.32Z"/><path class="cls-1" d="M1210.82,637.34l2.94-4c1.8,4.14,4.14,6.48,8.22,6.48,3.66,0,7.14-2.4,7.14-7.62V611.12h-12.9v-3.9h17.88v25.5c0,7.38-5.4,11.52-12,11.52C1216.64,644.24,1212.32,641.18,1210.82,637.34Zm17-42.78h6.78V601h-6.78Z"/><path class="cls-1" d="M1262.48,634.16c-7.8,0-13.92-5.7-13.92-13.8a13.51,13.51,0,0,1,13.92-13.86c7.86,0,14,5.7,14,13.86S1270.34,634.16,1262.48,634.16Zm0-4c5.4,0,8.76-4,8.76-9.84s-3.36-9.9-8.76-9.9-8.7,4-8.7,9.9S1257.14,630.2,1262.48,630.2Z"/><path class="cls-1" d="M1292.36,633.44h-5v-37.8h5v24.3L1308,607.22h6.48l-13.14,10.38,13.74,15.84H1309l-11.34-13-5.34,4.32Z"/><path class="cls-1" d="M1348.7,626.9c-2,4.62-6.24,7.26-12.36,7.26-7.92,0-13.68-5.4-13.68-13.44,0-8.28,5.76-14.22,13.5-14.22,8.46,0,12.66,6.12,12.66,12.9V621h-21.24c0,5.7,4.08,9.3,8.94,9.3,4.38,0,6.9-1.92,8.34-5.64Zm-4.68-9.18a7.48,7.48,0,0,0-7.86-7.32,8.36,8.36,0,0,0-8.4,7.32Z"/><path class="cls-1" d="M1362.68,624.86c1.92,3.54,6.24,5.46,10.44,5.46s6.9-1.14,6.9-3.78c0-2-1.56-2.94-4.38-3.54l-6.42-1.38c-4.5-1-7.92-2.94-7.92-7.38,0-4.62,4.68-7.74,10.74-7.74,5.52,0,9.66,2,11.82,5.4l-3.36,2.76c-1.5-2.7-4.74-4.26-8.46-4.26-3.36,0-6,1.32-6,3.48,0,1.92,1.38,2.88,4.26,3.54l7.32,1.62c4,.84,7.2,2.94,7.2,7.14,0,4.92-5,8-11.64,8-5.82,0-11.22-2.28-13.56-6Z"/><path class="cls-1" d="M1406.12,626h7.44v7.44h-7.44Zm6.54-30.36V606.2L1411,621h-2.4L1407,606.2V595.64Z"/><path class="cls-1" d="M1443.86,595.64h5.58l-.84,16.86h-3.9Z"/></svg>