<svg id="Layer_1" data-name="Layer 1" xmlns="http://www.w3.org/2000/svg" viewBox="0 0 1920 540"><defs><style>.cls-1{fill:#55f;}.cls-2{fill:#5f5;}.cls-3{fill:#5ff;}.cls-4{fill:#f55;}.cls-5{fill:#f5f;}.cls-6{fill:#ff5;}.cls-7{fill:#fff;}</style></defs><title>guideline-0101</title><rect class="cls-1" width="480" height="270"/><path class="cls-2" d="M134.44,139.18c0-6.34-4.77-11-12.31-11-4.33,0-8.28,1.49-12.31,4l7.91-31h23.5v8H123.85l-3.28,12.23a20.55,20.55,0,0,1,4.85-.67c11.12,0,18.13,8.36,18.13,18.43,0,10.44-8.58,19.17-20.37,19.17-9.33,0-16.79-5.74-19.17-13.2l7.24-4.92c1.49,5.74,6,9.92,12.16,9.92S134.44,145.67,134.44,139.18Z"/><path class="cls-2" d="M180.69,139.18c0-6.34-4.77-11-12.31-11-4.33,0-8.28,1.49-12.31,4l7.91-31h23.5v8H170.1l-3.28,12.23a20.55,20.55,0,0,1,4.85-.67c11.12,0,18.13,8.36,18.13,18.43,0,10.44-8.58,19.17-20.37,19.17-9.33,0-16.79-5.74-19.17-13.2l7.24-4.92c1.49,5.74,6,9.92,12.16,9.92S180.69,145.67,180.69,139.18Z"/><path class="cls-2" d="M226.95,139.18c0-6.34-4.77-11-12.31-11-4.33,0-8.28,1.49-12.31,4l7.91-31h23.5v8H216.35l-3.28,12.23a20.55,20.55,0,0,1,4.85-.67C229,120.68,236,129,236,139.1c0,10.44-8.58,19.17-20.37,19.17-9.33,0-16.79-5.74-19.17-13.2l7.24-4.92c1.49,5.74,6,9.92,12.16,9.92S226.95,145.67,226.95,139.18Z"/><path class="cls-2" d="M273.2,139.18c0-6.34-4.77-11-12.31-11-4.33,0-8.28,1.49-12.31,4l7.91-31H280v8H262.6l-3.28,12.23a20.55,20.55,0,0,1,4.85-.67c11.12,0,18.13,8.36,18.13,18.43,0,10.44-8.58,19.17-20.37,19.17-9.33,0-16.79-5.74-19.17-13.2l7.24-4.92c1.49,5.74,6,9.92,12.16,9.92S273.2,145.67,273.2,139.18Z"/><path class="cls-2" d="M292.82,101.13h33.35v8h-24.1v14.7h23.8v8h-23.8v25.59h-9.25Z"/><path class="cls-2" d="M339.07,101.13h33.35v8h-24.1v14.7h23.8v8h-23.8v25.59h-9.25Z"/><rect class="cls-2" x="480" width="480" height="270"/><path class="cls-1" d="M614.44,139.18c0-6.34-4.78-11-12.31-11-4.33,0-8.28,1.49-12.31,4l7.91-31h23.5v8H603.85l-3.28,12.23a20.56,20.56,0,0,1,4.85-.67c11.12,0,18.13,8.36,18.13,18.43,0,10.44-8.58,19.17-20.37,19.17-9.32,0-16.79-5.74-19.17-13.2l7.24-4.92c1.49,5.74,6,9.92,12.16,9.92S614.44,145.67,614.44,139.18Z"/><path class="cls-1" d="M660.69,139.18c0-6.34-4.78-11-12.31-11-4.33,0-8.28,1.49-12.31,4l7.91-31h23.5v8H650.1l-3.28,12.23a20.56,20.56,0,0,1,4.85-.67c11.12,0,18.13,8.36,18.13,18.43,0,10.44-8.58,19.17-20.37,19.17-9.32,0-16.79-5.74-19.17-13.2l7.24-4.92c1.49,5.74,6,9.92,12.16,9.92S660.69,145.67,660.69,139.18Z"/><path class="cls-1" d="M680.31,101.13h33.35v8h-24.1v14.7h23.8v8h-23.8v25.59h-9.25Z"/><path class="cls-1" d="M726.56,101.13h33.35v8h-24.1v14.7h23.8v8h-23.8v25.59h-9.25Z"/><path class="cls-1" d="M799.45,139.18c0-6.34-4.77-11-12.31-11-4.33,0-8.28,1.49-12.31,4l7.91-31h23.5v8H788.86l-3.28,12.23a20.55,20.55,0,0,1,4.85-.67c11.12,0,18.13,8.36,18.13,18.43,0,10.44-8.58,19.17-20.37,19.17-9.33,0-16.79-5.74-19.17-13.2l7.24-4.92c1.49,5.74,6,9.92,12.16,9.92C794.68,150.07,799.45,145.67,799.45,139.18Z"/><path class="cls-1" d="M845.7,139.18c0-6.34-4.77-11-12.31-11-4.33,0-8.28,1.49-12.31,4l7.91-31h23.5v8H835.11l-3.28,12.23a20.55,20.55,0,0,1,4.85-.67c11.12,0,18.13,8.36,18.13,18.43,0,10.44-8.58,19.17-20.37,19.17-9.33,0-16.79-5.74-19.17-13.2l7.24-4.92c1.49,5.74,6,9.92,12.16,9.92C840.93,150.07,845.7,145.67,845.7,139.18Z"/><rect class="cls-3" x="960" width="480" height="270"/><path class="cls-4" d="M1094.44,139.18c0-6.34-4.78-11-12.31-11-4.33,0-8.28,1.49-12.31,4l7.91-31h23.5v8h-17.38l-3.28,12.23a20.56,20.56,0,0,1,4.85-.67c11.12,0,18.13,8.36,18.13,18.43,0,10.44-8.58,19.17-20.37,19.17-9.32,0-16.79-5.74-19.17-13.2l7.24-4.92c1.49,5.74,6,9.92,12.16,9.92S1094.44,145.67,1094.44,139.18Z"/><path class="cls-4" d="M1140.69,139.18c0-6.34-4.78-11-12.31-11-4.33,0-8.28,1.49-12.31,4l7.91-31h23.5v8H1130.1l-3.28,12.23a20.56,20.56,0,0,1,4.85-.67c11.12,0,18.13,8.36,18.13,18.43,0,10.44-8.58,19.17-20.37,19.17-9.32,0-16.79-5.74-19.17-13.2l7.24-4.92c1.49,5.74,6,9.92,12.16,9.92S1140.69,145.67,1140.69,139.18Z"/><path class="cls-4" d="M1160.31,101.13h33.35v8h-24.1v14.7h23.8v8h-23.8v25.59h-9.25Z"/><path class="cls-4" d="M1206.56,101.13h33.35v8h-24.1v14.7h23.8v8h-23.8v25.59h-9.25Z"/><path class="cls-4" d="M1252.82,101.13h33.35v8h-24.1v14.7h23.8v8h-23.8v25.59h-9.25Z"/><path class="cls-4" d="M1299.07,101.13h33.35v8h-24.1v14.7h23.8v8h-23.8v25.59h-9.25Z"/><rect class="cls-4" x="1440" width="480" height="270"/><path class="cls-3" d="M1547.81,101.13h33.35v8h-24.1v14.7h23.8v8h-23.8v25.59h-9.25Z"/><path class="cls-3" d="M1594.06,101.13h33.35v8h-24.1v14.7h23.8v8h-23.8v25.59h-9.25Z"/><path class="cls-3" d="M1666.95,139.18c0-6.34-4.77-11-12.31-11-4.33,0-8.28,1.49-12.31,4l7.91-31h23.5v8h-17.38l-3.28,12.23a20.55,20.55,0,0,1,4.85-.67c11.12,0,18.13,8.36,18.13,18.43,0,10.44-8.58,19.17-20.37,19.17-9.33,0-16.79-5.74-19.17-13.2l7.24-4.92c1.49,5.74,6,9.92,12.16,9.92C1662.17,150.07,1666.95,145.67,1666.95,139.18Z"/><path class="cls-3" d="M1713.2,139.18c0-6.34-4.77-11-12.31-11-4.33,0-8.28,1.49-12.31,4l7.91-31H1720v8H1702.6l-3.28,12.23a20.55,20.55,0,0,1,4.85-.67c11.12,0,18.13,8.36,18.13,18.43,0,10.44-8.58,19.17-20.37,19.17-9.33,0-16.79-5.74-19.17-13.2l7.24-4.92c1.49,5.74,6,9.92,12.16,9.92C1708.42,150.07,1713.2,145.67,1713.2,139.18Z"/><path class="cls-3" d="M1759.45,139.18c0-6.34-4.77-11-12.31-11-4.33,0-8.28,1.49-12.31,4l7.91-31h23.5v8h-17.38l-3.28,12.23a20.55,20.55,0,0,1,4.85-.67c11.12,0,18.13,8.36,18.13,18.43,0,10.44-8.58,19.17-20.37,19.17-9.33,0-16.79-5.74-19.17-13.2l7.24-4.92c1.49,5.74,6,9.92,12.16,9.92C1754.68,150.07,1759.45,145.67,1759.45,139.18Z"/><path class="cls-3" d="M1805.7,139.18c0-6.34-4.77-11-12.31-11-4.33,0-8.28,1.49-12.31,4l7.91-31h23.5v8h-17.38l-3.28,12.23a20.55,20.55,0,0,1,4.85-.67c11.12,0,18.13,8.36,18.13,18.43,0,10.44-8.58,19.17-20.37,19.17-9.33,0-16.79-5.74-19.17-13.2l7.24-4.92c1.49,5.74,6,9.92,12.16,9.92C1800.93,150.07,1805.7,145.67,1805.7,139.18Z"/><rect class="cls-5" y="270" width="480" height="270"/><path class="cls-6" d="M107.81,371.13h33.35v8h-24.1v14.7h23.8v8h-23.8v25.59h-9.25Z"/><path class="cls-6" d="M154.06,371.13h33.35v8h-24.1v14.7h23.8v8h-23.8v25.59h-9.25Z"/><path class="cls-6" d="M226.95,409.18c0-6.34-4.77-11-12.31-11-4.33,0-8.28,1.49-12.31,4l7.91-31h23.5v8H216.35l-3.28,12.23a20.55,20.55,0,0,1,4.85-.67C229,390.68,236,399,236,409.1c0,10.44-8.58,19.17-20.37,19.17-9.33,0-16.79-5.74-19.17-13.2l7.24-4.92c1.49,5.74,6,9.92,12.16,9.92S226.95,415.67,226.95,409.18Z"/><path class="cls-6" d="M273.2,409.18c0-6.34-4.77-11-12.31-11-4.33,0-8.28,1.49-12.31,4l7.91-31H280v8H262.6l-3.28,12.23a20.55,20.55,0,0,1,4.85-.67c11.12,0,18.13,8.36,18.13,18.43,0,10.44-8.58,19.17-20.37,19.17-9.33,0-16.79-5.74-19.17-13.2l7.24-4.92c1.49,5.74,6,9.92,12.16,9.92S273.2,415.67,273.2,409.18Z"/><path class="cls-6" d="M292.82,371.13h33.35v8h-24.1v14.7h23.8v8h-23.8v25.59h-9.25Z"/><path class="cls-6" d="M339.07,371.13h33.35v8h-24.1v14.7h23.8v8h-23.8v25.59h-9.25Z"/><rect class="cls-6" x="480" y="270" width="480" height="270"/><path class="cls-5" d="M587.81,371.13h33.35v8h-24.1v14.7h23.8v8h-23.8v25.59h-9.25Z"/><path class="cls-5" d="M634.06,371.13h33.35v8h-24.1v14.7h23.8v8h-23.8v25.59h-9.25Z"/><path class="cls-5" d="M680.31,371.13h33.35v8h-24.1v14.7h23.8v8h-23.8v25.59h-9.25Z"/><path class="cls-5" d="M726.56,371.13h33.35v8h-24.1v14.7h23.8v8h-23.8v25.59h-9.25Z"/><path class="cls-5" d="M799.45,409.18c0-6.34-4.77-11-12.31-11-4.33,0-8.28,1.49-12.31,4l7.91-31h23.5v8H788.86l-3.28,12.23a20.55,20.55,0,0,1,4.85-.67c11.12,0,18.13,8.36,18.13,18.43,0,10.44-8.58,19.17-20.37,19.17-9.33,0-16.79-5.74-19.17-13.2l7.24-4.92c1.49,5.74,6,9.92,12.16,9.92C794.68,420.07,799.45,415.67,799.45,409.18Z"/><path class="cls-5" d="M845.7,409.18c0-6.34-4.77-11-12.31-11-4.33,0-8.28,1.49-12.31,4l7.91-31h23.5v8H835.11l-3.28,12.23a20.55,20.55,0,0,1,4.85-.67c11.12,0,18.13,8.36,18.13,18.43,0,10.44-8.58,19.17-20.37,19.17-9.33,0-16.79-5.74-19.17-13.2l7.24-4.92c1.49,5.74,6,9.92,12.16,9.92C840.93,420.07,845.7,415.67,845.7,409.18Z"/><rect class="cls-7" x="960" y="270" width="480" height="270"/><path d="M1067.81,371.13h33.35v8h-24.1v14.7h23.8v8h-23.8v25.59h-9.25Z"/><path d="M1114.06,371.13h33.35v8h-24.1v14.7h23.8v8h-23.8v25.59h-9.25Z"/><path d="M1160.31,371.13h33.35v8h-24.1v14.7h23.8v8h-23.8v25.59h-9.25Z"/><path d="M1206.56,371.13h33.35v8h-24.1v14.7h23.8v8h-23.8v25.59h-9.25Z"/><path d="M1252.82,371.13h33.35v8h-24.1v14.7h23.8v8h-23.8v25.59h-9.25Z"/><path d="M1299.07,371.13h33.35v8h-24.1v14.7h23.8v8h-23.8v25.59h-9.25Z"/><rect x="1440" y="270" width="480" height="270"/><path class="cls-7" d="M1584.59,399.26c0,16.34-8.43,29-20.22,29s-20.22-12.68-20.22-29,8.43-29,20.22-29S1584.59,382.92,1584.59,399.26Zm-9,0c0-11.56-4.4-20.37-11.27-20.37s-11.26,8.8-11.26,20.37,4.4,20.37,11.26,20.37S1575.63,410.82,1575.63,399.26Z"/><path class="cls-7" d="M1630.84,399.26c0,16.34-8.43,29-20.22,29s-20.22-12.68-20.22-29,8.43-29,20.22-29S1630.84,382.92,1630.84,399.26Zm-9,0c0-11.56-4.4-20.37-11.27-20.37s-11.26,8.8-11.26,20.37,4.4,20.37,11.26,20.37S1621.89,410.82,1621.89,399.26Z"/><path class="cls-7" d="M1677.09,399.26c0,16.34-8.43,29-20.22,29s-20.22-12.68-20.22-29,8.43-29,20.22-29S1677.09,382.92,1677.09,399.26Zm-9,0c0-11.56-4.4-20.37-11.26-20.37s-11.27,8.8-11.27,20.37,4.4,20.37,11.27,20.37S1668.14,410.82,1668.14,399.26Z"/><path class="cls-7" d="M1723.34,399.26c0,16.34-8.43,29-20.22,29s-20.22-12.68-20.22-29,8.43-29,20.22-29S1723.34,382.92,1723.34,399.26Zm-9,0c0-11.56-4.4-20.37-11.26-20.37s-11.27,8.8-11.27,20.37,4.4,20.37,11.27,20.37S1714.39,410.82,1714.39,399.26Z"/><path class="cls-7" d="M1769.6,399.26c0,16.34-8.43,29-20.22,29s-20.22-12.68-20.22-29,8.43-29,20.22-29S1769.6,382.92,1769.6,399.26Zm-9,0c0-11.56-4.4-20.37-11.26-20.37s-11.27,8.8-11.27,20.37,4.4,20.37,11.27,20.37S1760.64,410.82,1760.64,399.26Z"/><path class="cls-7" d="M1815.85,399.26c0,16.34-8.43,29-20.22,29s-20.22-12.68-20.22-29,8.43-29,20.22-29S1815.85,382.92,1815.85,399.26Zm-9,0c0-11.56-4.4-20.37-11.26-20.37s-11.27,8.8-11.27,20.37,4.4,20.37,11.27,20.37S1806.89,410.82,1806.89,399.26Z"/></svg>