<svg id="Layer_1" data-name="Layer 1" xmlns="http://www.w3.org/2000/svg" viewBox="0 0 1920 1080"><defs><style>.cls-1{fill:#37ff47;}.cls-2{fill:#f55;}</style></defs><title>guideline-0101</title><rect class="cls-1" width="1920" height="1080"/><path class="cls-2" d="M405.27,421.07a58.52,58.52,0,0,0,2-5.8c1.36.11,5.46.11,8.87.11,6,0,7.62-2.16,7.62-5.23,0-1.71-.34-4-.57-6.14s-.45-4.55-.79-7.16c-7.84-.23-25.24-.23-32.85,0-1.82,2.84-3.41,5.34-4.89,7.73-1.82,3.18-3.29,5.57-3.29,7.5s1.14,3.41,5.8,3.41c5.68,0,7.5-.11,9.55-.11-.57,1.48-1.48,4.43-1.82,5.68-4.21-.34-29.78-.23-33.88,0a39.89,39.89,0,0,0,2.16-5.8,27.8,27.8,0,0,0,3.52.11c3-.11,4.66-1,7.5-5,6.25-9,24.67-36.49,33.19-49.79,2-3.18,1.48-5.34-3.3-5.34-3.64,0-5.91,0-8.53.11a47.94,47.94,0,0,0,1.93-5.68c2.62.11,22.28.45,25.92,0,1.25,14.1,5.34,47.52,6.93,60,.46,4,1.93,5.68,7.28,5.68a25.59,25.59,0,0,0,2.84-.11c-.46,1.59-1.36,4.55-1.59,5.8C434.71,420.73,409.36,420.84,405.27,421.07Zm16.6-29.44c-1.37-12.5-3.3-27.74-4.21-36.26-6.93,10-16.71,24.21-24.67,36.26C400.15,391.85,413.79,391.85,421.87,391.63Z"/><path class="cls-2" d="M558.05,436.76c9.09,0,17.51-.23,21.14-.34a46.74,46.74,0,0,0-1.71,6.25c-6.71-.34-43.54-.34-49.45-.11.57-1.93,1.25-4.09,1.71-6.14a89.84,89.84,0,0,0,9.89.34c3.53,0,6-.91,7.62-5,8.64-21.37,17.85-45.81,17.85-56.16,0-3.07-1.14-5.12-4-5.12-5.23,0-9.89,4.77-14.21,10.69a26.49,26.49,0,0,0-4.66-4.21c6.71-7.62,13.53-12.16,19.44-12.16,5.23,0,9.09,3.18,9.09,9.78a38.4,38.4,0,0,1-1.48,9.55h.91c8-13.53,16.26-19.1,26.83-19.1,11,0,16.82,7,16.82,18.07,0,18.64-15,39.11-33.31,39.11-9.21,0-14.89-5.57-18.76-12.85-.46,1.14-.91,2.27-1.25,3.41-1.82,5.34-3.87,11.14-6,17.62C552.94,435.05,554.53,436.76,558.05,436.76Zm49.34-53.31c0-8.87-4-12.85-11.48-12.85-8.75,0-20.12,5.68-31.83,33.08,4.77,9,9.66,12.73,16.6,12.73C595.46,416.41,607.39,398,607.39,383.44Z"/><path class="cls-2" d="M688.22,405.49a36.64,36.64,0,0,0,4,5c-11.25,9.32-22.62,11.71-34,11.71-19.21,0-28.3-9.09-28.3-22.28,0-17.51,13.87-34.9,39.22-34.9,14.66,0,22.05,7,22.05,15.35,0,13.41-17.62,20.12-55,19.33.34,11.48,8.53,16.94,23.53,16.94C668.67,416.64,679.46,414.25,688.22,405.49Zm-51.61-11.25c32.51.46,47.74-4.32,47.74-13.64,0-6.25-5.8-9.78-16.37-9.78C650.71,370.82,639,381.4,636.61,394.24Z"/><path class="cls-2" d="M772.34,405.49a36.64,36.64,0,0,0,4,5c-11.25,9.32-22.62,11.71-34,11.71-19.21,0-28.3-9.09-28.3-22.28,0-17.51,13.87-34.9,39.22-34.9,14.66,0,22.05,7,22.05,15.35,0,13.41-17.62,20.12-55,19.33.34,11.48,8.53,16.94,23.53,16.94C752.79,416.64,763.59,414.25,772.34,405.49Zm-51.61-11.25c32.51.46,47.74-4.32,47.74-13.64,0-6.25-5.8-9.78-16.37-9.78C734.83,370.82,723.12,381.4,720.73,394.24Z"/><path class="cls-2" d="M791.78,421.07a32.55,32.55,0,0,0,1.82-6.25c1.82.23,6.37.34,11.94.34,3.18,0,4.78-.91,6.48-5.12,6.59-16.37,10-28.31,10-34.33,0-3.41-1-5.23-3.87-5.23-4.43,0-9.55,4.09-14.32,10.8a35.91,35.91,0,0,0-4.55-4.21c7.16-7.62,13.41-12.16,19.67-12.16,5.23,0,8.64,3.3,8.64,9.44,0,3.07-1.14,7.39-3,13h.91c7.62-15.46,16.48-22.39,26.49-22.39,10.8,0,14.89,8.64,14.89,15.8,0,6.48-3.52,11.14-9.89,11.14-4.89,0-7.84-2.84-7.84-6.82,0-4.21,3.41-6.59,6.94-6.59a7.79,7.79,0,0,1,5.46,2.27c-.23-7.28-5.34-9.89-10.12-9.89-11.71,0-24.1,15.8-32.62,38.42-1.14,3.18-.68,5.91,3.41,5.91,6.94,0,13.53-.23,16.37-.34a47.7,47.7,0,0,0-1.82,6.25C830.66,420.73,797.47,420.73,791.78,421.07Z"/><path class="cls-2" d="M940,387.31c-.57,2.39-1.14,4.66-1.48,7-6.59-.34-43.2-.46-49,0a50.85,50.85,0,0,0,1.25-7C896.48,387.76,933.43,387.87,940,387.31Z"/><path class="cls-2" d="M1001.64,366.62c13.75,0,28.08-.11,32.28-.45a48,48,0,0,0-1.82,6.25c-4.21-.23-19.1-.34-33.19-.23C991.06,388,986.4,398.79,986.4,407c0,6.37,3,9.32,8.75,9.32,7.84,0,15.69-4.32,25.24-17.17a20.81,20.81,0,0,0,5.46,4.55c-11.25,13.19-21.26,18.64-31.49,18.53-9.21-.11-14.1-4.77-14.1-14.21,0-9.89,5-21.6,11.82-35.81-10,0-18.53.11-21.37.34a36.19,36.19,0,0,0,1.48-6.37c2.84.23,12.05.45,22.51.45,2-4.32,4.21-8.75,6.48-13.53a44.4,44.4,0,0,0,7.62-.8C1006.18,357.52,1003.8,362.18,1001.64,366.62Z"/><path class="cls-2" d="M1113.84,388.1c0,15.8-13.64,34.1-37.51,34.1-17.62,0-26-9.32-26-23.08,0-15.69,13.3-34,37.74-34C1105.2,365.14,1113.84,374.12,1113.84,388.1Zm-57.18,10.8c0,11.82,7.39,17.73,19.67,17.73,18.42,0,31.38-14.89,31.38-28.31,0-11.82-8.07-17.51-20-17.51C1068.94,370.82,1056.66,385.15,1056.66,398.9Z"/><path class="cls-2" d="M1192.39,387.31c-.57,2.39-1.14,4.66-1.48,7-6.59-.34-43.2-.46-49,0a50.85,50.85,0,0,0,1.25-7C1148.85,387.76,1185.8,387.87,1192.39,387.31Z"/><path class="cls-2" d="M1231,436.76c9.09,0,17.51-.23,21.14-.34a47,47,0,0,0-1.71,6.25c-6.71-.34-43.54-.34-49.45-.11.57-1.93,1.25-4.09,1.71-6.14a89.88,89.88,0,0,0,9.89.34c3.52,0,6-.91,7.62-5,8.64-21.37,17.85-45.81,17.85-56.16,0-3.07-1.14-5.12-4-5.12-5.23,0-9.89,4.77-14.21,10.69a26.49,26.49,0,0,0-4.66-4.21c6.71-7.62,13.53-12.16,19.44-12.16,5.23,0,9.09,3.18,9.09,9.78a38.38,38.38,0,0,1-1.48,9.55h.91c8-13.53,16.26-19.1,26.83-19.1,11,0,16.82,7,16.82,18.07,0,18.64-15,39.11-33.31,39.11-9.21,0-14.89-5.57-18.76-12.85-.45,1.14-.91,2.27-1.25,3.41-1.82,5.34-3.87,11.14-6,17.62C1225.93,435.05,1227.52,436.76,1231,436.76Zm49.34-53.31c0-8.87-4-12.85-11.48-12.85-8.75,0-20.12,5.68-31.83,33.08,4.78,9,9.66,12.73,16.6,12.73C1268.44,416.41,1280.38,398,1280.38,383.44Z"/><path class="cls-2" d="M1361.21,405.49a36.5,36.5,0,0,0,4,5c-11.26,9.32-22.62,11.71-34,11.71-19.21,0-28.31-9.09-28.31-22.28,0-17.51,13.87-34.9,39.22-34.9,14.66,0,22.05,7,22.05,15.35,0,13.41-17.62,20.12-55,19.33.34,11.48,8.53,16.94,23.53,16.94C1341.65,416.64,1352.46,414.25,1361.21,405.49Zm-51.61-11.25c32.51.46,47.74-4.32,47.74-13.64,0-6.25-5.8-9.78-16.37-9.78C1323.69,370.82,1312,381.4,1309.6,394.24Z"/><path class="cls-2" d="M1445.33,405.49a36.64,36.64,0,0,0,4,5c-11.25,9.32-22.62,11.71-34,11.71-19.21,0-28.3-9.09-28.3-22.28,0-17.51,13.87-34.9,39.22-34.9,14.66,0,22.05,7,22.05,15.35,0,13.41-17.62,20.12-55,19.33.34,11.48,8.53,16.94,23.53,16.94C1425.78,416.64,1436.58,414.25,1445.33,405.49Zm-51.61-11.25c32.51.46,47.74-4.32,47.74-13.64,0-6.25-5.8-9.78-16.37-9.78C1407.82,370.82,1396.11,381.4,1393.72,394.24Z"/><path class="cls-2" d="M1464.77,421.07a32.42,32.42,0,0,0,1.82-6.25c1.82.23,6.37.34,11.94.34,3.18,0,4.77-.91,6.48-5.12,6.59-16.37,10-28.31,10-34.33,0-3.41-1-5.23-3.87-5.23-4.43,0-9.55,4.09-14.32,10.8a36,36,0,0,0-4.55-4.21c7.16-7.62,13.41-12.16,19.67-12.16,5.23,0,8.64,3.3,8.64,9.44,0,3.07-1.14,7.39-3,13h.91c7.62-15.46,16.48-22.39,26.49-22.39,10.8,0,14.89,8.64,14.89,15.8,0,6.48-3.53,11.14-9.89,11.14-4.89,0-7.84-2.84-7.84-6.82,0-4.21,3.41-6.59,6.93-6.59a7.79,7.79,0,0,1,5.46,2.27c-.23-7.28-5.34-9.89-10.12-9.89-11.71,0-24.1,15.8-32.62,38.42-1.14,3.18-.68,5.91,3.41,5.91,6.93,0,13.53-.23,16.37-.34a48,48,0,0,0-1.82,6.25C1503.65,420.73,1470.46,420.73,1464.77,421.07Z"/><path class="cls-2" d="M408.56,532.59c-14.89-1.82-22.39-5.34-22.39-14.44,0-10.12,10.8-16.71,29-16.71,17.73,0,24.44,7.16,24.44,13.41,0,4-2.5,7.5-7.39,7.5-4.43,0-6.93-2.73-6.82-6.25a5.81,5.81,0,0,1,5.34-6c-3.64-1.71-9.55-3-16.37-3-16.26,0-22.05,4.55-22.05,10.46,0,5.34,3.64,7.39,18.64,9.32,14.44,1.82,23.42,4.77,23.42,15.23,0,10.69-9.89,16.82-29.21,16.82-20.58,0-30.35-6.93-30.35-15.57,0-4.09,2.61-7.73,7.39-7.73,4.32,0,6.71,2.5,6.71,6.14s-2.84,5.57-6,5.57h-.79c4,4,14.66,5.91,23,5.91,14.78,0,23.3-4.32,23.3-11C428.34,536.91,424,534.53,408.56,532.59Z"/><path class="cls-2" d="M496.89,503c13.76,0,28.08-.11,32.29-.45a47.38,47.38,0,0,0-1.82,6.25c-4.21-.23-19.1-.34-33.2-.23-7.84,15.8-12.5,26.6-12.5,34.79,0,6.37,3,9.32,8.75,9.32,7.84,0,15.69-4.32,25.24-17.17a20.81,20.81,0,0,0,5.46,4.55c-11.25,13.19-21.26,18.64-31.49,18.53-9.21-.11-14.1-4.77-14.1-14.21,0-9.89,5-21.6,11.82-35.81-10,0-18.53.11-21.37.34a36.54,36.54,0,0,0,1.48-6.37c2.84.23,12,.45,22.51.45,2-4.32,4.21-8.75,6.48-13.53a44.42,44.42,0,0,0,7.62-.8C501.44,493.94,499.05,498.6,496.89,503Z"/><path class="cls-2" d="M606.94,503.15c-9.78,20.46-14.66,37.51-14.66,44.67,0,3.64,1.48,5.23,4.55,5.23,4.09,0,7.62-2.27,13-10a26.3,26.3,0,0,0,4.77,3.64c-6.48,7.84-11.37,11.94-18.42,11.94-6.48,0-10.34-3.52-10.34-10.23a36.07,36.07,0,0,1,1-7.5h-.91c-7.16,12.85-15.57,17.73-25.69,17.73-11,0-16.82-7-16.82-18.08,0-18.64,15-39.1,33.31-39.1,9.21,0,14.55,5.12,18.42,12.73,1.37-3.87,3-8.07,4.55-12.39A44,44,0,0,0,606.94,503.15Zm-15.35,21.14c.46-1.48,1-3,1.59-4.55-4.66-8.87-9.66-12.5-16.6-12.5-14.78,0-26.71,18.42-26.71,33,0,8.87,4,12.85,11.48,12.85C569.65,553.05,580.9,548.05,591.59,524.29Z"/><path class="cls-2" d="M629.79,536.12c0-18.53,15.12-34.79,39.9-34.79,15.69,0,21.6,8.64,21.6,16.37,0,5.91-3.52,10.57-9.89,10.57-4.89,0-7.84-2.84-7.84-6.59,0-4.32,3.75-6.71,7.5-6.71a6.23,6.23,0,0,1,4.66,1.59c-1.48-6.82-9.09-9.32-16.71-9.32-21.37,0-32.85,13.87-32.85,28.53,0,11.82,7.5,17.28,22.28,17.28,11.71,0,20.69-5,27.85-12.5a44.51,44.51,0,0,0,4.66,4.32c-9.44,9.09-19,13.75-33.08,13.75C638.77,558.62,629.79,550.89,629.79,536.12Z"/><path class="cls-2" d="M727.32,530.09c13.3-3.07,30.47-8.64,37.4-13.3a6.16,6.16,0,0,1-3.87-6c0-4.21,2.62-8.18,8.19-8.18,4.89,0,7.28,3.18,7.28,7.5,0,8.41-10.34,14.44-31.83,20.92,7.16,14.78,11.25,21.71,18.19,21.71,3.64,0,8.18-1.82,14.66-8.07a22.93,22.93,0,0,0,4.32,5.23c-7,5.68-12.62,8.75-19.21,8.75-10.46,0-15.35-8-23.76-25.92-4.21,1.14-8.75,2.39-13.76,3.64-3.18,8.3-6.25,16.14-8.18,21.71a20.31,20.31,0,0,0-6-1.48c13.3-34.9,22.73-57.52,22.73-65.82,0-3.3-1.59-5-5.23-5-3.3,0-6.14,1-10.34,3a35.77,35.77,0,0,0-2.39-5.91c4.78-1.93,9.32-3.18,13.64-3.18,6.37,0,10.12,3.64,10.12,10.8C739.26,497.92,733.35,514.4,727.32,530.09Z"/><path class="cls-2" d="M914.79,512.93c14.32,0,29.56-.11,34-.46a39.12,39.12,0,0,0-1.37,6.93c-4.32-.23-19.21-.34-33.31-.34l-3.75,31.26c-2.62,22.17-13,30.24-23.42,30.24-6.82,0-11.14-3-11.14-8.75,0-4.21,2.5-7.62,7.62-7.62s7.73,3.87,7.73,8.07a8.34,8.34,0,0,1-.34,2.5c6.14-2.16,11.37-9,13.41-25.58l3.64-30.12c-10.23,0-19.21.11-22.17.34a37.37,37.37,0,0,0,1.36-6.93c2.73.23,11.48.46,21.49.46l.34-2.39c2.39-20.12,13.41-29.1,28.19-29.1,8.41,0,13.53,3.52,13.53,9.44,0,4-3,7.28-7.62,7.28a7.18,7.18,0,0,1-7.62-7.5,7.68,7.68,0,0,1,1-4c-11.71.46-19.32,7-21.37,24.33Z"/><path class="cls-2" d="M1029.71,524.52c0,15.8-13.64,34.1-37.51,34.1-17.62,0-26-9.32-26-23.08,0-15.69,13.3-34,37.74-34C1021.07,501.56,1029.71,510.54,1029.71,524.52Zm-57.18,10.8c0,11.82,7.39,17.73,19.67,17.73,18.42,0,31.38-14.89,31.38-28.31,0-11.82-8.07-17.51-20-17.51C984.81,507.24,972.54,521.57,972.54,535.32Z"/><path class="cls-2" d="M1044.15,557.49a32.55,32.55,0,0,0,1.82-6.25c1.82.23,6.37.34,11.94.34,3.18,0,4.78-.91,6.48-5.12,6.59-16.37,10-28.31,10-34.33,0-3.41-1-5.23-3.87-5.23-4.43,0-9.55,4.09-14.32,10.8a35.91,35.91,0,0,0-4.55-4.21c7.16-7.62,13.41-12.16,19.67-12.16,5.23,0,8.64,3.3,8.64,9.44,0,3.07-1.14,7.39-3,13h.91c7.62-15.46,16.48-22.39,26.49-22.39,10.8,0,14.89,8.64,14.89,15.8,0,6.48-3.52,11.14-9.89,11.14-4.89,0-7.84-2.84-7.84-6.82,0-4.21,3.41-6.59,6.94-6.59a7.79,7.79,0,0,1,5.46,2.27c-.23-7.28-5.34-9.89-10.12-9.89-11.71,0-24.1,15.8-32.62,38.42-1.14,3.18-.68,5.91,3.41,5.91,6.94,0,13.53-.23,16.37-.34a47.7,47.7,0,0,0-1.82,6.25C1083,557.15,1049.84,557.15,1044.15,557.49Z"/><path class="cls-2" d="M1218.65,536.12c0-18.53,15.12-34.79,39.9-34.79,15.69,0,21.6,8.64,21.6,16.37,0,5.91-3.52,10.57-9.89,10.57-4.89,0-7.84-2.84-7.84-6.59,0-4.32,3.75-6.71,7.5-6.71a6.23,6.23,0,0,1,4.66,1.59c-1.48-6.82-9.09-9.32-16.71-9.32-21.37,0-32.85,13.87-32.85,28.53,0,11.82,7.5,17.28,22.28,17.28,11.71,0,20.69-5,27.85-12.5a44.51,44.51,0,0,0,4.66,4.32c-9.44,9.09-19,13.75-33.08,13.75C1227.63,558.62,1218.65,550.89,1218.65,536.12Z"/><path class="cls-2" d="M1366.21,524.52c0,15.8-13.64,34.1-37.51,34.1-17.62,0-26-9.32-26-23.08,0-15.69,13.3-34,37.74-34C1357.57,501.56,1366.21,510.54,1366.21,524.52ZM1309,535.32c0,11.82,7.39,17.73,19.67,17.73,18.42,0,31.38-14.89,31.38-28.31,0-11.82-8.07-17.51-20-17.51C1321.31,507.24,1309,521.57,1309,535.32Z"/><path class="cls-2" d="M1439,486.33c-3.64,0-8.07,1.48-14.1,4.32a37.93,37.93,0,0,0-2.27-6.71c7-2.5,11.94-4.09,17.39-4.09,6.14,0,10.91,3.52,10.91,10.8,0,14-17.39,44.45-17.39,57.18,0,3.64,1.48,5.23,4.55,5.23,4.09,0,7.62-2.27,13-10a26.32,26.32,0,0,0,4.78,3.64c-6.48,7.84-11.37,11.94-18.42,11.94-6.14,0-9.89-3.64-9.89-10.46a30.93,30.93,0,0,1,1-7.28h-1c-7.16,12.85-15.8,17.73-26,17.73-11,0-16.82-7-16.82-18.08,0-18.64,15-39.1,33.31-39.1,10.12,0,15.46,6.14,19.21,14.55,3.87-10,7.39-19.33,7.39-24.44C1444.54,488.49,1442.95,486.33,1439,486.33ZM1435,521c-5.12-9.66-10-13.76-17.16-13.76-14.78,0-26.71,18.42-26.71,33,0,8.87,4,12.85,11.48,12.85C1411.46,553.05,1425.1,545.67,1435,521Z"/><path class="cls-2" d="M1529.46,541.91a36.64,36.64,0,0,0,4,5c-11.25,9.32-22.62,11.71-34,11.71-19.21,0-28.3-9.09-28.3-22.28,0-17.51,13.87-34.9,39.22-34.9,14.66,0,22.05,7,22.05,15.35,0,13.41-17.62,20.12-55,19.33.34,11.48,8.53,16.94,23.53,16.94C1509.9,553.05,1520.7,550.67,1529.46,541.91Zm-51.61-11.25c32.51.46,47.74-4.32,47.74-13.64,0-6.25-5.8-9.78-16.37-9.78C1491.94,507.24,1480.23,517.81,1477.85,530.66Z"/><path class="cls-2" d="M377.42,672.54c0-18.53,15.12-34.79,39.9-34.79,15.69,0,21.6,8.64,21.6,16.37,0,5.91-3.52,10.57-9.89,10.57-4.89,0-7.84-2.84-7.84-6.59,0-4.32,3.75-6.71,7.5-6.71a6.23,6.23,0,0,1,4.66,1.59c-1.48-6.82-9.09-9.32-16.71-9.32-21.37,0-32.85,13.87-32.85,28.53,0,11.82,7.5,17.28,22.28,17.28,11.71,0,20.69-5,27.85-12.5a44.51,44.51,0,0,0,4.66,4.32c-9.44,9.09-19,13.75-33.08,13.75C386.4,695,377.42,687.31,377.42,672.54Z"/><path class="cls-2" d="M525,660.94c0,15.8-13.64,34.1-37.51,34.1-17.62,0-26-9.32-26-23.08,0-15.69,13.3-34,37.74-34C516.33,638,525,647,525,660.94Zm-57.18,10.8c0,11.82,7.39,17.73,19.67,17.73,18.42,0,31.37-14.89,31.37-28.31,0-11.82-8.07-17.51-20-17.51C480.07,643.66,467.79,658,467.79,671.74Z"/><path class="cls-2" d="M577.72,689.36c9.21,0,19.89-5.46,31.38-21.49a33.74,33.74,0,0,0,5,4.21c-13.53,15.92-23.64,23-36.83,23-10.46,0-16.37-4.43-16.37-13.3,0-15.46,20.46-44.11,20.46-55.13,0-3.07-1.71-4.43-5.23-4.43-6.14,0-14,3.75-27.28,14a46.15,46.15,0,0,0-3.53-5.23C557.83,621.27,568.63,616,577,616c6,0,10.8,3.52,10.8,10.57,0,14-20.35,41.49-20.35,54.79C567.49,686.18,570.33,689.36,577.72,689.36Z"/><path class="cls-2" d="M661.85,689.36c9.21,0,19.89-5.46,31.38-21.49a33.54,33.54,0,0,0,5,4.21c-13.53,15.92-23.64,23-36.83,23-10.46,0-16.37-4.43-16.37-13.3,0-15.46,20.46-44.11,20.46-55.13,0-3.07-1.71-4.43-5.23-4.43-6.14,0-14,3.75-27.28,14a45.9,45.9,0,0,0-3.52-5.23C642,621.27,652.75,616,661.16,616c6,0,10.8,3.52,10.8,10.57,0,14-20.35,41.49-20.35,54.79C651.61,686.18,654.46,689.36,661.85,689.36Z"/><path class="cls-2" d="M775.18,639.57c-9.78,20.46-14.66,37.51-14.66,44.67,0,3.64,1.48,5.23,4.55,5.23,4.09,0,7.62-2.27,13-10a26.32,26.32,0,0,0,4.78,3.64C776.32,691,771.43,695,764.38,695c-6.48,0-10.35-3.52-10.35-10.23a36.2,36.2,0,0,1,1-7.5h-.91C747,690.16,738.58,695,728.46,695c-11,0-16.82-7-16.82-18.08,0-18.64,15-39.1,33.31-39.1,9.21,0,14.55,5.12,18.42,12.73,1.36-3.87,3-8.07,4.55-12.39A44,44,0,0,0,775.18,639.57Zm-15.35,21.14c.45-1.48,1-3,1.59-4.55-4.66-8.87-9.66-12.5-16.6-12.5-14.78,0-26.71,18.42-26.71,33,0,8.87,4,12.85,11.48,12.85C737.9,689.47,749.15,684.47,759.84,660.71Z"/><path class="cls-2" d="M814.4,622.18c-3.07,0-6.93.91-11.94,3.3a35.93,35.93,0,0,0-2.39-5.91,40.16,40.16,0,0,1,15-3.52c6.82,0,10.46,3.18,10.46,10.23s-3.52,16.94-8.75,29.33h1.14c7.16-13,16.14-17.73,26.6-17.73,11,0,16.82,7,16.82,18.07,0,18.64-15,39.11-33.31,39.11-10.12,0-15.46-6.14-19.21-14.55-1.71,4.21-3.52,8.87-5.57,14a30.34,30.34,0,0,0-6.14-1.48c13.3-34.9,22.74-57.52,22.74-65.82C819.86,623.88,818.27,622.18,814.4,622.18Zm40.47,34.1c0-8.87-4-12.85-11-12.85-9.32,0-23,7.39-32.85,32.06,5.12,9.66,10,13.75,17.17,13.75C842.94,689.24,854.88,670.83,854.88,656.28Z"/><path class="cls-2" d="M945.59,660.94c0,15.8-13.64,34.1-37.51,34.1-17.62,0-26-9.32-26-23.08,0-15.69,13.3-34,37.74-34C937,638,945.59,647,945.59,660.94Zm-57.18,10.8c0,11.82,7.39,17.73,19.67,17.73,18.42,0,31.38-14.89,31.38-28.31,0-11.82-8.07-17.51-20-17.51C900.69,643.66,888.41,658,888.41,671.74Z"/><path class="cls-2" d="M960,693.91a32.42,32.42,0,0,0,1.82-6.25c1.82.23,6.37.34,11.94.34,3.18,0,4.77-.91,6.48-5.12,6.59-16.37,10-28.31,10-34.33,0-3.41-1-5.23-3.87-5.23-4.43,0-9.55,4.09-14.32,10.8a36,36,0,0,0-4.55-4.21c7.16-7.62,13.41-12.16,19.67-12.16,5.23,0,8.64,3.3,8.64,9.44,0,3.07-1.14,7.39-3,13h.91c7.62-15.46,16.48-22.39,26.49-22.39,10.8,0,14.89,8.64,14.89,15.8,0,6.48-3.53,11.14-9.89,11.14-4.89,0-7.84-2.84-7.84-6.82,0-4.21,3.41-6.59,6.93-6.59a7.79,7.79,0,0,1,5.46,2.27c-.23-7.28-5.34-9.89-10.12-9.89-11.71,0-24.1,15.8-32.63,38.42-1.14,3.18-.68,5.91,3.41,5.91,6.93,0,13.53-.23,16.37-.34a48,48,0,0,0-1.82,6.25C998.91,693.57,965.71,693.57,960,693.91Z"/><path class="cls-2" d="M1111.68,639.57C1101.9,660,1097,677.08,1097,684.24c0,3.64,1.48,5.23,4.55,5.23,4.09,0,7.62-2.27,13-10a26.3,26.3,0,0,0,4.77,3.64c-6.48,7.84-11.37,11.94-18.42,11.94-6.48,0-10.34-3.52-10.34-10.23a36.07,36.07,0,0,1,1-7.5h-.91C1083.49,690.16,1075.07,695,1065,695c-11,0-16.82-7-16.82-18.08,0-18.64,15-39.1,33.31-39.1,9.21,0,14.55,5.12,18.42,12.73,1.37-3.87,3-8.07,4.55-12.39A44,44,0,0,0,1111.68,639.57Zm-15.35,21.14c.46-1.48,1-3,1.59-4.55-4.66-8.87-9.66-12.5-16.6-12.5-14.78,0-26.71,18.42-26.71,33,0,8.87,4,12.85,11.48,12.85C1074.39,689.47,1085.65,684.47,1096.33,660.71Z"/><path class="cls-2" d="M1169.88,639.45c13.75,0,28.08-.11,32.28-.45a48,48,0,0,0-1.82,6.25c-4.21-.23-19.1-.34-33.19-.23-7.84,15.8-12.51,26.6-12.51,34.79,0,6.37,3,9.32,8.75,9.32,7.84,0,15.69-4.32,25.24-17.17a20.79,20.79,0,0,0,5.46,4.55c-11.25,13.19-21.26,18.64-31.49,18.53-9.21-.11-14.1-4.77-14.1-14.21,0-9.89,5-21.6,11.82-35.81-10,0-18.53.11-21.37.34a36.19,36.19,0,0,0,1.48-6.37c2.84.23,12.05.45,22.51.45,2-4.32,4.21-8.75,6.48-13.53a44.4,44.4,0,0,0,7.62-.8C1174.43,630.36,1172,635,1169.88,639.45Z"/><path class="cls-2" d="M1253.55,649.12c0-3.64-2.16-5.34-6.25-5.34-7,0-15.23,4.09-27.62,17.73-1.36-1.82-2.73-2.61-4.66-4.43,12.73-12.5,22.17-19.1,32.85-19.1,6.71,0,12.5,3.64,12.5,11.14,0,9.32-13.64,24.44-13.64,33.42,0,4.89,1.93,6.93,7.62,6.93,8.07,0,17.05-4.89,25-17.51a17.51,17.51,0,0,0,5.68,3.64c-10.23,15-21.26,19.44-31.26,19.44-9,0-14-4.09-14-12C1239.8,670.49,1253.55,658.33,1253.55,649.12Zm7.5-36.95c5.46,0,8.41,3.75,8.41,8.07,0,4.55-3,8-8.41,8-5.91,0-8.41-3.41-8.41-8C1252.64,615.92,1255.6,612.17,1261.05,612.17Z"/><path class="cls-2" d="M1366.21,660.94c0,15.8-13.64,34.1-37.51,34.1-17.62,0-26-9.32-26-23.08,0-15.69,13.3-34,37.74-34C1357.57,638,1366.21,647,1366.21,660.94ZM1309,671.74c0,11.82,7.39,17.73,19.67,17.73,18.42,0,31.38-14.89,31.38-28.31,0-11.82-8.07-17.51-20-17.51C1321.31,643.66,1309,658,1309,671.74Z"/><path class="cls-2" d="M1397.13,643.32c-3.18,0-6.59,1.93-11.94,10.34a35.17,35.17,0,0,0-4.43-3.75c5.8-8.07,11.14-12.16,17.16-12.16,5.46,0,8.87,3.18,8.87,9.66a47.67,47.67,0,0,1-1.71,10.8h1c9.78-16.14,19.55-20.46,29.1-20.46,8,0,13.07,4.09,13.07,12.16,0,13.19-13.3,25-13.3,34.9,0,3,1.37,4.66,4.43,4.66,4.43,0,7.62-3.52,11.6-10a43.4,43.4,0,0,0,4.78,3.64c-5.8,7.5-10.23,11.94-17.28,11.94-5.23,0-9.89-3.07-9.89-10,0-12.5,13.3-24.44,13.3-34.67,0-5-3.07-7-8-7-9.55,0-23.53,6.82-38.77,45.7-.68,1.82-1.36,3.64-2,5.57a30.81,30.81,0,0,0-6.25-.91c10-24.21,14.32-35.81,14.32-45.24C1401.22,645.14,1399.75,643.32,1397.13,643.32Z"/></svg>