<svg id="Layer_1" data-name="Layer 1" xmlns="http://www.w3.org/2000/svg" viewBox="0 0 1920 1080"><defs><style>.cls-1{fill:#f1f2f2;}</style></defs><title>guideline-0101</title><rect class="cls-1" width="1920" height="1080"/><path d="M172.82,160.24H143.9v-37.8h28.38v4.44H149.06V138.4H166.7v4.5H149.06v12.9h23.76Z"/><path d="M179.72,140.56c1.86-4.14,6.06-7.26,12.24-7.26,6,0,9.6,2.58,9.6,7.86v12.9c0,2,1,2.82,2.34,2.82a5.34,5.34,0,0,0,2.88-1l.3,3.72a7.32,7.32,0,0,1-4.14,1.2,6,6,0,0,1-6.06-5.82c-1.26,3.3-5,5.76-9.78,5.76s-8.34-2.94-8.34-7.62,4.14-6.84,10.26-8.28l7.8-1.8V141c0-1.8-1.14-3.72-5-3.72-4.14,0-6.78,2.28-7.68,4.92Zm17.1,5.7-6.6,1.62c-4,1-6.48,2-6.48,5,0,2.28,1.5,4.08,4.56,4.08,4.62,0,8.52-3.48,8.52-7.32Z"/><path d="M235,153.1c-1.44,4.32-5.34,7.86-11.76,7.86-7.92,0-13.56-5.64-13.56-13.8s5.64-13.86,13.74-13.86c5.88,0,9.6,3,11.28,7.08l-4,2.4c-1.08-3.06-3.42-5.4-7.2-5.4-5.16,0-8.64,3.72-8.64,9.78s3.48,9.72,8.52,9.72c4.08,0,6.54-2.46,7.56-5.82Z"/><path d="M247.29,139.36a9.87,9.87,0,0,1,9.42-6.06c6.9,0,9.84,4.56,9.84,10.68v16.26h-5v-15.6c0-4.38-2.28-7.14-6.6-7.14s-7.68,3.42-7.68,8.58v14.16h-5v-37.8h5Z"/><path d="M295.76,146.92v13.32h-5V134h5v6.3c1.14-3.42,4-7,8.82-7,5,0,7.8,3.72,7.8,8.52a5.77,5.77,0,0,1-.24,1.74l-4.26,1.32a8.16,8.16,0,0,0,.24-1.8c0-3.18-1.38-5.4-4.8-5.4C299.18,137.68,295.76,141.82,295.76,146.92Z"/><path d="M317.66,140.56c1.86-4.14,6.06-7.26,12.24-7.26,6,0,9.6,2.58,9.6,7.86v12.9c0,2,1,2.82,2.34,2.82a5.34,5.34,0,0,0,2.88-1l.3,3.72a7.32,7.32,0,0,1-4.14,1.2,6,6,0,0,1-6.06-5.82c-1.26,3.3-5,5.76-9.78,5.76s-8.34-2.94-8.34-7.62,4.14-6.84,10.26-8.28l7.8-1.8V141c0-1.8-1.14-3.72-5-3.72-4.14,0-6.78,2.28-7.68,4.92Zm17.1,5.7-6.6,1.62c-4,1-6.48,2-6.48,5,0,2.28,1.5,4.08,4.56,4.08,4.62,0,8.52-3.48,8.52-7.32Z"/><path d="M369.86,154.6a9.6,9.6,0,0,1-9.42,6.36c-7.8,0-12.42-6.12-12.42-13.8s4.62-13.86,12.42-13.86a9.64,9.64,0,0,1,9.42,6.42V122.44h5v37.8h-5Zm.18-8c0-5.7-3.78-9.36-8.34-9.36-5.34,0-8.52,4-8.52,10s3.18,10,8.52,10c4.56,0,8.34-3.66,8.34-9.42Z"/><path d="M384,122.44h5.7V128H384ZM389.3,134v26.22h-5V134Z"/><path d="M421.7,153.1c-1.44,4.32-5.34,7.86-11.76,7.86-7.92,0-13.56-5.64-13.56-13.8S402,133.3,410.12,133.3c5.88,0,9.6,3,11.28,7.08l-4,2.4c-1.08-3.06-3.42-5.4-7.2-5.4-5.16,0-8.64,3.72-8.64,9.78s3.48,9.72,8.52,9.72c4.08,0,6.54-2.46,7.56-5.82Z"/><path d="M434,122.44v37.8h-5v-37.8Z"/><path d="M467.36,153.7c-2.1,4.62-6.24,7.26-12.24,7.26-7.86,0-13.62-5.4-13.62-13.44,0-8.28,5.76-14.22,13.38-14.22,8.4,0,12.6,6.12,12.6,12.9v1.56H446.42c0,5.7,4,9.3,8.82,9.3,4.38,0,6.9-1.92,8.28-5.64Zm-4.62-9.18a7.48,7.48,0,0,0-7.86-7.32,8.29,8.29,0,0,0-8.28,7.32Z"/><path d="M489,140.56c1.86-4.14,6.06-7.26,12.24-7.26,6,0,9.6,2.58,9.6,7.86v12.9c0,2,1,2.82,2.34,2.82a5.34,5.34,0,0,0,2.88-1l.3,3.72a7.32,7.32,0,0,1-4.14,1.2,6,6,0,0,1-6.06-5.82c-1.26,3.3-5,5.76-9.78,5.76s-8.34-2.94-8.34-7.62,4.14-6.84,10.26-8.28l7.8-1.8V141c0-1.8-1.14-3.72-5-3.72-4.14,0-6.78,2.28-7.68,4.92Zm17.1,5.7-6.6,1.62c-4,1-6.48,2-6.48,5,0,2.28,1.5,4.08,4.56,4.08,4.62,0,8.52-3.48,8.52-7.32Z"/><path d="M526.58,170.32h-5V134h5v5.7A9.65,9.65,0,0,1,536,133.3c7.8,0,12.42,6.12,12.42,13.86S543.8,161,536,161a9.6,9.6,0,0,1-9.42-6.36Zm-.18-22.62c0,5.76,3.78,9.42,8.28,9.42,5.4,0,8.58-4,8.58-10s-3.18-10-8.58-10c-4.5,0-8.28,3.66-8.28,9.36Z"/><path d="M560.9,170.32h-5V134h5v5.7a9.65,9.65,0,0,1,9.42-6.42c7.8,0,12.42,6.12,12.42,13.86S578.12,161,570.32,161a9.6,9.6,0,0,1-9.42-6.36Zm-.18-22.62c0,5.76,3.78,9.42,8.28,9.42,5.4,0,8.58-4,8.58-10s-3.18-10-8.58-10c-4.5,0-8.28,3.66-8.28,9.36Z"/><path d="M605,122.44h5.7V128H605ZM610.34,134v26.22h-5V134Z"/><path d="M620.36,151.66c1.86,3.54,5.88,5.46,9.84,5.46,3.78,0,6.3-1.14,6.3-3.78,0-1.92-1.5-2.88-4.14-3.54l-5.88-1.38c-4.26-1-7.5-2.94-7.5-7.38,0-4.62,4.38-7.74,10.14-7.74,5.22,0,9.18,2,11.16,5.4l-3.12,2.76a8.87,8.87,0,0,0-8-4.26c-3.06,0-5.46,1.32-5.46,3.42,0,1.92,1.32,2.94,4.08,3.6l6.66,1.62c3.78.9,6.84,2.94,6.84,7.14,0,4.92-4.62,8-11,8-5.52,0-10.62-2.28-12.78-6Z"/><path d="M663,140.56c1.86-4.14,6.06-7.26,12.24-7.26,6,0,9.6,2.58,9.6,7.86v12.9c0,2,1,2.82,2.34,2.82a5.34,5.34,0,0,0,2.88-1l.3,3.72a7.32,7.32,0,0,1-4.14,1.2,6,6,0,0,1-6.06-5.82c-1.26,3.3-5,5.76-9.78,5.76s-8.34-2.94-8.34-7.62,4.14-6.84,10.26-8.28l7.8-1.8V141c0-1.8-1.14-3.72-5-3.72-4.14,0-6.78,2.28-7.68,4.92Zm17.1,5.7-6.6,1.62c-4,1-6.48,2-6.48,5,0,2.28,1.5,4.08,4.56,4.08,4.62,0,8.52-3.48,8.52-7.32Z"/><path d="M715.76,170.32h-5V134h5v5.7a9.65,9.65,0,0,1,9.42-6.42c7.8,0,12.42,6.12,12.42,13.86S733,161,725.18,161a9.6,9.6,0,0,1-9.42-6.36Zm-.18-22.62c0,5.76,3.78,9.42,8.28,9.42,5.4,0,8.58-4,8.58-10s-3.18-10-8.58-10c-4.5,0-8.28,3.66-8.28,9.36Z"/><path d="M769.16,153.7c-2.1,4.62-6.24,7.26-12.24,7.26-7.86,0-13.62-5.4-13.62-13.44,0-8.28,5.76-14.22,13.38-14.22,8.4,0,12.6,6.12,12.6,12.9v1.56H748.22c0,5.7,4,9.3,8.82,9.3,4.38,0,6.9-1.92,8.28-5.64Zm-4.62-9.18a7.48,7.48,0,0,0-7.86-7.32,8.29,8.29,0,0,0-8.28,7.32Z"/><path d="M800.84,153.7c-2.1,4.62-6.24,7.26-12.24,7.26-7.86,0-13.62-5.4-13.62-13.44,0-8.28,5.76-14.22,13.38-14.22,8.4,0,12.6,6.12,12.6,12.9v1.56H779.9c0,5.7,4,9.3,8.82,9.3,4.38,0,6.9-1.92,8.28-5.64Zm-4.62-9.18a7.48,7.48,0,0,0-7.86-7.32,8.29,8.29,0,0,0-8.28,7.32Z"/><path d="M813.32,146.92v13.32h-5V134h5v6.3c1.14-3.42,4-7,8.82-7,5,0,7.8,3.72,7.8,8.52a5.77,5.77,0,0,1-.24,1.74l-4.26,1.32a8.16,8.16,0,0,0,.24-1.8c0-3.18-1.38-5.4-4.8-5.4C816.74,137.68,813.32,141.82,813.32,146.92Z"/><path d="M836,142.72h13.8v4.44H836Z"/><path d="M860.66,134v-7.26l4.92-1.5V134h11.16v3.78H865.58v13.8c0,3.6,2.16,5.16,4.5,5.16,3.12,0,4.44-1.74,5.94-4.74l2.52,3.48a9.75,9.75,0,0,1-8.82,5.46c-4.86,0-9.06-2.88-9.06-9V137.8H855.2V134Z"/><path d="M896.72,161a13.83,13.83,0,1,1,13.86-13.8A13.47,13.47,0,0,1,896.72,161Zm0-4c5.34,0,8.7-4,8.7-9.84s-3.36-9.9-8.7-9.9-8.64,4-8.64,9.9S891.44,157,896.72,157Z"/><path d="M917.72,142.72h13.8v4.44h-13.8Z"/><path d="M945.26,170.32h-5V134h5v5.7a9.65,9.65,0,0,1,9.42-6.42c7.8,0,12.42,6.12,12.42,13.86S962.48,161,954.68,161a9.6,9.6,0,0,1-9.42-6.36Zm-.18-22.62c0,5.76,3.78,9.42,8.28,9.42,5.4,0,8.58-4,8.58-10s-3.18-10-8.58-10c-4.5,0-8.28,3.66-8.28,9.36Z"/><path d="M998.66,153.7c-2.1,4.62-6.24,7.26-12.24,7.26-7.86,0-13.62-5.4-13.62-13.44,0-8.28,5.76-14.22,13.38-14.22,8.4,0,12.6,6.12,12.6,12.9v1.56H977.72c0,5.7,4,9.3,8.82,9.3,4.38,0,6.9-1.92,8.28-5.64ZM994,144.52a7.48,7.48,0,0,0-7.86-7.32,8.29,8.29,0,0,0-8.28,7.32Z"/><path d="M1030.34,153.7c-2.1,4.62-6.24,7.26-12.24,7.26-7.86,0-13.62-5.4-13.62-13.44,0-8.28,5.76-14.22,13.38-14.22,8.4,0,12.6,6.12,12.6,12.9v1.56H1009.4c0,5.7,4,9.3,8.82,9.3,4.38,0,6.9-1.92,8.28-5.64Zm-4.62-9.18a7.48,7.48,0,0,0-7.86-7.32,8.29,8.29,0,0,0-8.28,7.32Z"/><path d="M1042.82,146.92v13.32h-5V134h5v6.3c1.14-3.42,4-7,8.82-7,5,0,7.8,3.72,7.8,8.52a5.77,5.77,0,0,1-.24,1.74l-4.26,1.32a8.16,8.16,0,0,0,.24-1.8c0-3.18-1.38-5.4-4.8-5.4C1046.24,137.68,1042.82,141.82,1042.82,146.92Z"/><path d="M1086.32,170.32h-5V134h5v5.7a9.65,9.65,0,0,1,9.42-6.42c7.8,0,12.42,6.12,12.42,13.86s-4.62,13.8-12.42,13.8a9.6,9.6,0,0,1-9.42-6.36Zm-.18-22.62c0,5.76,3.78,9.42,8.28,9.42,5.4,0,8.58-4,8.58-10s-3.18-10-8.58-10c-4.5,0-8.28,3.66-8.28,9.36Z"/><path d="M1120.52,146.92v13.32h-5V134h5v6.3c1.14-3.42,4-7,8.82-7,5,0,7.8,3.72,7.8,8.52a5.77,5.77,0,0,1-.24,1.74l-4.26,1.32a8.16,8.16,0,0,0,.24-1.8c0-3.18-1.38-5.4-4.8-5.4C1123.94,137.68,1120.52,141.82,1120.52,146.92Z"/><path d="M1155,161a13.83,13.83,0,1,1,13.86-13.8A13.47,13.47,0,0,1,1155,161Zm0-4c5.34,0,8.7-4,8.7-9.84s-3.36-9.9-8.7-9.9-8.64,4-8.64,9.9S1149.68,157,1155,157Z"/><path d="M1187.12,171c-7.26,0-13.74-2.28-13.74-7.38,0-2.76,2.52-5,5.82-5.4-2.46-.72-3.84-2.4-3.84-4.62s1.56-4,3.9-4.92a8,8,0,0,1-3.12-6.54c0-5.4,4.44-8.88,10.8-8.88a12.57,12.57,0,0,1,7.56,2.28,7.81,7.81,0,0,1,8-4.26l.54,4.38c-2.4-.48-5.4.24-6.72,1.86a8.07,8.07,0,0,1,1.38,4.62c0,5.46-4.5,8.88-10.8,8.88a13.62,13.62,0,0,1-5.58-1.08,3,3,0,0,0-1.86,2.7c0,1.32,1,2.22,3.42,2.22h10c5.7,0,9.24,2.82,9.24,7C1202.12,168.46,1194.44,171,1187.12,171Zm0-3.3c5.76,0,10.26-1.62,10.26-5.22,0-2.52-2.52-3.42-5.7-3.42h-8.22c-2.82,0-5.4,1.38-5.4,3.9C1178.06,166.3,1182.14,167.74,1187.12,167.74Zm-.18-31.14c-3.3,0-5.94,2.22-5.94,5.58s2.64,5.64,5.94,5.64a5.55,5.55,0,0,0,5.88-5.64C1192.82,138.82,1190.24,136.6,1186.94,136.6Z"/><path d="M1213.22,146.92v13.32h-5V134h5v6.3c1.14-3.42,4-7,8.82-7,5,0,7.8,3.72,7.8,8.52a5.77,5.77,0,0,1-.24,1.74l-4.26,1.32a8.16,8.16,0,0,0,.24-1.8c0-3.18-1.38-5.4-4.8-5.4C1216.64,137.68,1213.22,141.82,1213.22,146.92Z"/><path d="M1235.12,140.56c1.86-4.14,6.06-7.26,12.24-7.26,6,0,9.6,2.58,9.6,7.86v12.9c0,2,1,2.82,2.34,2.82a5.34,5.34,0,0,0,2.88-1l.3,3.72a7.32,7.32,0,0,1-4.14,1.2,6,6,0,0,1-6.06-5.82c-1.26,3.3-5,5.76-9.78,5.76s-8.34-2.94-8.34-7.62,4.14-6.84,10.26-8.28l7.8-1.8V141c0-1.8-1.14-3.72-5-3.72-4.14,0-6.78,2.28-7.68,4.92Zm17.1,5.7-6.6,1.62c-4,1-6.48,2-6.48,5,0,2.28,1.5,4.08,4.56,4.08,4.62,0,8.52-3.48,8.52-7.32Z"/><path d="M1300.52,133.3c6.6,0,9.48,4.56,9.48,10.68v16.26h-5v-15.6c0-4.38-2.16-7.14-6.3-7.14s-7.32,3.42-7.32,8.58v14.16h-5v-15.6c0-4.38-2.22-7.14-6.3-7.14s-7.38,3.42-7.38,8.58v14.16h-5V134h5v5.34a9.56,9.56,0,0,1,9.12-6.06c4.86,0,7.68,2.52,8.82,6.36C1291.82,136.36,1295.36,133.3,1300.52,133.3Z"/><path d="M1336.46,134v-7.26l4.92-1.5V134h11.16v3.78h-11.16v13.8c0,3.6,2.16,5.16,4.5,5.16,3.12,0,4.44-1.74,5.94-4.74l2.52,3.48a9.75,9.75,0,0,1-8.82,5.46c-4.86,0-9.06-2.88-9.06-9V137.8H1331V134Z"/><path d="M1365.68,139.36a9.87,9.87,0,0,1,9.42-6.06c6.9,0,9.84,4.56,9.84,10.68v16.26h-5v-15.6c0-4.38-2.28-7.14-6.6-7.14s-7.68,3.42-7.68,8.58v14.16h-5v-37.8h5Z"/><path d="M1393,140.56c1.86-4.14,6.06-7.26,12.24-7.26,6,0,9.6,2.58,9.6,7.86v12.9c0,2,1,2.82,2.34,2.82a5.34,5.34,0,0,0,2.88-1l.3,3.72a7.32,7.32,0,0,1-4.14,1.2,6,6,0,0,1-6.06-5.82c-1.26,3.3-5,5.76-9.78,5.76s-8.34-2.94-8.34-7.62,4.14-6.84,10.26-8.28l7.8-1.8V141c0-1.8-1.14-3.72-5-3.72-4.14,0-6.78,2.28-7.68,4.92Zm17.1,5.7-6.6,1.62c-4,1-6.48,2-6.48,5,0,2.28,1.5,4.08,4.56,4.08,4.62,0,8.52-3.48,8.52-7.32Z"/><path d="M1427.48,134v-7.26l4.92-1.5V134h11.16v3.78H1432.4v13.8c0,3.6,2.16,5.16,4.5,5.16,3.12,0,4.44-1.74,5.94-4.74l2.52,3.48a9.75,9.75,0,0,1-8.82,5.46c-4.86,0-9.06-2.88-9.06-9V137.8H1422V134Z"/><path d="M1467.38,151.66c1.86,3.54,5.88,5.46,9.84,5.46,3.78,0,6.3-1.14,6.3-3.78,0-1.92-1.5-2.88-4.14-3.54l-5.88-1.38c-4.26-1-7.5-2.94-7.5-7.38,0-4.62,4.38-7.74,10.14-7.74,5.22,0,9.18,2,11.16,5.4l-3.12,2.76a8.87,8.87,0,0,0-8-4.26c-3.06,0-5.46,1.32-5.46,3.42,0,1.92,1.32,2.94,4.08,3.6l6.66,1.62c3.78.9,6.84,2.94,6.84,7.14,0,4.92-4.62,8-11,8-5.52,0-10.62-2.28-12.78-6Z"/><path d="M1504.22,160.18,1492.4,134h5.46l8.76,20.22h.24L1514.6,134h4.86l-11.22,28c-2.1,5-4.44,9.06-9.48,9.06a6.49,6.49,0,0,1-6.9-6.06l4-2.1c0,2.64,1,4.14,3.18,4.14,1.86,0,2.94-1.5,4.14-4.5Z"/><path d="M1530.62,160.24h-5V134h5v5.34a9.87,9.87,0,0,1,9.42-6.06c6.9,0,9.84,4.56,9.84,10.68v16.26h-5v-15.6c0-4.38-2.28-7.14-6.6-7.14s-7.68,3.42-7.68,8.58Z"/><path d="M1582,153.1c-1.44,4.32-5.34,7.86-11.76,7.86-7.92,0-13.56-5.64-13.56-13.8s5.64-13.86,13.74-13.86c5.88,0,9.6,3,11.28,7.08l-4,2.4c-1.08-3.06-3.42-5.4-7.2-5.4-5.16,0-8.64,3.72-8.64,9.78s3.48,9.72,8.52,9.72c4.08,0,6.54-2.46,7.56-5.82Z"/><path d="M1590.14,151.66c1.86,3.54,5.88,5.46,9.84,5.46,3.78,0,6.3-1.14,6.3-3.78,0-1.92-1.5-2.88-4.14-3.54l-5.88-1.38c-4.26-1-7.5-2.94-7.5-7.38,0-4.62,4.38-7.74,10.14-7.74,5.22,0,9.18,2,11.16,5.4l-3.12,2.76a8.87,8.87,0,0,0-8-4.26c-3.06,0-5.46,1.32-5.46,3.42,0,1.92,1.32,2.94,4.08,3.6l6.66,1.62c3.78.9,6.84,2.94,6.84,7.14,0,4.92-4.62,8-11,8-5.52,0-10.62-2.28-12.78-6Z"/><path d="M1659.2,153.94h.24l6.24-19.92h4.68l-8.46,26.22h-4.8l-6.48-19.62h-.24L1644,160.24h-4.8L1630.64,134h4.92l6.3,19.92h.24l6.36-19.92h4.26Z"/><path d="M1676.18,122.44h5.7V128h-5.7Zm5.34,11.58v26.22h-5V134Z"/><path d="M1693.1,134v-7.26l4.92-1.5V134h11.16v3.78H1698v13.8c0,3.6,2.16,5.16,4.5,5.16,3.12,0,4.44-1.74,5.94-4.74l2.52,3.48a9.75,9.75,0,0,1-8.82,5.46c-4.86,0-9.06-2.88-9.06-9V137.8h-5.46V134Z"/><path d="M1722.32,139.36a9.87,9.87,0,0,1,9.42-6.06c6.9,0,9.84,4.56,9.84,10.68v16.26h-5v-15.6c0-4.38-2.28-7.14-6.6-7.14s-7.68,3.42-7.68,8.58v14.16h-5v-37.8h5Z"/><path d="M142.46,208.16c1.86-4.14,6.06-7.26,12.24-7.26,6,0,9.6,2.58,9.6,7.86v12.9c0,2,1,2.82,2.34,2.82a5.34,5.34,0,0,0,2.88-1l.3,3.72a7.32,7.32,0,0,1-4.14,1.2,6,6,0,0,1-6.06-5.82c-1.26,3.3-5,5.76-9.78,5.76s-8.34-2.94-8.34-7.62,4.14-6.84,10.26-8.28l7.8-1.8v-2.1c0-1.8-1.14-3.72-5-3.72-4.14,0-6.78,2.28-7.68,4.92Zm17.1,5.7-6.6,1.62c-4,1-6.48,2-6.48,5,0,2.28,1.5,4.08,4.56,4.08,4.62,0,8.52-3.48,8.52-7.32Z"/><path d="M180.08,227.84h-5V201.62h5V207a9.87,9.87,0,0,1,9.42-6.06c6.9,0,9.84,4.56,9.84,10.68v16.26h-5v-15.6c0-4.38-2.28-7.14-6.6-7.14s-7.68,3.42-7.68,8.58Z"/><path d="M216.68,227.78l-11.82-26.16h5.46l8.76,20.22h.24l7.74-20.22h4.86l-11.22,28c-2.1,5-4.44,9.06-9.48,9.06a6.49,6.49,0,0,1-6.9-6.06l4-2.1c0,2.64,1,4.14,3.18,4.14,1.86,0,2.94-1.5,4.14-4.5Z"/><path d="M249.26,228.56a13.83,13.83,0,1,1,13.86-13.8A13.47,13.47,0,0,1,249.26,228.56Zm0-4c5.34,0,8.7-4,8.7-9.84s-3.36-9.9-8.7-9.9-8.64,4-8.64,9.9S244,224.6,249.26,224.6Z"/><path d="M275.6,227.84h-5V201.62h5V207A9.87,9.87,0,0,1,285,200.9c6.9,0,9.84,4.56,9.84,10.68v16.26h-5v-15.6c0-4.38-2.28-7.14-6.6-7.14s-7.68,3.42-7.68,8.58Z"/><path d="M328,221.3c-2.1,4.62-6.24,7.26-12.24,7.26-7.86,0-13.62-5.4-13.62-13.44,0-8.28,5.76-14.22,13.38-14.22,8.4,0,12.6,6.12,12.6,12.9v1.56H307c0,5.7,4,9.3,8.82,9.3,4.38,0,6.9-1.92,8.28-5.64Zm-4.62-9.18a7.48,7.48,0,0,0-7.86-7.32,8.29,8.29,0,0,0-8.28,7.32Z"/><path d="M376,221.54h.24l6.24-19.92h4.68l-8.46,26.22h-4.8l-6.48-19.62h-.24l-6.42,19.62h-4.8l-8.52-26.22h4.92l6.3,19.92h.24l6.36-19.92h4.26Z"/><path d="M398.3,207a9.87,9.87,0,0,1,9.42-6.06c6.9,0,9.84,4.56,9.84,10.68v16.26h-5v-15.6c0-4.38-2.28-7.14-6.6-7.14s-7.68,3.42-7.68,8.58v14.16h-5V190h5Z"/><path d="M438.62,228.56a13.83,13.83,0,1,1,13.86-13.8A13.47,13.47,0,0,1,438.62,228.56Zm0-4c5.34,0,8.7-4,8.7-9.84s-3.36-9.9-8.7-9.9-8.64,4-8.64,9.9S433.34,224.6,438.62,224.6Z"/><path d="M498,220.7c-1.44,4.32-5.34,7.86-11.76,7.86-7.92,0-13.56-5.64-13.56-13.8s5.64-13.86,13.74-13.86c5.88,0,9.6,3,11.28,7.08l-4,2.4c-1.08-3.06-3.42-5.4-7.2-5.4-5.16,0-8.64,3.72-8.64,9.78s3.48,9.72,8.52,9.72c4.08,0,6.54-2.46,7.56-5.82Z"/><path d="M510.32,190v37.8h-5V190Z"/><path d="M531.62,228.56a13.83,13.83,0,1,1,13.86-13.8A13.47,13.47,0,0,1,531.62,228.56Zm0-4c5.34,0,8.7-4,8.7-9.84s-3.36-9.9-8.7-9.9-8.64,4-8.64,9.9S526.34,224.6,531.62,224.6Z"/><path d="M558,227.84h-5V201.62h5V207a9.87,9.87,0,0,1,9.42-6.06c6.9,0,9.84,4.56,9.84,10.68v16.26h-5v-15.6c0-4.38-2.28-7.14-6.6-7.14s-7.68,3.42-7.68,8.58Z"/><path d="M610.34,221.3c-2.1,4.62-6.24,7.26-12.24,7.26-7.86,0-13.62-5.4-13.62-13.44,0-8.28,5.76-14.22,13.38-14.22,8.4,0,12.6,6.12,12.6,12.9v1.56H589.4c0,5.7,4,9.3,8.82,9.3,4.38,0,6.9-1.92,8.28-5.64Zm-4.62-9.18a7.48,7.48,0,0,0-7.86-7.32,8.29,8.29,0,0,0-8.28,7.32Z"/><path d="M618.74,219.26c1.86,3.54,5.88,5.46,9.84,5.46,3.78,0,6.3-1.14,6.3-3.78,0-1.92-1.5-2.88-4.14-3.54L624.86,216c-4.26-1-7.5-2.94-7.5-7.38,0-4.62,4.38-7.74,10.14-7.74,5.22,0,9.18,2,11.16,5.4l-3.12,2.76a8.87,8.87,0,0,0-8-4.26c-3.06,0-5.46,1.32-5.46,3.42,0,1.92,1.32,2.94,4.08,3.6l6.66,1.62c3.78.9,6.84,2.94,6.84,7.14,0,4.92-4.62,8-11,8-5.52,0-10.62-2.28-12.78-6Z"/><path d="M671,227.78l-11.82-26.16h5.46l8.76,20.22h.24l7.74-20.22h4.86l-11.22,28c-2.1,5-4.44,9.06-9.48,9.06a6.49,6.49,0,0,1-6.9-6.06l4-2.1c0,2.64,1,4.14,3.18,4.14,1.86,0,2.94-1.5,4.14-4.5Z"/><path d="M703.58,228.56a13.83,13.83,0,1,1,13.86-13.8A13.47,13.47,0,0,1,703.58,228.56Zm0-4c5.34,0,8.7-4,8.7-9.84s-3.36-9.9-8.7-9.9-8.64,4-8.64,9.9S698.3,224.6,703.58,224.6Z"/><path d="M743.84,201.62h5v26.22h-5V222.5a9.93,9.93,0,0,1-9.42,6.06c-6.9,0-9.72-4.56-9.72-10.62V201.62h5v15.6c0,4.44,2.16,7.2,6.42,7.2,4.44,0,7.74-3.48,7.74-8.58Z"/><path d="M763.16,214.52v13.32h-5V201.62h5v6.3c1.14-3.42,4-7,8.82-7,5,0,7.8,3.72,7.8,8.52a5.77,5.77,0,0,1-.24,1.74l-4.26,1.32a8.16,8.16,0,0,0,.24-1.8c0-3.18-1.38-5.4-4.8-5.4C766.58,205.28,763.16,209.42,763.16,214.52Z"/><path d="M813.5,228.56a13.83,13.83,0,1,1,13.86-13.8A13.47,13.47,0,0,1,813.5,228.56Zm0-4c5.34,0,8.7-4,8.7-9.84s-3.36-9.9-8.7-9.9-8.64,4-8.64,9.9S808.22,224.6,813.5,224.6Z"/><path d="M839.84,237.92h-5v-36.3h5v5.7a9.65,9.65,0,0,1,9.42-6.42c7.8,0,12.42,6.12,12.42,13.86s-4.62,13.8-12.42,13.8a9.6,9.6,0,0,1-9.42-6.36Zm-.18-22.62c0,5.76,3.78,9.42,8.28,9.42,5.4,0,8.58-4,8.58-10s-3.18-10-8.58-10c-4.5,0-8.28,3.66-8.28,9.36Z"/><path d="M893.24,221.3c-2.1,4.62-6.24,7.26-12.24,7.26-7.86,0-13.62-5.4-13.62-13.44,0-8.28,5.76-14.22,13.38-14.22,8.4,0,12.6,6.12,12.6,12.9v1.56H872.3c0,5.7,4,9.3,8.82,9.3,4.38,0,6.9-1.92,8.28-5.64Zm-4.62-9.18a7.48,7.48,0,0,0-7.86-7.32,8.29,8.29,0,0,0-8.28,7.32Z"/><path d="M905.84,227.84h-5V201.62h5V207a9.87,9.87,0,0,1,9.42-6.06c6.9,0,9.84,4.56,9.84,10.68v16.26h-5v-15.6c0-4.38-2.28-7.14-6.6-7.14s-7.68,3.42-7.68,8.58Z"/><path d="M950,219.26c1.86,3.54,5.88,5.46,9.84,5.46,3.78,0,6.3-1.14,6.3-3.78,0-1.92-1.5-2.88-4.14-3.54L956.12,216c-4.26-1-7.5-2.94-7.5-7.38,0-4.62,4.38-7.74,10.14-7.74,5.22,0,9.18,2,11.16,5.4l-3.12,2.76a8.87,8.87,0,0,0-8-4.26c-3.06,0-5.46,1.32-5.46,3.42,0,1.92,1.32,2.94,4.08,3.6l6.66,1.62c3.78.9,6.84,2.94,6.84,7.14,0,4.92-4.62,8-11,8-5.52,0-10.62-2.28-12.78-6Z"/><path d="M990.56,228.56a13.83,13.83,0,1,1,13.86-13.8A13.47,13.47,0,0,1,990.56,228.56Zm0-4c5.34,0,8.7-4,8.7-9.84s-3.36-9.9-8.7-9.9-8.64,4-8.64,9.9S985.28,224.6,990.56,224.6Z"/><path d="M1030.82,201.62h5v26.22h-5V222.5a9.93,9.93,0,0,1-9.42,6.06c-6.9,0-9.72-4.56-9.72-10.62V201.62h5v15.6c0,4.44,2.16,7.2,6.42,7.2,4.44,0,7.74-3.48,7.74-8.58Z"/><path d="M1050.14,214.52v13.32h-5V201.62h5v6.3c1.14-3.42,4-7,8.82-7,5,0,7.8,3.72,7.8,8.52a5.77,5.77,0,0,1-.24,1.74l-4.26,1.32a8.16,8.16,0,0,0,.24-1.8c0-3.18-1.38-5.4-4.8-5.4C1053.56,205.28,1050.14,209.42,1050.14,214.52Z"/><path d="M1095.68,220.7c-1.44,4.32-5.34,7.86-11.76,7.86-7.92,0-13.56-5.64-13.56-13.8s5.64-13.86,13.74-13.86c5.88,0,9.6,3,11.28,7.08l-4,2.4c-1.08-3.06-3.42-5.4-7.2-5.4-5.16,0-8.64,3.72-8.64,9.78s3.48,9.72,8.52,9.72c4.08,0,6.54-2.46,7.56-5.82Z"/><path d="M1127.06,221.3c-2.1,4.62-6.24,7.26-12.24,7.26-7.86,0-13.62-5.4-13.62-13.44,0-8.28,5.76-14.22,13.38-14.22,8.4,0,12.6,6.12,12.6,12.9v1.56h-21.06c0,5.7,4,9.3,8.82,9.3,4.38,0,6.9-1.92,8.28-5.64Zm-4.62-9.18a7.48,7.48,0,0,0-7.86-7.32,8.29,8.29,0,0,0-8.28,7.32Z"/><path d="M1154.78,237.92h-5v-36.3h5v5.7a9.65,9.65,0,0,1,9.42-6.42c7.8,0,12.42,6.12,12.42,13.86s-4.62,13.8-12.42,13.8a9.6,9.6,0,0,1-9.42-6.36Zm-.18-22.62c0,5.76,3.78,9.42,8.28,9.42,5.4,0,8.58-4,8.58-10s-3.18-10-8.58-10c-4.5,0-8.28,3.66-8.28,9.36Z"/><path d="M1189,214.52v13.32h-5V201.62h5v6.3c1.14-3.42,4-7,8.82-7,5,0,7.8,3.72,7.8,8.52a5.77,5.77,0,0,1-.24,1.74l-4.26,1.32a8.16,8.16,0,0,0,.24-1.8c0-3.18-1.38-5.4-4.8-5.4C1192.4,205.28,1189,209.42,1189,214.52Z"/><path d="M1223.42,228.56a13.83,13.83,0,1,1,13.86-13.8A13.47,13.47,0,0,1,1223.42,228.56Zm0-4c5.34,0,8.7-4,8.7-9.84s-3.36-9.9-8.7-9.9-8.64,4-8.64,9.9S1218.14,224.6,1223.42,224.6Z"/><path d="M1249.76,231.44c0,4.62-2.28,7.2-7,7.2a10.27,10.27,0,0,1-5.88-1.92l1.26-3.12a6.87,6.87,0,0,0,4.14,1.38c1.56,0,2.46-.9,2.46-2.88V201.62h5Zm-5.34-35.88V190h5.7v5.52Z"/><path d="M1283.12,221.3c-2.1,4.62-6.24,7.26-12.24,7.26-7.86,0-13.62-5.4-13.62-13.44,0-8.28,5.76-14.22,13.38-14.22,8.4,0,12.6,6.12,12.6,12.9v1.56h-21.06c0,5.7,4,9.3,8.82,9.3,4.38,0,6.9-1.92,8.28-5.64Zm-4.62-9.18a7.48,7.48,0,0,0-7.86-7.32,8.29,8.29,0,0,0-8.28,7.32Z"/><path d="M1313.84,220.7c-1.44,4.32-5.34,7.86-11.76,7.86-7.92,0-13.56-5.64-13.56-13.8s5.64-13.86,13.74-13.86c5.88,0,9.6,3,11.28,7.08l-4,2.4c-1.08-3.06-3.42-5.4-7.2-5.4-5.16,0-8.64,3.72-8.64,9.78s3.48,9.72,8.52,9.72c4.08,0,6.54-2.46,7.56-5.82Z"/><path d="M1323.26,201.62v-7.26l4.92-1.5v8.76h11.16v3.78h-11.16v13.8c0,3.6,2.16,5.16,4.5,5.16,3.12,0,4.44-1.74,5.94-4.74l2.52,3.48a9.75,9.75,0,0,1-8.82,5.46c-4.86,0-9.06-2.88-9.06-9V205.4h-5.46v-3.78Z"/><path d="M1348,221.48h6.36v6.36H1348Z"/><path d="M156.62,363V329.8H141.26v-4.56h36.18v4.56H161.9V363Z"/><path d="M178.46,343.36c1.86-4.14,6.06-7.26,12.24-7.26,6,0,9.6,2.58,9.6,7.86v12.9c0,2,1,2.82,2.34,2.82a5.34,5.34,0,0,0,2.88-1l.3,3.72a7.32,7.32,0,0,1-4.14,1.2,6,6,0,0,1-6.06-5.82c-1.26,3.3-5,5.76-9.78,5.76s-8.34-2.94-8.34-7.62,4.14-6.84,10.26-8.28l7.8-1.8v-2.1c0-1.8-1.14-3.72-5-3.72-4.14,0-6.78,2.28-7.68,4.92Zm17.1,5.7-6.6,1.62c-4,1-6.48,2-6.48,5,0,2.28,1.5,4.08,4.56,4.08,4.62,0,8.52-3.48,8.52-7.32Z"/><path d="M216.08,363h-5v-37.8h5v23.82l14.22-12.24h6.12l-12.3,10.26L237,363h-5.82l-10.56-13-4.5,3.84Z"/><path d="M242.36,325.24h5.7v5.52h-5.7Zm5.34,11.58V363h-5V336.82Z"/><path d="M262.16,363h-5V336.82h5v5.34a9.87,9.87,0,0,1,9.42-6.06c6.9,0,9.84,4.56,9.84,10.68V363h-5v-15.6c0-4.38-2.28-7.14-6.6-7.14s-7.68,3.42-7.68,8.58Z"/><path d="M301.46,373.84c-7.26,0-13.74-2.28-13.74-7.38,0-2.76,2.52-5,5.82-5.4-2.46-.72-3.84-2.4-3.84-4.62s1.56-4,3.9-4.92a8,8,0,0,1-3.12-6.54c0-5.4,4.44-8.88,10.8-8.88a12.57,12.57,0,0,1,7.56,2.28,7.81,7.81,0,0,1,8-4.26l.54,4.38c-2.4-.48-5.4.24-6.72,1.86a8.07,8.07,0,0,1,1.38,4.62c0,5.46-4.5,8.88-10.8,8.88a13.62,13.62,0,0,1-5.58-1.08,3,3,0,0,0-1.86,2.7c0,1.32,1,2.22,3.42,2.22h10c5.7,0,9.24,2.82,9.24,7C316.46,371.26,308.78,373.84,301.46,373.84Zm0-3.3c5.76,0,10.26-1.62,10.26-5.22,0-2.52-2.52-3.42-5.7-3.42H297.8c-2.82,0-5.4,1.38-5.4,3.9C292.4,369.1,296.48,370.54,301.46,370.54Zm-.18-31.14c-3.3,0-5.94,2.22-5.94,5.58s2.64,5.64,5.94,5.64a5.55,5.55,0,0,0,5.88-5.64C307.16,341.62,304.58,339.4,301.28,339.4Z"/><path d="M337.46,325.24h5.7v5.52h-5.7Zm5.34,11.58V363h-5V336.82Z"/><path d="M357.26,363h-5V336.82h5v5.34a9.87,9.87,0,0,1,9.42-6.06c6.9,0,9.84,4.56,9.84,10.68V363h-5v-15.6c0-4.38-2.28-7.14-6.6-7.14s-7.68,3.42-7.68,8.58Z"/><path d="M386.3,354.46c1.86,3.54,5.88,5.46,9.84,5.46,3.78,0,6.3-1.14,6.3-3.78,0-1.92-1.5-2.88-4.14-3.54l-5.88-1.38c-4.26-1-7.5-2.94-7.5-7.38,0-4.62,4.38-7.74,10.14-7.74,5.22,0,9.18,2,11.16,5.4l-3.12,2.76a8.87,8.87,0,0,0-8-4.26c-3.06,0-5.46,1.32-5.46,3.42,0,1.92,1.32,2.94,4.08,3.6l6.66,1.62c3.78.9,6.84,2.94,6.84,7.14,0,4.92-4.62,8-11,8-5.52,0-10.62-2.28-12.78-6Z"/><path d="M420,373.12h-5v-36.3h5v5.7a9.65,9.65,0,0,1,9.42-6.42c7.8,0,12.42,6.12,12.42,13.86s-4.62,13.8-12.42,13.8A9.6,9.6,0,0,1,420,357.4Zm-.18-22.62c0,5.76,3.78,9.42,8.28,9.42,5.4,0,8.58-4,8.58-10s-3.18-10-8.58-10c-4.5,0-8.28,3.66-8.28,9.36Z"/><path d="M448.94,325.24h5.7v5.52h-5.7Zm5.34,11.58V363h-5V336.82Z"/><path d="M468.62,349.72V363h-5V336.82h5v6.3c1.14-3.42,4-7,8.82-7,5,0,7.8,3.72,7.8,8.52a5.77,5.77,0,0,1-.24,1.74l-4.26,1.32a8.15,8.15,0,0,0,.24-1.8c0-3.18-1.38-5.4-4.8-5.4C472,340.48,468.62,344.62,468.62,349.72Z"/><path d="M490.52,343.36c1.86-4.14,6.06-7.26,12.24-7.26,6,0,9.6,2.58,9.6,7.86v12.9c0,2,1,2.82,2.34,2.82a5.34,5.34,0,0,0,2.88-1l.3,3.72a7.32,7.32,0,0,1-4.14,1.2,6,6,0,0,1-6.06-5.82c-1.26,3.3-5,5.76-9.78,5.76s-8.34-2.94-8.34-7.62,4.14-6.84,10.26-8.28l7.8-1.8v-2.1c0-1.8-1.14-3.72-5-3.72-4.14,0-6.78,2.28-7.68,4.92Zm17.1,5.7-6.6,1.62c-4,1-6.48,2-6.48,5,0,2.28,1.5,4.08,4.56,4.08,4.62,0,8.52-3.48,8.52-7.32Z"/><path d="M525,336.82v-7.26l4.92-1.5v8.76H541v3.78H529.88v13.8c0,3.6,2.16,5.16,4.5,5.16,3.12,0,4.44-1.74,5.94-4.74l2.52,3.48a9.75,9.75,0,0,1-8.82,5.46c-4.86,0-9.06-2.88-9.06-9V340.6H519.5v-3.78Z"/><path d="M548.84,325.24h5.7v5.52h-5.7Zm5.34,11.58V363h-5V336.82Z"/><path d="M575.48,363.76A13.83,13.83,0,1,1,589.34,350,13.47,13.47,0,0,1,575.48,363.76Zm0-4c5.34,0,8.7-4,8.7-9.84s-3.36-9.9-8.7-9.9-8.64,4-8.64,9.9S570.2,359.8,575.48,359.8Z"/><path d="M601.82,363h-5V336.82h5v5.34a9.87,9.87,0,0,1,9.42-6.06c6.9,0,9.84,4.56,9.84,10.68V363h-5v-15.6c0-4.38-2.28-7.14-6.6-7.14s-7.68,3.42-7.68,8.58Z"/><path d="M642,340.6v-3.78h4.56v-2.28c0-6.24,4.32-10,10.32-10,4.62,0,7.56,2.1,8.7,5.34l-3.24,2.28a5,5,0,0,0-5.22-3.84c-3.36,0-5.64,2.1-5.64,6.42v2.1h7.38v3.78H651.5V363h-4.92V340.6Z"/><path d="M670.46,349.72V363h-5V336.82h5v6.3c1.14-3.42,4-7,8.82-7,5,0,7.8,3.72,7.8,8.52a5.77,5.77,0,0,1-.24,1.74l-4.26,1.32a8.15,8.15,0,0,0,.24-1.8c0-3.18-1.38-5.4-4.8-5.4C673.88,340.48,670.46,344.62,670.46,349.72Z"/><path d="M704.9,363.76A13.83,13.83,0,1,1,718.76,350,13.47,13.47,0,0,1,704.9,363.76Zm0-4c5.34,0,8.7-4,8.7-9.84s-3.36-9.9-8.7-9.9-8.64,4-8.64,9.9S699.62,359.8,704.9,359.8Z"/><path d="M759,336.1c6.6,0,9.48,4.56,9.48,10.68V363h-5v-15.6c0-4.38-2.16-7.14-6.3-7.14s-7.32,3.42-7.32,8.58V363h-5v-15.6c0-4.38-2.22-7.14-6.3-7.14s-7.38,3.42-7.38,8.58V363h-5V336.82h5v5.34a9.56,9.56,0,0,1,9.12-6.06c4.86,0,7.68,2.52,8.82,6.36C750.32,339.16,753.86,336.1,759,336.1Z"/><path d="M795,336.82v-7.26l4.92-1.5v8.76H811v3.78H799.88v13.8c0,3.6,2.16,5.16,4.5,5.16,3.12,0,4.44-1.74,5.94-4.74l2.52,3.48a9.75,9.75,0,0,1-8.82,5.46c-4.86,0-9.06-2.88-9.06-9V340.6H789.5v-3.78Z"/><path d="M824.18,342.16a9.87,9.87,0,0,1,9.42-6.06c6.9,0,9.84,4.56,9.84,10.68V363h-5v-15.6c0-4.38-2.28-7.14-6.6-7.14s-7.68,3.42-7.68,8.58V363h-5v-37.8h5Z"/><path d="M876.56,356.5c-2.1,4.62-6.24,7.26-12.24,7.26-7.86,0-13.62-5.4-13.62-13.44,0-8.28,5.76-14.22,13.38-14.22,8.4,0,12.6,6.12,12.6,12.9v1.56H855.62c0,5.7,4,9.3,8.82,9.3,4.38,0,6.9-1.92,8.28-5.64Zm-4.62-9.18a7.48,7.48,0,0,0-7.86-7.32,8.29,8.29,0,0,0-8.28,7.32Z"/><path d="M911.12,363.76A13.83,13.83,0,1,1,925,350,13.47,13.47,0,0,1,911.12,363.76Zm0-4c5.34,0,8.7-4,8.7-9.84s-3.36-9.9-8.7-9.9-8.64,4-8.64,9.9S905.84,359.8,911.12,359.8Z"/><path d="M937.34,349.72V363h-5V336.82h5v6.3c1.14-3.42,4-7,8.82-7,5,0,7.8,3.72,7.8,8.52a5.77,5.77,0,0,1-.24,1.74l-4.26,1.32a8.15,8.15,0,0,0,.24-1.8c0-3.18-1.38-5.4-4.8-5.4C940.76,340.48,937.34,344.62,937.34,349.72Z"/><path d="M960.38,325.24h5.7v5.52h-5.7Zm5.34,11.58V363h-5V336.82Z"/><path d="M986,373.84c-7.26,0-13.74-2.28-13.74-7.38,0-2.76,2.52-5,5.82-5.4-2.46-.72-3.84-2.4-3.84-4.62s1.56-4,3.9-4.92A8,8,0,0,1,975,345c0-5.4,4.44-8.88,10.8-8.88a12.57,12.57,0,0,1,7.56,2.28,7.81,7.81,0,0,1,8-4.26l.54,4.38c-2.4-.48-5.4.24-6.72,1.86a8.07,8.07,0,0,1,1.38,4.62c0,5.46-4.5,8.88-10.8,8.88a13.62,13.62,0,0,1-5.58-1.08,3,3,0,0,0-1.86,2.7c0,1.32,1,2.22,3.42,2.22h10c5.7,0,9.24,2.82,9.24,7C1001,371.26,993.32,373.84,986,373.84Zm0-3.3c5.76,0,10.26-1.62,10.26-5.22,0-2.52-2.52-3.42-5.7-3.42h-8.22c-2.82,0-5.4,1.38-5.4,3.9C976.94,369.1,981,370.54,986,370.54Zm-.18-31.14c-3.3,0-5.94,2.22-5.94,5.58s2.64,5.64,5.94,5.64A5.55,5.55,0,0,0,991.7,345C991.7,341.62,989.12,339.4,985.82,339.4Z"/><path d="M1006.88,325.24h5.7v5.52h-5.7Zm5.34,11.58V363h-5V336.82Z"/><path d="M1026.68,363h-5V336.82h5v5.34a9.87,9.87,0,0,1,9.42-6.06c6.9,0,9.84,4.56,9.84,10.68V363h-5v-15.6c0-4.38-2.28-7.14-6.6-7.14s-7.68,3.42-7.68,8.58Z"/><path d="M1054,343.36c1.86-4.14,6.06-7.26,12.24-7.26,6,0,9.6,2.58,9.6,7.86v12.9c0,2,1,2.82,2.34,2.82a5.34,5.34,0,0,0,2.88-1l.3,3.72a7.32,7.32,0,0,1-4.14,1.2,6,6,0,0,1-6.06-5.82c-1.26,3.3-5,5.76-9.78,5.76s-8.34-2.94-8.34-7.62,4.14-6.84,10.26-8.28l7.8-1.8v-2.1c0-1.8-1.14-3.72-5-3.72-4.14,0-6.78,2.28-7.68,4.92Zm17.1,5.7-6.6,1.62c-4,1-6.48,2-6.48,5,0,2.28,1.5,4.08,4.56,4.08,4.62,0,8.52-3.48,8.52-7.32Z"/><path d="M1091.66,325.24V363h-5v-37.8Z"/><path d="M1127.06,373.84c-7.26,0-13.74-2.28-13.74-7.38,0-2.76,2.52-5,5.82-5.4-2.46-.72-3.84-2.4-3.84-4.62s1.56-4,3.9-4.92a8,8,0,0,1-3.12-6.54c0-5.4,4.44-8.88,10.8-8.88a12.57,12.57,0,0,1,7.56,2.28,7.81,7.81,0,0,1,8-4.26l.54,4.38c-2.4-.48-5.4.24-6.72,1.86a8.07,8.07,0,0,1,1.38,4.62c0,5.46-4.5,8.88-10.8,8.88a13.62,13.62,0,0,1-5.58-1.08,3,3,0,0,0-1.86,2.7c0,1.32,1,2.22,3.42,2.22h10c5.7,0,9.24,2.82,9.24,7C1142.06,371.26,1134.38,373.84,1127.06,373.84Zm0-3.3c5.76,0,10.26-1.62,10.26-5.22,0-2.52-2.52-3.42-5.7-3.42h-8.22c-2.82,0-5.4,1.38-5.4,3.9C1118,369.1,1122.08,370.54,1127.06,370.54Zm-.18-31.14c-3.3,0-5.94,2.22-5.94,5.58s2.64,5.64,5.94,5.64a5.55,5.55,0,0,0,5.88-5.64C1132.76,341.62,1130.18,339.4,1126.88,339.4Z"/><path d="M1147.94,325.24h5.7v5.52h-5.7Zm5.34,11.58V363h-5V336.82Z"/><path d="M1164.86,336.82v-7.26l4.92-1.5v8.76h11.16v3.78h-11.16v13.8c0,3.6,2.16,5.16,4.5,5.16,3.12,0,4.44-1.74,5.94-4.74l2.52,3.48a9.75,9.75,0,0,1-8.82,5.46c-4.86,0-9.06-2.88-9.06-9V340.6h-5.46v-3.78Z"/><path d="M1237,336.1c6.6,0,9.48,4.56,9.48,10.68V363h-5v-15.6c0-4.38-2.16-7.14-6.3-7.14s-7.32,3.42-7.32,8.58V363h-5v-15.6c0-4.38-2.22-7.14-6.3-7.14s-7.38,3.42-7.38,8.58V363h-5V336.82h5v5.34a9.56,9.56,0,0,1,9.12-6.06c4.86,0,7.68,2.52,8.82,6.36C1228.28,339.16,1231.82,336.1,1237,336.1Z"/><path d="M1267.52,363.76a13.83,13.83,0,1,1,13.86-13.8A13.47,13.47,0,0,1,1267.52,363.76Zm0-4c5.34,0,8.7-4,8.7-9.84s-3.36-9.9-8.7-9.9-8.64,4-8.64,9.9S1262.24,359.8,1267.52,359.8Z"/><path d="M1308.92,357.4a9.6,9.6,0,0,1-9.42,6.36c-7.8,0-12.42-6.12-12.42-13.8s4.62-13.86,12.42-13.86a9.64,9.64,0,0,1,9.42,6.42V325.24h5V363h-5Zm.18-8c0-5.7-3.78-9.36-8.34-9.36-5.34,0-8.52,4-8.52,10s3.18,10,8.52,10c4.56,0,8.34-3.66,8.34-9.42Z"/><path d="M1347.26,356.5c-2.1,4.62-6.24,7.26-12.24,7.26-7.86,0-13.62-5.4-13.62-13.44,0-8.28,5.76-14.22,13.38-14.22,8.4,0,12.6,6.12,12.6,12.9v1.56h-21.06c0,5.7,4,9.3,8.82,9.3,4.38,0,6.9-1.92,8.28-5.64Zm-4.62-9.18a7.48,7.48,0,0,0-7.86-7.32,8.29,8.29,0,0,0-8.28,7.32Z"/><path d="M1359.86,325.24V363h-5v-37.8Z"/><path d="M1368.56,356.68h6.36v7.44c0,4.38-1.92,7.2-7.2,7.2v-3.18c2.7,0,3.84-1,3.84-4V363h-3Z"/><path d="M1424,356.74h.24l6.24-19.92h4.68L1426.7,363h-4.8l-6.48-19.62h-.24L1408.76,363H1404l-8.52-26.22h4.92l6.3,19.92h.24l6.36-19.92h4.26Z"/><path d="M1446.32,342.16a9.87,9.87,0,0,1,9.42-6.06c6.9,0,9.84,4.56,9.84,10.68V363h-5v-15.6c0-4.38-2.28-7.14-6.6-7.14s-7.68,3.42-7.68,8.58V363h-5v-37.8h5Z"/><path d="M1498.7,356.5c-2.1,4.62-6.24,7.26-12.24,7.26-7.86,0-13.62-5.4-13.62-13.44,0-8.28,5.76-14.22,13.38-14.22,8.4,0,12.6,6.12,12.6,12.9v1.56h-21.06c0,5.7,4,9.3,8.82,9.3,4.38,0,6.9-1.92,8.28-5.64Zm-4.62-9.18a7.48,7.48,0,0,0-7.86-7.32,8.29,8.29,0,0,0-8.28,7.32Z"/><path d="M1511.18,349.72V363h-5V336.82h5v6.3c1.14-3.42,4-7,8.82-7,5,0,7.8,3.72,7.8,8.52a5.77,5.77,0,0,1-.24,1.74l-4.26,1.32a8.15,8.15,0,0,0,.24-1.8c0-3.18-1.38-5.4-4.8-5.4C1514.6,340.48,1511.18,344.62,1511.18,349.72Z"/><path d="M1557.68,356.5c-2.1,4.62-6.24,7.26-12.24,7.26-7.86,0-13.62-5.4-13.62-13.44,0-8.28,5.76-14.22,13.38-14.22,8.4,0,12.6,6.12,12.6,12.9v1.56h-21.06c0,5.7,4,9.3,8.82,9.3,4.38,0,6.9-1.92,8.28-5.64Zm-4.62-9.18a7.48,7.48,0,0,0-7.86-7.32,8.29,8.29,0,0,0-8.28,7.32Z"/><path d="M1579.28,343.36c1.86-4.14,6.06-7.26,12.24-7.26,6,0,9.6,2.58,9.6,7.86v12.9c0,2,1,2.82,2.34,2.82a5.34,5.34,0,0,0,2.88-1l.3,3.72a7.32,7.32,0,0,1-4.14,1.2,6,6,0,0,1-6.06-5.82c-1.26,3.3-5,5.76-9.78,5.76s-8.34-2.94-8.34-7.62,4.14-6.84,10.26-8.28l7.8-1.8v-2.1c0-1.8-1.14-3.72-5-3.72-4.14,0-6.78,2.28-7.68,4.92Zm17.1,5.7-6.6,1.62c-4,1-6.48,2-6.48,5,0,2.28,1.5,4.08,4.56,4.08,4.62,0,8.52-3.48,8.52-7.32Z"/><path d="M1627.58,354.46c1.86,3.54,5.88,5.46,9.84,5.46,3.78,0,6.3-1.14,6.3-3.78,0-1.92-1.5-2.88-4.14-3.54l-5.88-1.38c-4.26-1-7.5-2.94-7.5-7.38,0-4.62,4.38-7.74,10.14-7.74,5.22,0,9.18,2,11.16,5.4l-3.12,2.76a8.87,8.87,0,0,0-8-4.26c-3.06,0-5.46,1.32-5.46,3.42,0,1.92,1.32,2.94,4.08,3.6l6.66,1.62c3.78.9,6.84,2.94,6.84,7.14,0,4.92-4.62,8-11,8-5.52,0-10.62-2.28-12.78-6Z"/><path d="M1655.9,325.24h5.7v5.52h-5.7Zm5.34,11.58V363h-5V336.82Z"/><path d="M1675.7,363h-5V336.82h5v5.34a9.87,9.87,0,0,1,9.42-6.06c6.9,0,9.84,4.56,9.84,10.68V363h-5v-15.6c0-4.38-2.28-7.14-6.6-7.14s-7.68,3.42-7.68,8.58Z"/><path d="M1715,373.84c-7.26,0-13.74-2.28-13.74-7.38,0-2.76,2.52-5,5.82-5.4-2.46-.72-3.84-2.4-3.84-4.62s1.56-4,3.9-4.92A8,8,0,0,1,1704,345c0-5.4,4.44-8.88,10.8-8.88a12.57,12.57,0,0,1,7.56,2.28,7.81,7.81,0,0,1,8-4.26l.54,4.38c-2.4-.48-5.4.24-6.72,1.86a8.07,8.07,0,0,1,1.38,4.62c0,5.46-4.5,8.88-10.8,8.88a13.62,13.62,0,0,1-5.58-1.08,3,3,0,0,0-1.86,2.7c0,1.32,1,2.22,3.42,2.22h10c5.7,0,9.24,2.82,9.24,7C1730,371.26,1722.32,373.84,1715,373.84Zm0-3.3c5.76,0,10.26-1.62,10.26-5.22,0-2.52-2.52-3.42-5.7-3.42h-8.22c-2.82,0-5.4,1.38-5.4,3.9C1705.94,369.1,1710,370.54,1715,370.54Zm-.18-31.14c-3.3,0-5.94,2.22-5.94,5.58s2.64,5.64,5.94,5.64a5.55,5.55,0,0,0,5.88-5.64C1720.7,341.62,1718.12,339.4,1714.82,339.4Z"/><path d="M1741.22,325.24V363h-5v-37.8Z"/><path d="M1774.58,356.5c-2.1,4.62-6.24,7.26-12.24,7.26-7.86,0-13.62-5.4-13.62-13.44,0-8.28,5.76-14.22,13.38-14.22,8.4,0,12.6,6.12,12.6,12.9v1.56h-21.06c0,5.7,4,9.3,8.82,9.3,4.38,0,6.9-1.92,8.28-5.64Zm-4.62-9.18a7.48,7.48,0,0,0-7.86-7.32,8.29,8.29,0,0,0-8.28,7.32Z"/><path d="M176.36,403.7c6.6,0,9.48,4.56,9.48,10.68v16.26h-5V415c0-4.38-2.16-7.14-6.3-7.14s-7.32,3.42-7.32,8.58v14.16h-5V415c0-4.38-2.22-7.14-6.3-7.14s-7.38,3.42-7.38,8.58v14.16h-5V404.42h5v5.34a9.56,9.56,0,0,1,9.12-6.06c4.86,0,7.68,2.52,8.82,6.36C167.66,406.76,171.2,403.7,176.36,403.7Z"/><path d="M193.94,411c1.86-4.14,6.06-7.26,12.24-7.26,6,0,9.6,2.58,9.6,7.86v12.9c0,2,1,2.82,2.34,2.82a5.34,5.34,0,0,0,2.88-1l.3,3.72a7.32,7.32,0,0,1-4.14,1.2,6,6,0,0,1-6.06-5.82c-1.26,3.3-5,5.76-9.78,5.76s-8.34-2.94-8.34-7.62,4.14-6.84,10.26-8.28l7.8-1.8v-2.1c0-1.8-1.14-3.72-5-3.72-4.14,0-6.78,2.28-7.68,4.92Zm17.1,5.7-6.6,1.62c-4,1-6.48,2-6.48,5,0,2.28,1.5,4.08,4.56,4.08,4.62,0,8.52-3.48,8.52-7.32Z"/><path d="M226.22,392.84h5.7v5.52h-5.7Zm5.34,11.58v26.22h-5V404.42Z"/><path d="M246,430.64h-5V404.42h5v5.34a9.87,9.87,0,0,1,9.42-6.06c6.9,0,9.84,4.56,9.84,10.68v16.26h-5V415c0-4.38-2.28-7.14-6.6-7.14s-7.68,3.42-7.68,8.58Z"/><path d="M276.62,404.42v-7.26l4.92-1.5v8.76H292.7v3.78H281.54V422c0,3.6,2.16,5.16,4.5,5.16,3.12,0,4.44-1.74,5.94-4.74l2.52,3.48a9.75,9.75,0,0,1-8.82,5.46c-4.86,0-9.06-2.88-9.06-9V408.2h-5.46v-3.78Z"/><path d="M299.72,411c1.86-4.14,6.06-7.26,12.24-7.26,6,0,9.6,2.58,9.6,7.86v12.9c0,2,1,2.82,2.34,2.82a5.34,5.34,0,0,0,2.88-1l.3,3.72a7.32,7.32,0,0,1-4.14,1.2,6,6,0,0,1-6.06-5.82c-1.26,3.3-5,5.76-9.78,5.76s-8.34-2.94-8.34-7.62,4.14-6.84,10.26-8.28l7.8-1.8v-2.1c0-1.8-1.14-3.72-5-3.72-4.14,0-6.78,2.28-7.68,4.92Zm17.1,5.7-6.6,1.62c-4,1-6.48,2-6.48,5,0,2.28,1.5,4.08,4.56,4.08,4.62,0,8.52-3.48,8.52-7.32Z"/><path d="M332,392.84h5.7v5.52H332Zm5.34,11.58v26.22h-5V404.42Z"/><path d="M351.8,430.64h-5V404.42h5v5.34a9.87,9.87,0,0,1,9.42-6.06c6.9,0,9.84,4.56,9.84,10.68v16.26h-5V415c0-4.38-2.28-7.14-6.6-7.14s-7.68,3.42-7.68,8.58Z"/><path d="M404.18,424.1c-2.1,4.62-6.24,7.26-12.24,7.26-7.86,0-13.62-5.4-13.62-13.44,0-8.28,5.76-14.22,13.38-14.22,8.4,0,12.6,6.12,12.6,12.9v1.56H383.24c0,5.7,4,9.3,8.82,9.3,4.38,0,6.9-1.92,8.28-5.64Zm-4.62-9.18a7.48,7.48,0,0,0-7.86-7.32,8.29,8.29,0,0,0-8.28,7.32Z"/><path d="M416.66,417.32v13.32h-5V404.42h5v6.3c1.14-3.42,4-7,8.82-7,5,0,7.8,3.72,7.8,8.52A5.77,5.77,0,0,1,433,414l-4.26,1.32a8.15,8.15,0,0,0,.24-1.8c0-3.18-1.38-5.4-4.8-5.4C420.08,408.08,416.66,412.22,416.66,417.32Z"/><path d="M467,431.36a13.83,13.83,0,1,1,13.86-13.8A13.47,13.47,0,0,1,467,431.36Zm0-4c5.34,0,8.7-4,8.7-9.84s-3.36-9.9-8.7-9.9-8.64,4-8.64,9.9S461.72,427.4,467,427.4Z"/><path d="M484.94,408.2v-3.78h4.56v-2.28c0-6.24,4.32-10,10.32-10,4.62,0,7.56,2.1,8.7,5.34l-3.24,2.28a5,5,0,0,0-5.22-3.84c-3.36,0-5.64,2.1-5.64,6.42v2.1h7.38v3.78h-7.38v22.44H489.5V408.2Z"/><path d="M522.5,411c1.86-4.14,6.06-7.26,12.24-7.26,6,0,9.6,2.58,9.6,7.86v12.9c0,2,1,2.82,2.34,2.82a5.34,5.34,0,0,0,2.88-1l.3,3.72a7.32,7.32,0,0,1-4.14,1.2,6,6,0,0,1-6.06-5.82c-1.26,3.3-5,5.76-9.78,5.76s-8.34-2.94-8.34-7.62,4.14-6.84,10.26-8.28l7.8-1.8v-2.1c0-1.8-1.14-3.72-5-3.72-4.14,0-6.78,2.28-7.68,4.92Zm17.1,5.7-6.6,1.62c-4,1-6.48,2-6.48,5,0,2.28,1.5,4.08,4.56,4.08,4.62,0,8.52-3.48,8.52-7.32Z"/><path d="M575.12,417.32v13.32h-5V404.42h5v6.3c1.14-3.42,4-7,8.82-7,5,0,7.8,3.72,7.8,8.52a5.77,5.77,0,0,1-.24,1.74l-4.26,1.32a8.15,8.15,0,0,0,.24-1.8c0-3.18-1.38-5.4-4.8-5.4C578.54,408.08,575.12,412.22,575.12,417.32Z"/><path d="M621.62,424.1c-2.1,4.62-6.24,7.26-12.24,7.26-7.86,0-13.62-5.4-13.62-13.44,0-8.28,5.76-14.22,13.38-14.22,8.4,0,12.6,6.12,12.6,12.9v1.56H600.68c0,5.7,4,9.3,8.82,9.3,4.38,0,6.9-1.92,8.28-5.64ZM617,414.92a7.48,7.48,0,0,0-7.86-7.32,8.29,8.29,0,0,0-8.28,7.32Z"/><path d="M634.22,440.72h-5v-36.3h5v5.7a9.65,9.65,0,0,1,9.42-6.42c7.8,0,12.42,6.12,12.42,13.86s-4.62,13.8-12.42,13.8a9.6,9.6,0,0,1-9.42-6.36ZM634,418.1c0,5.76,3.78,9.42,8.28,9.42,5.4,0,8.58-4,8.58-10s-3.18-10-8.58-10c-4.5,0-8.28,3.66-8.28,9.36Z"/><path d="M675.56,431.36a13.83,13.83,0,1,1,13.86-13.8A13.47,13.47,0,0,1,675.56,431.36Zm0-4c5.34,0,8.7-4,8.7-9.84s-3.36-9.9-8.7-9.9-8.64,4-8.64,9.9S670.28,427.4,675.56,427.4Z"/><path d="M710.9,411c1.86-4.14,6.06-7.26,12.24-7.26,6,0,9.6,2.58,9.6,7.86v12.9c0,2,1,2.82,2.34,2.82a5.34,5.34,0,0,0,2.88-1l.3,3.72a7.32,7.32,0,0,1-4.14,1.2,6,6,0,0,1-6.06-5.82c-1.26,3.3-5,5.76-9.78,5.76s-8.34-2.94-8.34-7.62,4.14-6.84,10.26-8.28l7.8-1.8v-2.1c0-1.8-1.14-3.72-5-3.72-4.14,0-6.78,2.28-7.68,4.92Zm17.1,5.7-6.6,1.62c-4,1-6.48,2-6.48,5,0,2.28,1.5,4.08,4.56,4.08,4.62,0,8.52-3.48,8.52-7.32Z"/><path d="M766.16,423.5c-1.44,4.32-5.34,7.86-11.76,7.86-7.92,0-13.56-5.64-13.56-13.8s5.64-13.86,13.74-13.86c5.88,0,9.6,3,11.28,7.08l-4,2.4c-1.08-3.06-3.42-5.4-7.2-5.4-5.16,0-8.64,3.72-8.64,9.78s3.48,9.72,8.52,9.72c4.08,0,6.54-2.46,7.56-5.82Z"/><path d="M796.58,423.5c-1.44,4.32-5.34,7.86-11.76,7.86-7.92,0-13.56-5.64-13.56-13.8S776.9,403.7,785,403.7c5.88,0,9.6,3,11.28,7.08l-4,2.4c-1.08-3.06-3.42-5.4-7.2-5.4-5.16,0-8.64,3.72-8.64,9.78s3.48,9.72,8.52,9.72c4.08,0,6.54-2.46,7.56-5.82Z"/><path d="M828,424.1c-2.1,4.62-6.24,7.26-12.24,7.26-7.86,0-13.62-5.4-13.62-13.44,0-8.28,5.76-14.22,13.38-14.22,8.4,0,12.6,6.12,12.6,12.9v1.56H807c0,5.7,4,9.3,8.82,9.3,4.38,0,6.9-1.92,8.28-5.64Zm-4.62-9.18a7.48,7.48,0,0,0-7.86-7.32,8.29,8.29,0,0,0-8.28,7.32Z"/><path d="M840.56,440.72h-5v-36.3h5v5.7A9.65,9.65,0,0,1,850,403.7c7.8,0,12.42,6.12,12.42,13.86s-4.62,13.8-12.42,13.8a9.6,9.6,0,0,1-9.42-6.36Zm-.18-22.62c0,5.76,3.78,9.42,8.28,9.42,5.4,0,8.58-4,8.58-10s-3.18-10-8.58-10c-4.5,0-8.28,3.66-8.28,9.36Z"/><path d="M872,404.42v-7.26l4.92-1.5v8.76h11.16v3.78H876.92V422c0,3.6,2.16,5.16,4.5,5.16,3.12,0,4.44-1.74,5.94-4.74l2.52,3.48a9.75,9.75,0,0,1-8.82,5.46c-4.86,0-9.06-2.88-9.06-9V408.2h-5.46v-3.78Z"/><path d="M896.78,422.06c1.86,3.54,5.88,5.46,9.84,5.46,3.78,0,6.3-1.14,6.3-3.78,0-1.92-1.5-2.88-4.14-3.54l-5.88-1.38c-4.26-1-7.5-2.94-7.5-7.38,0-4.62,4.38-7.74,10.14-7.74,5.22,0,9.18,2,11.16,5.4l-3.12,2.76a8.87,8.87,0,0,0-8-4.26c-3.06,0-5.46,1.32-5.46,3.42,0,1.92,1.32,2.94,4.08,3.6l6.66,1.62c3.78.9,6.84,2.94,6.84,7.14,0,4.92-4.62,8-11,8-5.52,0-10.62-2.28-12.78-6Z"/><path d="M945.56,440.72h-5v-36.3h5v5.7A9.65,9.65,0,0,1,955,403.7c7.8,0,12.42,6.12,12.42,13.86s-4.62,13.8-12.42,13.8a9.6,9.6,0,0,1-9.42-6.36Zm-.18-22.62c0,5.76,3.78,9.42,8.28,9.42,5.4,0,8.58-4,8.58-10s-3.18-10-8.58-10c-4.5,0-8.28,3.66-8.28,9.36Z"/><path d="M973.76,411c1.86-4.14,6.06-7.26,12.24-7.26,6,0,9.6,2.58,9.6,7.86v12.9c0,2,1,2.82,2.34,2.82a5.34,5.34,0,0,0,2.88-1l.3,3.72a7.32,7.32,0,0,1-4.14,1.2,6,6,0,0,1-6.06-5.82c-1.26,3.3-5,5.76-9.78,5.76s-8.34-2.94-8.34-7.62,4.14-6.84,10.26-8.28l7.8-1.8v-2.1c0-1.8-1.14-3.72-5-3.72-4.14,0-6.78,2.28-7.68,4.92Zm17.1,5.7-6.6,1.62c-4,1-6.48,2-6.48,5,0,2.28,1.5,4.08,4.56,4.08,4.62,0,8.52-3.48,8.52-7.32Z"/><path d="M1008.2,404.42v-7.26l4.92-1.5v8.76h11.16v3.78h-11.16V422c0,3.6,2.16,5.16,4.5,5.16,3.12,0,4.44-1.74,5.94-4.74l2.52,3.48a9.75,9.75,0,0,1-8.82,5.46c-4.86,0-9.06-2.88-9.06-9V408.2h-5.46v-3.78Z"/><path d="M1055.36,423.5c-1.44,4.32-5.34,7.86-11.76,7.86-7.92,0-13.56-5.64-13.56-13.8s5.64-13.86,13.74-13.86c5.88,0,9.6,3,11.28,7.08l-4,2.4c-1.08-3.06-3.42-5.4-7.2-5.4-5.16,0-8.64,3.72-8.64,9.78s3.48,9.72,8.52,9.72c4.08,0,6.54-2.46,7.56-5.82Z"/><path d="M1067.66,409.76a9.87,9.87,0,0,1,9.42-6.06c6.9,0,9.84,4.56,9.84,10.68v16.26h-5V415c0-4.38-2.28-7.14-6.6-7.14s-7.68,3.42-7.68,8.58v14.16h-5v-37.8h5Z"/><path d="M1120,424.1c-2.1,4.62-6.24,7.26-12.24,7.26-7.86,0-13.62-5.4-13.62-13.44,0-8.28,5.76-14.22,13.38-14.22,8.4,0,12.6,6.12,12.6,12.9v1.56H1099.1c0,5.7,4,9.3,8.82,9.3,4.38,0,6.9-1.92,8.28-5.64Zm-4.62-9.18a7.48,7.48,0,0,0-7.86-7.32,8.29,8.29,0,0,0-8.28,7.32Z"/><path d="M1128.44,422.06c1.86,3.54,5.88,5.46,9.84,5.46,3.78,0,6.3-1.14,6.3-3.78,0-1.92-1.5-2.88-4.14-3.54l-5.88-1.38c-4.26-1-7.5-2.94-7.5-7.38,0-4.62,4.38-7.74,10.14-7.74,5.22,0,9.18,2,11.16,5.4l-3.12,2.76a8.87,8.87,0,0,0-8-4.26c-3.06,0-5.46,1.32-5.46,3.42,0,1.92,1.32,2.94,4.08,3.6l6.66,1.62c3.78.9,6.84,2.94,6.84,7.14,0,4.92-4.62,8-11,8-5.52,0-10.62-2.28-12.78-6Z"/><path d="M1156.46,424.28h6.36v7.44c0,4.38-1.92,7.2-7.2,7.2v-3.18c2.7,0,3.84-1,3.84-4v-1.08h-3Z"/><path d="M1191.5,417.32v13.32h-5V404.42h5v6.3c1.14-3.42,4-7,8.82-7,5,0,7.8,3.72,7.8,8.52a5.77,5.77,0,0,1-.24,1.74l-4.26,1.32a8.15,8.15,0,0,0,.24-1.8c0-3.18-1.38-5.4-4.8-5.4C1194.92,408.08,1191.5,412.22,1191.5,417.32Z"/><path d="M1213.4,411c1.86-4.14,6.06-7.26,12.24-7.26,6,0,9.6,2.58,9.6,7.86v12.9c0,2,1,2.82,2.34,2.82a5.34,5.34,0,0,0,2.88-1l.3,3.72a7.32,7.32,0,0,1-4.14,1.2,6,6,0,0,1-6.06-5.82c-1.26,3.3-5,5.76-9.78,5.76s-8.34-2.94-8.34-7.62,4.14-6.84,10.26-8.28l7.8-1.8v-2.1c0-1.8-1.14-3.72-5-3.72-4.14,0-6.78,2.28-7.68,4.92Zm17.1,5.7-6.6,1.62c-4,1-6.48,2-6.48,5,0,2.28,1.5,4.08,4.56,4.08,4.62,0,8.52-3.48,8.52-7.32Z"/><path d="M1265.6,425a9.6,9.6,0,0,1-9.42,6.36c-7.8,0-12.42-6.12-12.42-13.8s4.62-13.86,12.42-13.86a9.64,9.64,0,0,1,9.42,6.42V392.84h5v37.8h-5Zm.18-8c0-5.7-3.78-9.36-8.34-9.36-5.34,0-8.52,4-8.52,10s3.18,10,8.52,10c4.56,0,8.34-3.66,8.34-9.42Z"/><path d="M1279.7,392.84h5.7v5.52h-5.7Zm5.34,11.58v26.22h-5V404.42Z"/><path d="M1317.44,423.5c-1.44,4.32-5.34,7.86-11.76,7.86-7.92,0-13.56-5.64-13.56-13.8s5.64-13.86,13.74-13.86c5.88,0,9.6,3,11.28,7.08l-4,2.4c-1.08-3.06-3.42-5.4-7.2-5.4-5.16,0-8.64,3.72-8.64,9.78s3.48,9.72,8.52,9.72c4.08,0,6.54-2.46,7.56-5.82Z"/><path d="M1329.74,392.84v37.8h-5v-37.8Z"/><path d="M1363.1,424.1c-2.1,4.62-6.24,7.26-12.24,7.26-7.86,0-13.62-5.4-13.62-13.44,0-8.28,5.76-14.22,13.38-14.22,8.4,0,12.6,6.12,12.6,12.9v1.56h-21.06c0,5.7,4,9.3,8.82,9.3,4.38,0,6.9-1.92,8.28-5.64Zm-4.62-9.18a7.48,7.48,0,0,0-7.86-7.32,8.29,8.29,0,0,0-8.28,7.32Z"/><path d="M1384.7,411c1.86-4.14,6.06-7.26,12.24-7.26,6,0,9.6,2.58,9.6,7.86v12.9c0,2,1,2.82,2.34,2.82a5.34,5.34,0,0,0,2.88-1l.3,3.72a7.32,7.32,0,0,1-4.14,1.2,6,6,0,0,1-6.06-5.82c-1.26,3.3-5,5.76-9.78,5.76s-8.34-2.94-8.34-7.62,4.14-6.84,10.26-8.28l7.8-1.8v-2.1c0-1.8-1.14-3.72-5-3.72-4.14,0-6.78,2.28-7.68,4.92Zm17.1,5.7-6.6,1.62c-4,1-6.48,2-6.48,5,0,2.28,1.5,4.08,4.56,4.08,4.62,0,8.52-3.48,8.52-7.32Z"/><path d="M1422.32,440.72h-5v-36.3h5v5.7a9.65,9.65,0,0,1,9.42-6.42c7.8,0,12.42,6.12,12.42,13.86s-4.62,13.8-12.42,13.8a9.6,9.6,0,0,1-9.42-6.36Zm-.18-22.62c0,5.76,3.78,9.42,8.28,9.42,5.4,0,8.58-4,8.58-10s-3.18-10-8.58-10c-4.5,0-8.28,3.66-8.28,9.36Z"/><path d="M1456.64,440.72h-5v-36.3h5v5.7a9.65,9.65,0,0,1,9.42-6.42c7.8,0,12.42,6.12,12.42,13.86s-4.62,13.8-12.42,13.8a9.6,9.6,0,0,1-9.42-6.36Zm-.18-22.62c0,5.76,3.78,9.42,8.28,9.42,5.4,0,8.58-4,8.58-10s-3.18-10-8.58-10c-4.5,0-8.28,3.66-8.28,9.36Z"/><path d="M1486.64,422.06c1.86,3.54,5.88,5.46,9.84,5.46,3.78,0,6.3-1.14,6.3-3.78,0-1.92-1.5-2.88-4.14-3.54l-5.88-1.38c-4.26-1-7.5-2.94-7.5-7.38,0-4.62,4.38-7.74,10.14-7.74,5.22,0,9.18,2,11.16,5.4l-3.12,2.76a8.87,8.87,0,0,0-8-4.26c-3.06,0-5.46,1.32-5.46,3.42,0,1.92,1.32,2.94,4.08,3.6l6.66,1.62c3.78.9,6.84,2.94,6.84,7.14,0,4.92-4.62,8-11,8-5.52,0-10.62-2.28-12.78-6Z"/><path d="M1529.3,411c1.86-4.14,6.06-7.26,12.24-7.26,6,0,9.6,2.58,9.6,7.86v12.9c0,2,1,2.82,2.34,2.82a5.34,5.34,0,0,0,2.88-1l.3,3.72a7.32,7.32,0,0,1-4.14,1.2,6,6,0,0,1-6.06-5.82c-1.26,3.3-5,5.76-9.78,5.76s-8.34-2.94-8.34-7.62,4.14-6.84,10.26-8.28l7.8-1.8v-2.1c0-1.8-1.14-3.72-5-3.72-4.14,0-6.78,2.28-7.68,4.92Zm17.1,5.7-6.6,1.62c-4,1-6.48,2-6.48,5,0,2.28,1.5,4.08,4.56,4.08,4.62,0,8.52-3.48,8.52-7.32Z"/><path d="M1566.8,417.32v13.32h-5V404.42h5v6.3c1.14-3.42,4-7,8.82-7,5,0,7.8,3.72,7.8,8.52a5.77,5.77,0,0,1-.24,1.74l-4.26,1.32a8.15,8.15,0,0,0,.24-1.8c0-3.18-1.38-5.4-4.8-5.4C1570.22,408.08,1566.8,412.22,1566.8,417.32Z"/><path d="M1613.3,424.1c-2.1,4.62-6.24,7.26-12.24,7.26-7.86,0-13.62-5.4-13.62-13.44,0-8.28,5.76-14.22,13.38-14.22,8.4,0,12.6,6.12,12.6,12.9v1.56h-21.06c0,5.7,4,9.3,8.82,9.3,4.38,0,6.9-1.92,8.28-5.64Zm-4.62-9.18a7.48,7.48,0,0,0-7.86-7.32,8.29,8.29,0,0,0-8.28,7.32Z"/><path d="M1659,423.5c-1.44,4.32-5.34,7.86-11.76,7.86-7.92,0-13.56-5.64-13.56-13.8s5.64-13.86,13.74-13.86c5.88,0,9.6,3,11.28,7.08l-4,2.4c-1.08-3.06-3.42-5.4-7.2-5.4-5.16,0-8.64,3.72-8.64,9.78s3.48,9.72,8.52,9.72c4.08,0,6.54-2.46,7.56-5.82Z"/><path d="M1678.28,431.36a13.83,13.83,0,1,1,13.86-13.8A13.47,13.47,0,0,1,1678.28,431.36Zm0-4c5.34,0,8.7-4,8.7-9.84s-3.36-9.9-8.7-9.9-8.64,4-8.64,9.9S1673,427.4,1678.28,427.4Z"/><path d="M1704.62,430.64h-5V404.42h5v5.34a9.87,9.87,0,0,1,9.42-6.06c6.9,0,9.84,4.56,9.84,10.68v16.26h-5V415c0-4.38-2.28-7.14-6.6-7.14s-7.68,3.42-7.68,8.58Z"/><path d="M1732.4,413.12h13.8v4.44h-13.8Z"/><path d="M145.7,472v-7.26l4.92-1.5V472h11.16v3.78H150.62v13.8c0,3.6,2.16,5.16,4.5,5.16,3.12,0,4.44-1.74,5.94-4.74l2.52,3.48a9.75,9.75,0,0,1-8.82,5.46c-4.86,0-9.06-2.88-9.06-9V475.8h-5.46V472Z"/><path d="M174.8,484.92v13.32h-5V472h5v6.3c1.14-3.42,4-7,8.82-7,5,0,7.8,3.72,7.8,8.52a5.77,5.77,0,0,1-.24,1.74l-4.26,1.32a8.16,8.16,0,0,0,.24-1.8c0-3.18-1.38-5.4-4.8-5.4C178.22,475.68,174.8,479.82,174.8,484.92Z"/><path d="M209.24,499a13.83,13.83,0,1,1,13.86-13.8A13.47,13.47,0,0,1,209.24,499Zm0-4c5.34,0,8.7-4,8.7-9.84s-3.36-9.9-8.7-9.9-8.64,4-8.64,9.9S204,495,209.24,495Z"/><path d="M235.58,460.44v37.8h-5v-37.8Z"/><path d="M250,460.44v37.8h-5v-37.8Z"/><path d="M283.4,491.7c-2.1,4.62-6.24,7.26-12.24,7.26-7.86,0-13.62-5.4-13.62-13.44,0-8.28,5.76-14.22,13.38-14.22,8.4,0,12.6,6.12,12.6,12.9v1.56H262.46c0,5.7,4,9.3,8.82,9.3,4.38,0,6.9-1.92,8.28-5.64Zm-4.62-9.18a7.48,7.48,0,0,0-7.86-7.32,8.29,8.29,0,0,0-8.28,7.32Z"/><path d="M311.06,492.6a9.6,9.6,0,0,1-9.42,6.36c-7.8,0-12.42-6.12-12.42-13.8s4.62-13.86,12.42-13.86a9.64,9.64,0,0,1,9.42,6.42V460.44h5v37.8h-5Zm.18-8c0-5.7-3.78-9.36-8.34-9.36-5.34,0-8.52,4-8.52,10s3.18,10,8.52,10c4.56,0,8.34-3.66,8.34-9.42Z"/><path d="M344.3,498.24h-3.66v-37.8h5v17.28A9.65,9.65,0,0,1,355,471.3c7.8,0,12.42,6.12,12.42,13.86S362.84,499,355,499c-4.86,0-8.22-2.7-9.48-6.3Zm1.14-12.54c0,5.76,3.78,9.42,8.28,9.42,5.4,0,8.58-4,8.58-10s-3.18-10-8.58-10c-4.5,0-8.28,3.66-8.28,9.36Z"/><path d="M383.06,498.18,371.24,472h5.46l8.76,20.22h.24L393.44,472h4.86l-11.22,28c-2.1,5-4.44,9.06-9.48,9.06a6.49,6.49,0,0,1-6.9-6.06l4-2.1c0,2.64,1,4.14,3.18,4.14,1.86,0,2.94-1.5,4.14-4.5Z"/><path d="M421.7,472v-7.26l4.92-1.5V472h11.16v3.78H426.62v13.8c0,3.6,2.16,5.16,4.5,5.16,3.12,0,4.44-1.74,5.94-4.74l2.52,3.48a9.75,9.75,0,0,1-8.82,5.46c-4.86,0-9.06-2.88-9.06-9V475.8h-5.46V472Z"/><path d="M450.92,477.36a9.87,9.87,0,0,1,9.42-6.06c6.9,0,9.84,4.56,9.84,10.68v16.26h-5v-15.6c0-4.38-2.28-7.14-6.6-7.14s-7.68,3.42-7.68,8.58v14.16h-5v-37.8h5Z"/><path d="M503.3,491.7c-2.1,4.62-6.24,7.26-12.24,7.26-7.86,0-13.62-5.4-13.62-13.44,0-8.28,5.76-14.22,13.38-14.22,8.4,0,12.6,6.12,12.6,12.9v1.56H482.36c0,5.7,4,9.3,8.82,9.3,4.38,0,6.9-1.92,8.28-5.64Zm-4.62-9.18a7.48,7.48,0,0,0-7.86-7.32,8.29,8.29,0,0,0-8.28,7.32Z"/><path d="M537.86,499a13.83,13.83,0,1,1,13.86-13.8A13.47,13.47,0,0,1,537.86,499Zm0-4c5.34,0,8.7-4,8.7-9.84s-3.36-9.9-8.7-9.9-8.64,4-8.64,9.9S532.58,495,537.86,495Z"/><path d="M584.42,491.94h.24L590.9,472h4.68l-8.46,26.22h-4.8l-6.48-19.62h-.24l-6.42,19.62h-4.8L555.86,472h4.92l6.3,19.92h.24L573.68,472h4.26Z"/><path d="M606.74,498.24h-5V472h5v5.34a9.87,9.87,0,0,1,9.42-6.06c6.9,0,9.84,4.56,9.84,10.68v16.26h-5v-15.6c0-4.38-2.28-7.14-6.6-7.14s-7.68,3.42-7.68,8.58Z"/><path d="M659.12,491.7c-2.1,4.62-6.24,7.26-12.24,7.26-7.86,0-13.62-5.4-13.62-13.44,0-8.28,5.76-14.22,13.38-14.22,8.4,0,12.6,6.12,12.6,12.9v1.56H638.18c0,5.7,4,9.3,8.82,9.3,4.38,0,6.9-1.92,8.28-5.64Zm-4.62-9.18a7.48,7.48,0,0,0-7.86-7.32,8.29,8.29,0,0,0-8.28,7.32Z"/><path d="M671.6,484.92v13.32h-5V472h5v6.3c1.14-3.42,4-7,8.82-7,5,0,7.8,3.72,7.8,8.52a5.77,5.77,0,0,1-.24,1.74l-4.26,1.32a8.16,8.16,0,0,0,.24-1.8c0-3.18-1.38-5.4-4.8-5.4C675,475.68,671.6,479.82,671.6,484.92Z"/><path d="M721.94,499a13.83,13.83,0,1,1,13.86-13.8A13.47,13.47,0,0,1,721.94,499Zm0-4c5.34,0,8.7-4,8.7-9.84s-3.36-9.9-8.7-9.9-8.64,4-8.64,9.9S716.66,495,721.94,495Z"/><path d="M739.88,475.8V472h4.56v-2.28c0-6.24,4.32-10,10.32-10,4.62,0,7.56,2.1,8.7,5.34l-3.24,2.28A5,5,0,0,0,755,463.5c-3.36,0-5.64,2.1-5.64,6.42V472h7.38v3.78h-7.38v22.44h-4.92V475.8Z"/><path d="M780.68,472v-7.26l4.92-1.5V472h11.16v3.78H785.6v13.8c0,3.6,2.16,5.16,4.5,5.16,3.12,0,4.44-1.74,5.94-4.74l2.52,3.48a9.75,9.75,0,0,1-8.82,5.46c-4.86,0-9.06-2.88-9.06-9V475.8h-5.46V472Z"/><path d="M809.9,477.36a9.87,9.87,0,0,1,9.42-6.06c6.9,0,9.84,4.56,9.84,10.68v16.26h-5v-15.6c0-4.38-2.28-7.14-6.6-7.14s-7.68,3.42-7.68,8.58v14.16h-5v-37.8h5Z"/><path d="M862.28,491.7C860.18,496.32,856,499,850,499c-7.86,0-13.62-5.4-13.62-13.44,0-8.28,5.76-14.22,13.38-14.22,8.4,0,12.6,6.12,12.6,12.9v1.56H841.34c0,5.7,4,9.3,8.82,9.3,4.38,0,6.9-1.92,8.28-5.64Zm-4.62-9.18a7.48,7.48,0,0,0-7.86-7.32,8.29,8.29,0,0,0-8.28,7.32Z"/><path d="M890,508.32h-5V472h5v5.7a9.65,9.65,0,0,1,9.42-6.42c7.8,0,12.42,6.12,12.42,13.86S907.22,499,899.42,499A9.6,9.6,0,0,1,890,492.6Zm-.18-22.62c0,5.76,3.78,9.42,8.28,9.42,5.4,0,8.58-4,8.58-10s-3.18-10-8.58-10c-4.5,0-8.28,3.66-8.28,9.36Z"/><path d="M924.2,484.92v13.32h-5V472h5v6.3c1.14-3.42,4-7,8.82-7,5,0,7.8,3.72,7.8,8.52a5.77,5.77,0,0,1-.24,1.74l-4.26,1.32a8.16,8.16,0,0,0,.24-1.8c0-3.18-1.38-5.4-4.8-5.4C927.62,475.68,924.2,479.82,924.2,484.92Z"/><path d="M958.64,499a13.83,13.83,0,1,1,13.86-13.8A13.47,13.47,0,0,1,958.64,499Zm0-4c5.34,0,8.7-4,8.7-9.84s-3.36-9.9-8.7-9.9-8.64,4-8.64,9.9S953.36,495,958.64,495Z"/><path d="M985,501.84c0,4.62-2.28,7.2-7,7.2a10.27,10.27,0,0,1-5.88-1.92L973.4,504a6.87,6.87,0,0,0,4.14,1.38c1.56,0,2.46-.9,2.46-2.88V472h5ZM979.64,466v-5.52h5.7V466Z"/><path d="M1018.34,491.7c-2.1,4.62-6.24,7.26-12.24,7.26-7.86,0-13.62-5.4-13.62-13.44,0-8.28,5.76-14.22,13.38-14.22,8.4,0,12.6,6.12,12.6,12.9v1.56H997.4c0,5.7,4,9.3,8.82,9.3,4.38,0,6.9-1.92,8.28-5.64Zm-4.62-9.18a7.48,7.48,0,0,0-7.86-7.32,8.29,8.29,0,0,0-8.28,7.32Z"/><path d="M1049.06,491.1c-1.44,4.32-5.34,7.86-11.76,7.86-7.92,0-13.56-5.64-13.56-13.8s5.64-13.86,13.74-13.86c5.88,0,9.6,3,11.28,7.08l-4,2.4c-1.08-3.06-3.42-5.4-7.2-5.4-5.16,0-8.64,3.72-8.64,9.78s3.48,9.72,8.52,9.72c4.08,0,6.54-2.46,7.56-5.82Z"/><path d="M1058.48,472v-7.26l4.92-1.5V472h11.16v3.78H1063.4v13.8c0,3.6,2.16,5.16,4.5,5.16,3.12,0,4.44-1.74,5.94-4.74l2.52,3.48a9.75,9.75,0,0,1-8.82,5.46c-4.86,0-9.06-2.88-9.06-9V475.8H1053V472Z"/><path d="M1096.7,478.56c1.86-4.14,6.06-7.26,12.24-7.26,6,0,9.6,2.58,9.6,7.86v12.9c0,2,1,2.82,2.34,2.82a5.34,5.34,0,0,0,2.88-1l.3,3.72a7.32,7.32,0,0,1-4.14,1.2,6,6,0,0,1-6.06-5.82c-1.26,3.3-5,5.76-9.78,5.76s-8.34-2.94-8.34-7.62,4.14-6.84,10.26-8.28l7.8-1.8V479c0-1.8-1.14-3.72-5-3.72-4.14,0-6.78,2.28-7.68,4.92Zm17.1,5.7-6.6,1.62c-4,1-6.48,2-6.48,5,0,2.28,1.5,4.08,4.56,4.08,4.62,0,8.52-3.48,8.52-7.32Z"/><path d="M1134.32,498.24h-5V472h5v5.34a9.87,9.87,0,0,1,9.42-6.06c6.9,0,9.84,4.56,9.84,10.68v16.26h-5v-15.6c0-4.38-2.28-7.14-6.6-7.14s-7.68,3.42-7.68,8.58Z"/><path d="M1182.68,492.6a9.6,9.6,0,0,1-9.42,6.36c-7.8,0-12.42-6.12-12.42-13.8s4.62-13.86,12.42-13.86a9.64,9.64,0,0,1,9.42,6.42V460.44h5v37.8h-5Zm.18-8c0-5.7-3.78-9.36-8.34-9.36-5.34,0-8.52,4-8.52,10s3.18,10,8.52,10c4.56,0,8.34-3.66,8.34-9.42Z"/><path d="M1231.16,472h5v26.22h-5V492.9a9.93,9.93,0,0,1-9.42,6.06c-6.9,0-9.72-4.56-9.72-10.62V472h5v15.6c0,4.44,2.16,7.2,6.42,7.2,4.44,0,7.74-3.48,7.74-8.58Z"/><path d="M1250.6,508.32h-5V472h5v5.7a9.65,9.65,0,0,1,9.42-6.42c7.8,0,12.42,6.12,12.42,13.86S1267.82,499,1260,499a9.6,9.6,0,0,1-9.42-6.36Zm-.18-22.62c0,5.76,3.78,9.42,8.28,9.42,5.4,0,8.58-4,8.58-10s-3.18-10-8.58-10c-4.5,0-8.28,3.66-8.28,9.36Z"/><path d="M1300,492.6a9.6,9.6,0,0,1-9.42,6.36c-7.8,0-12.42-6.12-12.42-13.8s4.62-13.86,12.42-13.86a9.64,9.64,0,0,1,9.42,6.42V460.44h5v37.8h-5Zm.18-8c0-5.7-3.78-9.36-8.34-9.36-5.34,0-8.52,4-8.52,10s3.18,10,8.52,10c4.56,0,8.34-3.66,8.34-9.42Z"/><path d="M1313.3,478.56c1.86-4.14,6.06-7.26,12.24-7.26,6,0,9.6,2.58,9.6,7.86v12.9c0,2,1,2.82,2.34,2.82a5.34,5.34,0,0,0,2.88-1l.3,3.72a7.32,7.32,0,0,1-4.14,1.2,6,6,0,0,1-6.06-5.82c-1.26,3.3-5,5.76-9.78,5.76s-8.34-2.94-8.34-7.62,4.14-6.84,10.26-8.28l7.8-1.8V479c0-1.8-1.14-3.72-5-3.72-4.14,0-6.78,2.28-7.68,4.92Zm17.1,5.7-6.6,1.62c-4,1-6.48,2-6.48,5,0,2.28,1.5,4.08,4.56,4.08,4.62,0,8.52-3.48,8.52-7.32Z"/><path d="M1347.74,472v-7.26l4.92-1.5V472h11.16v3.78h-11.16v13.8c0,3.6,2.16,5.16,4.5,5.16,3.12,0,4.44-1.74,5.94-4.74l2.52,3.48a9.75,9.75,0,0,1-8.82,5.46c-4.86,0-9.06-2.88-9.06-9V475.8h-5.46V472Z"/><path d="M1395.86,491.7c-2.1,4.62-6.24,7.26-12.24,7.26-7.86,0-13.62-5.4-13.62-13.44,0-8.28,5.76-14.22,13.38-14.22,8.4,0,12.6,6.12,12.6,12.9v1.56h-21.06c0,5.7,4,9.3,8.82,9.3,4.38,0,6.9-1.92,8.28-5.64Zm-4.62-9.18a7.48,7.48,0,0,0-7.86-7.32,8.29,8.29,0,0,0-8.28,7.32Z"/><path d="M1404.26,489.66c1.86,3.54,5.88,5.46,9.84,5.46,3.78,0,6.3-1.14,6.3-3.78,0-1.92-1.5-2.88-4.14-3.54l-5.88-1.38c-4.26-1-7.5-2.94-7.5-7.38,0-4.62,4.38-7.74,10.14-7.74,5.22,0,9.18,2,11.16,5.4l-3.12,2.76a8.87,8.87,0,0,0-8-4.26c-3.06,0-5.46,1.32-5.46,3.42,0,1.92,1.32,2.94,4.08,3.6l6.66,1.62c3.78.9,6.84,2.94,6.84,7.14,0,4.92-4.62,8-11,8-5.52,0-10.62-2.28-12.78-6Z"/><path d="M1471,491.1c-1.44,4.32-5.34,7.86-11.76,7.86-7.92,0-13.56-5.64-13.56-13.8s5.64-13.86,13.74-13.86c5.88,0,9.6,3,11.28,7.08l-4,2.4c-1.08-3.06-3.42-5.4-7.2-5.4-5.16,0-8.64,3.72-8.64,9.78s3.48,9.72,8.52,9.72c4.08,0,6.54-2.46,7.56-5.82Z"/><path d="M1477.16,478.56c1.86-4.14,6.06-7.26,12.24-7.26,6,0,9.6,2.58,9.6,7.86v12.9c0,2,1,2.82,2.34,2.82a5.34,5.34,0,0,0,2.88-1l.3,3.72a7.32,7.32,0,0,1-4.14,1.2,6,6,0,0,1-6.06-5.82c-1.26,3.3-5,5.76-9.78,5.76s-8.34-2.94-8.34-7.62,4.14-6.84,10.26-8.28l7.8-1.8V479c0-1.8-1.14-3.72-5-3.72-4.14,0-6.78,2.28-7.68,4.92Zm17.1,5.7-6.6,1.62c-4,1-6.48,2-6.48,5,0,2.28,1.5,4.08,4.56,4.08,4.62,0,8.52-3.48,8.52-7.32Z"/><path d="M1514.78,498.24h-5V472h5v5.34a9.87,9.87,0,0,1,9.42-6.06c6.9,0,9.84,4.56,9.84,10.68v16.26h-5v-15.6c0-4.38-2.28-7.14-6.6-7.14s-7.68,3.42-7.68,8.58Z"/><path d="M1562.06,498.24h-3.66v-37.8h5v17.28a9.65,9.65,0,0,1,9.42-6.42c7.8,0,12.42,6.12,12.42,13.86s-4.62,13.8-12.48,13.8c-4.86,0-8.22-2.7-9.48-6.3Zm1.14-12.54c0,5.76,3.78,9.42,8.28,9.42,5.4,0,8.58-4,8.58-10s-3.18-10-8.58-10c-4.5,0-8.28,3.66-8.28,9.36Z"/><path d="M1616.77,491.7c-2.1,4.62-6.24,7.26-12.24,7.26-7.86,0-13.62-5.4-13.62-13.44,0-8.28,5.76-14.22,13.38-14.22,8.4,0,12.6,6.12,12.6,12.9v1.56h-21.06c0,5.7,4,9.3,8.82,9.3,4.38,0,6.9-1.92,8.28-5.64Zm-4.62-9.18a7.48,7.48,0,0,0-7.86-7.32,8.29,8.29,0,0,0-8.28,7.32Z"/><path d="M1640.05,489.66c1.86,3.54,5.88,5.46,9.84,5.46,3.78,0,6.3-1.14,6.3-3.78,0-1.92-1.5-2.88-4.14-3.54l-5.88-1.38c-4.26-1-7.5-2.94-7.5-7.38,0-4.62,4.38-7.74,10.14-7.74,5.22,0,9.18,2,11.16,5.4l-3.12,2.76a8.87,8.87,0,0,0-8-4.26c-3.06,0-5.46,1.32-5.46,3.42,0,1.92,1.32,2.94,4.08,3.6l6.66,1.62c3.78.9,6.84,2.94,6.84,7.14,0,4.92-4.62,8-11,8-5.52,0-10.62-2.28-12.78-6Z"/><path d="M1687.63,472h5v26.22h-5V492.9a9.93,9.93,0,0,1-9.42,6.06c-6.9,0-9.72-4.56-9.72-10.62V472h5v15.6c0,4.44,2.16,7.2,6.42,7.2,4.44,0,7.74-3.48,7.74-8.58Z"/><path d="M1705.75,498.24h-3.66v-37.8h5v17.28a9.65,9.65,0,0,1,9.42-6.42c7.8,0,12.42,6.12,12.42,13.86s-4.62,13.8-12.48,13.8c-4.86,0-8.22-2.7-9.48-6.3Zm1.14-12.54c0,5.76,3.78,9.42,8.28,9.42,5.4,0,8.58-4,8.58-10s-3.18-10-8.58-10c-4.5,0-8.28,3.66-8.28,9.36Z"/><path d="M1735.69,480.72h13.8v4.44h-13.8Z"/><path d="M176.36,538.9c6.6,0,9.48,4.56,9.48,10.68v16.26h-5v-15.6c0-4.38-2.16-7.14-6.3-7.14s-7.32,3.42-7.32,8.58v14.16h-5v-15.6c0-4.38-2.22-7.14-6.3-7.14s-7.38,3.42-7.38,8.58v14.16h-5V539.62h5V545a9.56,9.56,0,0,1,9.12-6.06c4.86,0,7.68,2.52,8.82,6.36C167.66,542,171.2,538.9,176.36,538.9Z"/><path d="M194.72,528h5.7v5.52h-5.7Zm5.34,11.58v26.22h-5V539.62Z"/><path d="M211.64,539.62v-7.26l4.92-1.5v8.76h11.16v3.78H216.56v13.8c0,3.6,2.16,5.16,4.5,5.16,3.12,0,4.44-1.74,5.94-4.74l2.52,3.48a9.75,9.75,0,0,1-8.82,5.46c-4.86,0-9.06-2.88-9.06-9V543.4h-5.46v-3.78Z"/><path d="M238,539.62v-7.26l4.92-1.5v8.76h11.16v3.78H242.9v13.8c0,3.6,2.16,5.16,4.5,5.16,3.12,0,4.44-1.74,5.94-4.74l2.52,3.48a9.75,9.75,0,0,1-8.82,5.46c-4.86,0-9.06-2.88-9.06-9V543.4h-5.46v-3.78Z"/><path d="M286.1,559.3c-2.1,4.62-6.24,7.26-12.24,7.26-7.86,0-13.62-5.4-13.62-13.44,0-8.28,5.76-14.22,13.38-14.22,8.4,0,12.6,6.12,12.6,12.9v1.56H265.16c0,5.7,4,9.3,8.82,9.3,4.38,0,6.9-1.92,8.28-5.64Zm-4.62-9.18a7.48,7.48,0,0,0-7.86-7.32,8.29,8.29,0,0,0-8.28,7.32Z"/><path d="M313.76,560.2a9.6,9.6,0,0,1-9.42,6.36c-7.8,0-12.42-6.12-12.42-13.8s4.62-13.86,12.42-13.86a9.64,9.64,0,0,1,9.42,6.42V528h5v37.8h-5Zm.18-8c0-5.7-3.78-9.36-8.34-9.36-5.34,0-8.52,4-8.52,10s3.18,10,8.52,10c4.56,0,8.34-3.66,8.34-9.42Z"/><path d="M347,565.84h-3.66V528h5v17.28a9.65,9.65,0,0,1,9.42-6.42c7.8,0,12.42,6.12,12.42,13.86s-4.62,13.8-12.48,13.8c-4.86,0-8.22-2.7-9.48-6.3Zm1.14-12.54c0,5.76,3.78,9.42,8.28,9.42,5.4,0,8.58-4,8.58-10s-3.18-10-8.58-10c-4.5,0-8.28,3.66-8.28,9.36Z"/><path d="M385.76,565.78l-11.82-26.16h5.46l8.76,20.22h.24l7.74-20.22H401l-11.22,28c-2.1,5-4.44,9.06-9.48,9.06a6.49,6.49,0,0,1-6.9-6.06l4-2.1c0,2.64,1,4.14,3.18,4.14,1.86,0,2.94-1.5,4.14-4.5Z"/><path d="M421.16,546.16c1.86-4.14,6.06-7.26,12.24-7.26,6,0,9.6,2.58,9.6,7.86v12.9c0,2,1,2.82,2.34,2.82a5.34,5.34,0,0,0,2.88-1l.3,3.72a7.32,7.32,0,0,1-4.14,1.2,6,6,0,0,1-6.06-5.82c-1.26,3.3-5,5.76-9.78,5.76s-8.34-2.94-8.34-7.62,4.14-6.84,10.26-8.28l7.8-1.8v-2.1c0-1.8-1.14-3.72-5-3.72-4.14,0-6.78,2.28-7.68,4.92Zm17.1,5.7-6.6,1.62c-4,1-6.48,2-6.48,5,0,2.28,1.5,4.08,4.56,4.08,4.62,0,8.52-3.48,8.52-7.32Z"/><path d="M458.78,565.84h-5V539.62h5V545a9.87,9.87,0,0,1,9.42-6.06c6.9,0,9.84,4.56,9.84,10.68v16.26h-5v-15.6c0-4.38-2.28-7.14-6.6-7.14s-7.68,3.42-7.68,8.58Z"/><path d="M495.38,565.78l-11.82-26.16H489l8.76,20.22H498l7.74-20.22h4.86l-11.22,28c-2.1,5-4.44,9.06-9.48,9.06a6.49,6.49,0,0,1-6.9-6.06l4-2.1c0,2.64,1,4.14,3.18,4.14,1.86,0,2.94-1.5,4.14-4.5Z"/><path d="M536.9,575.92h-5v-36.3h5v5.7a9.65,9.65,0,0,1,9.42-6.42c7.8,0,12.42,6.12,12.42,13.86s-4.62,13.8-12.42,13.8a9.6,9.6,0,0,1-9.42-6.36Zm-.18-22.62c0,5.76,3.78,9.42,8.28,9.42,5.4,0,8.58-4,8.58-10s-3.18-10-8.58-10c-4.5,0-8.28,3.66-8.28,9.36Z"/><path d="M590.3,559.3c-2.1,4.62-6.24,7.26-12.24,7.26-7.86,0-13.62-5.4-13.62-13.44,0-8.28,5.76-14.22,13.38-14.22,8.4,0,12.6,6.12,12.6,12.9v1.56H569.36c0,5.7,4,9.3,8.82,9.3,4.38,0,6.9-1.92,8.28-5.64Zm-4.62-9.18a7.48,7.48,0,0,0-7.86-7.32,8.29,8.29,0,0,0-8.28,7.32Z"/><path d="M622,559.3c-2.1,4.62-6.24,7.26-12.24,7.26-7.86,0-13.62-5.4-13.62-13.44,0-8.28,5.76-14.22,13.38-14.22,8.4,0,12.6,6.12,12.6,12.9v1.56H601c0,5.7,4,9.3,8.82,9.3,4.38,0,6.9-1.92,8.28-5.64Zm-4.62-9.18a7.48,7.48,0,0,0-7.86-7.32,8.29,8.29,0,0,0-8.28,7.32Z"/><path d="M634.46,552.52v13.32h-5V539.62h5v6.3c1.14-3.42,4-7,8.82-7,5,0,7.8,3.72,7.8,8.52a5.77,5.77,0,0,1-.24,1.74l-4.26,1.32a8.16,8.16,0,0,0,.24-1.8c0-3.18-1.38-5.4-4.8-5.4C637.88,543.28,634.46,547.42,634.46,552.52Z"/><path d="M684.8,566.56a13.83,13.83,0,1,1,13.86-13.8A13.47,13.47,0,0,1,684.8,566.56Zm0-4c5.34,0,8.7-4,8.7-9.84s-3.36-9.9-8.7-9.9-8.64,4-8.64,9.9S679.52,562.6,684.8,562.6Z"/><path d="M711.14,565.84h-5V539.62h5V545a9.87,9.87,0,0,1,9.42-6.06c6.9,0,9.84,4.56,9.84,10.68v16.26h-5v-15.6c0-4.38-2.28-7.14-6.6-7.14s-7.68,3.42-7.68,8.58Z"/><path d="M756.86,539.62v-7.26l4.92-1.5v8.76h11.16v3.78H761.78v13.8c0,3.6,2.16,5.16,4.5,5.16,3.12,0,4.44-1.74,5.94-4.74l2.52,3.48a9.75,9.75,0,0,1-8.82,5.46c-4.86,0-9.06-2.88-9.06-9V543.4H751.4v-3.78Z"/><path d="M786.08,545a9.87,9.87,0,0,1,9.42-6.06c6.9,0,9.84,4.56,9.84,10.68v16.26h-5v-15.6c0-4.38-2.28-7.14-6.6-7.14s-7.68,3.42-7.68,8.58v14.16h-5V528h5Z"/><path d="M838.46,559.3c-2.1,4.62-6.24,7.26-12.24,7.26-7.86,0-13.62-5.4-13.62-13.44,0-8.28,5.76-14.22,13.38-14.22,8.4,0,12.6,6.12,12.6,12.9v1.56H817.52c0,5.7,4,9.3,8.82,9.3,4.38,0,6.9-1.92,8.28-5.64Zm-4.62-9.18A7.48,7.48,0,0,0,826,542.8a8.29,8.29,0,0,0-8.28,7.32Z"/><path d="M866.06,552.52v13.32h-5V539.62h5v6.3c1.14-3.42,4-7,8.82-7,5,0,7.8,3.72,7.8,8.52a5.77,5.77,0,0,1-.24,1.74l-4.26,1.32a8.16,8.16,0,0,0,.24-1.8c0-3.18-1.38-5.4-4.8-5.4C869.48,543.28,866.06,547.42,866.06,552.52Z"/><path d="M888,546.16c1.86-4.14,6.06-7.26,12.24-7.26,6,0,9.6,2.58,9.6,7.86v12.9c0,2,1,2.82,2.34,2.82a5.34,5.34,0,0,0,2.88-1l.3,3.72a7.32,7.32,0,0,1-4.14,1.2,6,6,0,0,1-6.06-5.82c-1.26,3.3-5,5.76-9.78,5.76s-8.34-2.94-8.34-7.62,4.14-6.84,10.26-8.28l7.8-1.8v-2.1c0-1.8-1.14-3.72-5-3.72-4.14,0-6.78,2.28-7.68,4.92Zm17.1,5.7-6.6,1.62c-4,1-6.48,2-6.48,5,0,2.28,1.5,4.08,4.56,4.08,4.62,0,8.52-3.48,8.52-7.32Z"/><path d="M940.16,560.2a9.6,9.6,0,0,1-9.42,6.36c-7.8,0-12.42-6.12-12.42-13.8s4.62-13.86,12.42-13.86a9.64,9.64,0,0,1,9.42,6.42V528h5v37.8h-5Zm.18-8c0-5.7-3.78-9.36-8.34-9.36-5.34,0-8.52,4-8.52,10s3.18,10,8.52,10c4.56,0,8.34-3.66,8.34-9.42Z"/><path d="M954.26,528H960v5.52h-5.7Zm5.34,11.58v26.22h-5V539.62Z"/><path d="M992,558.7c-1.44,4.32-5.34,7.86-11.76,7.86-7.92,0-13.56-5.64-13.56-13.8s5.64-13.86,13.74-13.86c5.88,0,9.6,3,11.28,7.08l-4,2.4c-1.08-3.06-3.42-5.4-7.2-5.4-5.16,0-8.64,3.72-8.64,9.78s3.48,9.72,8.52,9.72c4.08,0,6.54-2.46,7.56-5.82Z"/><path d="M1004.3,528v37.8h-5V528Z"/><path d="M1037.66,559.3c-2.1,4.62-6.24,7.26-12.24,7.26-7.86,0-13.62-5.4-13.62-13.44,0-8.28,5.76-14.22,13.38-14.22,8.4,0,12.6,6.12,12.6,12.9v1.56h-21.06c0,5.7,4,9.3,8.82,9.3,4.38,0,6.9-1.92,8.28-5.64Zm-4.62-9.18a7.48,7.48,0,0,0-7.86-7.32,8.29,8.29,0,0,0-8.28,7.32Z"/><path d="M1065.38,565.84h-5V539.62h5V545a9.87,9.87,0,0,1,9.42-6.06c6.9,0,9.84,4.56,9.84,10.68v16.26h-5v-15.6c0-4.38-2.28-7.14-6.6-7.14s-7.68,3.42-7.68,8.58Z"/><path d="M1117.75,559.3c-2.1,4.62-6.24,7.26-12.24,7.26-7.86,0-13.62-5.4-13.62-13.44,0-8.28,5.76-14.22,13.38-14.22,8.4,0,12.6,6.12,12.6,12.9v1.56h-21.06c0,5.7,4,9.3,8.82,9.3,4.38,0,6.9-1.92,8.28-5.64Zm-4.62-9.18a7.48,7.48,0,0,0-7.86-7.32,8.29,8.29,0,0,0-8.28,7.32Z"/><path d="M1127.48,539.62v-7.26l4.92-1.5v8.76h11.16v3.78H1132.4v13.8c0,3.6,2.16,5.16,4.5,5.16,3.12,0,4.44-1.74,5.94-4.74l2.52,3.48a9.75,9.75,0,0,1-8.82,5.46c-4.86,0-9.06-2.88-9.06-9V543.4H1122v-3.78Z"/><path d="M1177,559.54h.24l6.24-19.92h4.68l-8.46,26.22h-4.8l-6.48-19.62h-.24l-6.42,19.62h-4.8l-8.52-26.22h4.92l6.3,19.92h.24l6.36-19.92h4.26Z"/><path d="M1206.08,566.56a13.83,13.83,0,1,1,13.86-13.8A13.47,13.47,0,0,1,1206.08,566.56Zm0-4c5.34,0,8.7-4,8.7-9.84s-3.36-9.9-8.7-9.9-8.64,4-8.64,9.9S1200.79,562.6,1206.08,562.6Z"/><path d="M1232.29,552.52v13.32h-5V539.62h5v6.3c1.14-3.42,4-7,8.82-7,5,0,7.8,3.72,7.8,8.52a5.77,5.77,0,0,1-.24,1.74l-4.26,1.32a8.16,8.16,0,0,0,.24-1.8c0-3.18-1.38-5.4-4.8-5.4C1235.71,543.28,1232.29,547.42,1232.29,552.52Z"/><path d="M1260.67,565.84h-5V528h5v23.82l14.22-12.24H1281l-12.3,10.26,12.84,16h-5.82l-10.56-13-4.5,3.84Z"/><path d="M1287.13,559.48h6.36v6.36h-6.36Z"/><path d="M149.18,663.24V701H143.9v-37.8Z"/><path d="M163.94,701h-5V674.82h5v5.34a9.87,9.87,0,0,1,9.42-6.06c6.9,0,9.84,4.56,9.84,10.68V701h-5v-15.6c0-4.38-2.28-7.14-6.6-7.14s-7.68,3.42-7.68,8.58Z"/><path d="M209.66,674.82v-7.26l4.92-1.5v8.76h11.16v3.78H214.58v13.8c0,3.6,2.16,5.16,4.5,5.16,3.12,0,4.44-1.74,5.94-4.74l2.52,3.48a9.75,9.75,0,0,1-8.82,5.46c-4.86,0-9.06-2.88-9.06-9V678.6H204.2v-3.78Z"/><path d="M238.88,680.16a9.87,9.87,0,0,1,9.42-6.06c6.9,0,9.84,4.56,9.84,10.68V701h-5v-15.6c0-4.38-2.28-7.14-6.6-7.14s-7.68,3.42-7.68,8.58V701h-5v-37.8h5Z"/><path d="M291.26,694.5c-2.1,4.62-6.24,7.26-12.24,7.26-7.86,0-13.62-5.4-13.62-13.44,0-8.28,5.76-14.22,13.38-14.22,8.4,0,12.6,6.12,12.6,12.9v1.56H270.32c0,5.7,4,9.3,8.82,9.3,4.38,0,6.9-1.92,8.28-5.64Zm-4.62-9.18a7.48,7.48,0,0,0-7.86-7.32,8.29,8.29,0,0,0-8.28,7.32Z"/><path d="M336.92,693.9c-1.44,4.32-5.34,7.86-11.76,7.86-7.92,0-13.56-5.64-13.56-13.8s5.64-13.86,13.74-13.86c5.88,0,9.6,3,11.28,7.08l-4,2.4c-1.08-3.06-3.42-5.4-7.2-5.4-5.16,0-8.64,3.72-8.64,9.78s3.48,9.72,8.52,9.72c4.08,0,6.54-2.46,7.56-5.82Z"/><path d="M356.24,701.76A13.83,13.83,0,1,1,370.1,688,13.47,13.47,0,0,1,356.24,701.76Zm0-4c5.34,0,8.7-4,8.7-9.84s-3.36-9.9-8.7-9.9-8.64,4-8.64,9.9S351,697.8,356.24,697.8Z"/><path d="M410.36,674.1c6.6,0,9.48,4.56,9.48,10.68V701h-5v-15.6c0-4.38-2.16-7.14-6.3-7.14s-7.32,3.42-7.32,8.58V701h-5v-15.6c0-4.38-2.22-7.14-6.3-7.14s-7.38,3.42-7.38,8.58V701h-5V674.82h5v5.34a9.56,9.56,0,0,1,9.12-6.06c4.86,0,7.68,2.52,8.82,6.36C401.66,677.16,405.2,674.1,410.36,674.1Z"/><path d="M428.72,663.24h5.7v5.52h-5.7Zm5.34,11.58V701h-5V674.82Z"/><path d="M448.52,701h-5V674.82h5v5.34a9.87,9.87,0,0,1,9.42-6.06c6.9,0,9.84,4.56,9.84,10.68V701h-5v-15.6c0-4.38-2.28-7.14-6.6-7.14s-7.68,3.42-7.68,8.58Z"/><path d="M487.82,711.84c-7.26,0-13.74-2.28-13.74-7.38,0-2.76,2.52-5,5.82-5.4-2.46-.72-3.84-2.4-3.84-4.62s1.56-4,3.9-4.92a8,8,0,0,1-3.12-6.54c0-5.4,4.44-8.88,10.8-8.88a12.57,12.57,0,0,1,7.56,2.28,7.81,7.81,0,0,1,8-4.26l.54,4.38c-2.4-.48-5.4.24-6.72,1.86a8.07,8.07,0,0,1,1.38,4.62c0,5.46-4.5,8.88-10.8,8.88a13.62,13.62,0,0,1-5.58-1.08,3,3,0,0,0-1.86,2.7c0,1.32,1,2.22,3.42,2.22h10c5.7,0,9.24,2.82,9.24,7C502.82,709.26,495.14,711.84,487.82,711.84Zm0-3.3c5.76,0,10.26-1.62,10.26-5.22,0-2.52-2.52-3.42-5.7-3.42h-8.22c-2.82,0-5.4,1.38-5.4,3.9C478.76,707.1,482.84,708.54,487.82,708.54Zm-.18-31.14c-3.3,0-5.94,2.22-5.94,5.58s2.64,5.64,5.94,5.64a5.55,5.55,0,0,0,5.88-5.64C493.52,679.62,490.94,677.4,487.64,677.4Z"/><path d="M556.94,674.1c6.6,0,9.48,4.56,9.48,10.68V701h-5v-15.6c0-4.38-2.16-7.14-6.3-7.14s-7.32,3.42-7.32,8.58V701h-5v-15.6c0-4.38-2.22-7.14-6.3-7.14s-7.38,3.42-7.38,8.58V701h-5V674.82h5v5.34a9.56,9.56,0,0,1,9.12-6.06c4.86,0,7.68,2.52,8.82,6.36C548.24,677.16,551.78,674.1,556.94,674.1Z"/><path d="M587.48,701.76A13.83,13.83,0,1,1,601.34,688,13.47,13.47,0,0,1,587.48,701.76Zm0-4c5.34,0,8.7-4,8.7-9.84s-3.36-9.9-8.7-9.9-8.64,4-8.64,9.9S582.2,697.8,587.48,697.8Z"/><path d="M613.82,701h-5V674.82h5v5.34a9.87,9.87,0,0,1,9.42-6.06c6.9,0,9.84,4.56,9.84,10.68V701h-5v-15.6c0-4.38-2.28-7.14-6.6-7.14s-7.68,3.42-7.68,8.58Z"/><path d="M644.42,674.82v-7.26l4.92-1.5v8.76H660.5v3.78H649.34v13.8c0,3.6,2.16,5.16,4.5,5.16,3.12,0,4.44-1.74,5.94-4.74l2.52,3.48a9.75,9.75,0,0,1-8.82,5.46c-4.86,0-9.06-2.88-9.06-9V678.6H639v-3.78Z"/><path d="M673.64,680.16a9.87,9.87,0,0,1,9.42-6.06c6.9,0,9.84,4.56,9.84,10.68V701h-5v-15.6c0-4.38-2.28-7.14-6.6-7.14s-7.68,3.42-7.68,8.58V701h-5v-37.8h5Z"/><path d="M702.68,692.46c1.86,3.54,5.88,5.46,9.84,5.46,3.78,0,6.3-1.14,6.3-3.78,0-1.92-1.5-2.88-4.14-3.54l-5.88-1.38c-4.26-1-7.5-2.94-7.5-7.38,0-4.62,4.38-7.74,10.14-7.74,5.22,0,9.18,2,11.16,5.4l-3.12,2.76a8.87,8.87,0,0,0-8-4.26c-3.06,0-5.46,1.32-5.46,3.42,0,1.92,1.32,2.94,4.08,3.6l6.66,1.62c3.78.9,6.84,2.94,6.84,7.14,0,4.92-4.62,8-11,8-5.52,0-10.62-2.28-12.78-6Z"/><path d="M771.74,694.74H772l6.24-19.92h4.68L774.44,701h-4.8l-6.48-19.62h-.24L756.5,701h-4.8l-8.52-26.22h4.92l6.3,19.92h.24L761,674.82h4.26Z"/><path d="M812.9,694.5c-2.1,4.62-6.24,7.26-12.24,7.26-7.86,0-13.62-5.4-13.62-13.44,0-8.28,5.76-14.22,13.38-14.22,8.4,0,12.6,6.12,12.6,12.9v1.56H792c0,5.7,4,9.3,8.82,9.3,4.38,0,6.9-1.92,8.28-5.64Zm-4.62-9.18a7.48,7.48,0,0,0-7.86-7.32,8.29,8.29,0,0,0-8.28,7.32Z"/><path d="M818.78,663.24h6.36v7.32c0,4.38-2,7.2-7.2,7.2v-3.18c2.7,0,3.84-1,3.84-4v-1.14h-3Z"/><path d="M839.3,663.24V701h-5v-37.8Z"/><path d="M853.76,663.24V701h-5v-37.8Z"/><path d="M882,701h-3.66v-37.8h5v17.28a9.65,9.65,0,0,1,9.42-6.42c7.8,0,12.42,6.12,12.42,13.86s-4.62,13.8-12.48,13.8c-4.86,0-8.22-2.7-9.48-6.3Zm1.14-12.54c0,5.76,3.78,9.42,8.28,9.42,5.4,0,8.58-4,8.58-10s-3.18-10-8.58-10c-4.5,0-8.28,3.66-8.28,9.36Z"/><path d="M936.74,694.5c-2.1,4.62-6.24,7.26-12.24,7.26-7.86,0-13.62-5.4-13.62-13.44,0-8.28,5.76-14.22,13.38-14.22,8.4,0,12.6,6.12,12.6,12.9v1.56H915.8c0,5.7,4,9.3,8.82,9.3,4.38,0,6.9-1.92,8.28-5.64Zm-4.62-9.18a7.48,7.48,0,0,0-7.86-7.32,8.29,8.29,0,0,0-8.28,7.32Z"/><path d="M956.06,678.6v-3.78h4.56v-2.28c0-6.24,4.32-10,10.32-10,4.62,0,7.56,2.1,8.7,5.34l-3.24,2.28a5,5,0,0,0-5.22-3.84c-3.36,0-5.64,2.1-5.64,6.42v2.1h7.38v3.78h-7.38V701h-4.92V678.6Z"/><path d="M990.86,701.76a13.83,13.83,0,1,1,13.86-13.8A13.47,13.47,0,0,1,990.86,701.76Zm0-4c5.34,0,8.7-4,8.7-9.84s-3.36-9.9-8.7-9.9-8.64,4-8.64,9.9S985.58,697.8,990.86,697.8Z"/><path d="M1017.08,687.72V701h-5V674.82h5v6.3c1.14-3.42,4-7,8.82-7,5,0,7.8,3.72,7.8,8.52a5.77,5.77,0,0,1-.24,1.74l-4.26,1.32a8.15,8.15,0,0,0,.24-1.8c0-3.18-1.38-5.4-4.8-5.4C1020.5,678.48,1017.08,682.62,1017.08,687.72Z"/><path d="M1073.24,674.1c6.6,0,9.48,4.56,9.48,10.68V701h-5v-15.6c0-4.38-2.16-7.14-6.3-7.14s-7.32,3.42-7.32,8.58V701h-5v-15.6c0-4.38-2.22-7.14-6.3-7.14s-7.38,3.42-7.38,8.58V701h-5V674.82h5v5.34a9.56,9.56,0,0,1,9.12-6.06c4.86,0,7.68,2.52,8.82,6.36C1064.54,677.16,1068.08,674.1,1073.24,674.1Z"/><path d="M1090.82,681.36c1.86-4.14,6.06-7.26,12.24-7.26,6,0,9.6,2.58,9.6,7.86v12.9c0,2,1,2.82,2.34,2.82a5.34,5.34,0,0,0,2.88-1l.3,3.72a7.32,7.32,0,0,1-4.14,1.2,6,6,0,0,1-6.06-5.82c-1.26,3.3-5,5.76-9.78,5.76s-8.34-2.94-8.34-7.62,4.14-6.84,10.26-8.28l7.8-1.8v-2.1c0-1.8-1.14-3.72-5-3.72-4.14,0-6.78,2.28-7.68,4.92Zm17.1,5.7-6.6,1.62c-4,1-6.48,2-6.48,5,0,2.28,1.5,4.08,4.56,4.08,4.62,0,8.52-3.48,8.52-7.32Z"/><path d="M1128.44,663.24V701h-5v-37.8Z"/><path d="M1137.56,663.24h5.7v5.52h-5.7Zm5.34,11.58V701h-5V674.82Z"/><path d="M1172.84,674.82v3.6l-16,18.6h16.38v4h-22.38v-3.6l15.72-18.6h-15.3v-4Z"/><path d="M1180.64,663.24h5.7v5.52h-5.7Zm5.34,11.58V701h-5V674.82Z"/><path d="M1200.44,701h-5V674.82h5v5.34a9.87,9.87,0,0,1,9.42-6.06c6.9,0,9.84,4.56,9.84,10.68V701h-5v-15.6c0-4.38-2.28-7.14-6.6-7.14s-7.68,3.42-7.68,8.58Z"/><path d="M1239.74,711.84c-7.26,0-13.74-2.28-13.74-7.38,0-2.76,2.52-5,5.82-5.4-2.46-.72-3.84-2.4-3.84-4.62s1.56-4,3.9-4.92a8,8,0,0,1-3.12-6.54c0-5.4,4.44-8.88,10.8-8.88a12.57,12.57,0,0,1,7.56,2.28,7.81,7.81,0,0,1,8-4.26l.54,4.38c-2.4-.48-5.4.24-6.72,1.86a8.07,8.07,0,0,1,1.38,4.62c0,5.46-4.5,8.88-10.8,8.88a13.62,13.62,0,0,1-5.58-1.08,3,3,0,0,0-1.86,2.7c0,1.32,1,2.22,3.42,2.22h10c5.7,0,9.24,2.82,9.24,7C1254.74,709.26,1247.06,711.84,1239.74,711.84Zm0-3.3c5.76,0,10.26-1.62,10.26-5.22,0-2.52-2.52-3.42-5.7-3.42h-8.22c-2.82,0-5.4,1.38-5.4,3.9C1230.68,707.1,1234.76,708.54,1239.74,708.54Zm-.18-31.14c-3.3,0-5.94,2.22-5.94,5.58s2.64,5.64,5.94,5.64a5.55,5.55,0,0,0,5.88-5.64C1245.44,679.62,1242.86,677.4,1239.56,677.4Z"/><path d="M1278.2,674.82v-7.26l4.92-1.5v8.76h11.16v3.78h-11.16v13.8c0,3.6,2.16,5.16,4.5,5.16,3.12,0,4.44-1.74,5.94-4.74l2.52,3.48a9.75,9.75,0,0,1-8.82,5.46c-4.86,0-9.06-2.88-9.06-9V678.6h-5.46v-3.78Z"/><path d="M1307.42,680.16a9.87,9.87,0,0,1,9.42-6.06c6.9,0,9.84,4.56,9.84,10.68V701h-5v-15.6c0-4.38-2.28-7.14-6.6-7.14s-7.68,3.42-7.68,8.58V701h-5v-37.8h5Z"/><path d="M1359.79,694.5c-2.1,4.62-6.24,7.26-12.24,7.26-7.86,0-13.62-5.4-13.62-13.44,0-8.28,5.76-14.22,13.38-14.22,8.4,0,12.6,6.12,12.6,12.9v1.56h-21.06c0,5.7,4,9.3,8.82,9.3,4.38,0,6.9-1.92,8.28-5.64Zm-4.62-9.18a7.48,7.48,0,0,0-7.86-7.32,8.29,8.29,0,0,0-8.28,7.32Z"/><path d="M1384.64,674.82v-7.26l4.92-1.5v8.76h11.16v3.78h-11.16v13.8c0,3.6,2.16,5.16,4.5,5.16,3.12,0,4.44-1.74,5.94-4.74l2.52,3.48a9.75,9.75,0,0,1-8.82,5.46c-4.86,0-9.06-2.88-9.06-9V678.6h-5.46v-3.78Z"/><path d="M1432.75,694.5c-2.1,4.62-6.24,7.26-12.24,7.26-7.86,0-13.62-5.4-13.62-13.44,0-8.28,5.76-14.22,13.38-14.22,8.4,0,12.6,6.12,12.6,12.9v1.56h-21.06c0,5.7,4,9.3,8.82,9.3,4.38,0,6.9-1.92,8.28-5.64Zm-4.62-9.18a7.48,7.48,0,0,0-7.86-7.32,8.29,8.29,0,0,0-8.28,7.32Z"/><path d="M1463.47,693.9c-1.44,4.32-5.34,7.86-11.76,7.86-7.92,0-13.56-5.64-13.56-13.8s5.64-13.86,13.74-13.86c5.88,0,9.6,3,11.28,7.08l-4,2.4c-1.08-3.06-3.42-5.4-7.2-5.4-5.16,0-8.64,3.72-8.64,9.78s3.48,9.72,8.52,9.72c4.08,0,6.54-2.46,7.56-5.82Z"/><path d="M1475.77,680.16a9.87,9.87,0,0,1,9.42-6.06c6.9,0,9.84,4.56,9.84,10.68V701h-5v-15.6c0-4.38-2.28-7.14-6.6-7.14s-7.68,3.42-7.68,8.58V701h-5v-37.8h5Z"/><path d="M1509.25,701h-5V674.82h5v5.34a9.87,9.87,0,0,1,9.42-6.06c6.9,0,9.84,4.56,9.84,10.68V701h-5v-15.6c0-4.38-2.28-7.14-6.6-7.14s-7.68,3.42-7.68,8.58Z"/><path d="M1537.39,663.24h5.7v5.52h-5.7Zm5.34,11.58V701h-5V674.82Z"/><path d="M1575.13,693.9c-1.44,4.32-5.34,7.86-11.76,7.86-7.92,0-13.56-5.64-13.56-13.8s5.64-13.86,13.74-13.86c5.88,0,9.6,3,11.28,7.08l-4,2.4c-1.08-3.06-3.42-5.4-7.2-5.4-5.16,0-8.64,3.72-8.64,9.78s3.48,9.72,8.52,9.72c4.08,0,6.54-2.46,7.56-5.82Z"/><path d="M1581.31,681.36c1.86-4.14,6.06-7.26,12.24-7.26,6,0,9.6,2.58,9.6,7.86v12.9c0,2,1,2.82,2.34,2.82a5.34,5.34,0,0,0,2.88-1l.3,3.72a7.32,7.32,0,0,1-4.14,1.2,6,6,0,0,1-6.06-5.82c-1.26,3.3-5,5.76-9.78,5.76s-8.34-2.94-8.34-7.62,4.14-6.84,10.26-8.28l7.8-1.8v-2.1c0-1.8-1.14-3.72-5-3.72-4.14,0-6.78,2.28-7.68,4.92Zm17.1,5.7-6.6,1.62c-4,1-6.48,2-6.48,5,0,2.28,1.5,4.08,4.56,4.08,4.62,0,8.52-3.48,8.52-7.32Z"/><path d="M1618.93,663.24V701h-5v-37.8Z"/><path d="M144.14,760.06c1.86,3.54,5.88,5.46,9.84,5.46,3.78,0,6.3-1.14,6.3-3.78,0-1.92-1.5-2.88-4.14-3.54l-5.88-1.38c-4.26-1-7.5-2.94-7.5-7.38,0-4.62,4.38-7.74,10.14-7.74,5.22,0,9.18,2,11.16,5.4l-3.12,2.76a8.87,8.87,0,0,0-8-4.26c-3.06,0-5.46,1.32-5.46,3.42,0,1.92,1.32,2.94,4.08,3.6l6.66,1.62c3.78.9,6.84,2.94,6.84,7.14,0,4.92-4.62,8-11,8-5.52,0-10.62-2.28-12.78-6Z"/><path d="M174.92,742.42v-7.26l4.92-1.5v8.76H191v3.78H179.84V760c0,3.6,2.16,5.16,4.5,5.16,3.12,0,4.44-1.74,5.94-4.74l2.52,3.48a9.75,9.75,0,0,1-8.82,5.46c-4.86,0-9.06-2.88-9.06-9V746.2h-5.46v-3.78Z"/><path d="M198,749c1.86-4.14,6.06-7.26,12.24-7.26,6,0,9.6,2.58,9.6,7.86v12.9c0,2,1,2.82,2.34,2.82a5.34,5.34,0,0,0,2.88-1l.3,3.72a7.32,7.32,0,0,1-4.14,1.2,6,6,0,0,1-6.06-5.82c-1.26,3.3-5,5.76-9.78,5.76s-8.34-2.94-8.34-7.62,4.14-6.84,10.26-8.28l7.8-1.8v-2.1c0-1.8-1.14-3.72-5-3.72-4.14,0-6.78,2.28-7.68,4.92Zm17.1,5.7-6.6,1.62c-4,1-6.48,2-6.48,5,0,2.28,1.5,4.08,4.56,4.08,4.62,0,8.52-3.48,8.52-7.32Z"/><path d="M253.28,761.5c-1.44,4.32-5.34,7.86-11.76,7.86-7.92,0-13.56-5.64-13.56-13.8s5.64-13.86,13.74-13.86c5.88,0,9.6,3,11.28,7.08l-4,2.4c-1.08-3.06-3.42-5.4-7.2-5.4-5.16,0-8.64,3.72-8.64,9.78s3.48,9.72,8.52,9.72c4.08,0,6.54-2.46,7.56-5.82Z"/><path d="M265.58,768.64h-5v-37.8h5v23.82l14.22-12.24h6.12l-12.3,10.26,12.84,16h-5.82l-10.56-13-4.5,3.84Z"/><path d="M326.24,742.42h5v26.22h-5V763.3a9.93,9.93,0,0,1-9.42,6.06c-6.9,0-9.72-4.56-9.72-10.62V742.42h5V758c0,4.44,2.16,7.2,6.42,7.2,4.44,0,7.74-3.48,7.74-8.58Z"/><path d="M345.68,768.64h-5V742.42h5v5.34a9.87,9.87,0,0,1,9.42-6.06c6.9,0,9.84,4.56,9.84,10.68v16.26h-5V753c0-4.38-2.28-7.14-6.6-7.14s-7.68,3.42-7.68,8.58Z"/><path d="M394,763a9.6,9.6,0,0,1-9.42,6.36c-7.8,0-12.42-6.12-12.42-13.8s4.62-13.86,12.42-13.86a9.64,9.64,0,0,1,9.42,6.42V730.84h5v37.8h-5Zm.18-8c0-5.7-3.78-9.36-8.34-9.36-5.34,0-8.52,4-8.52,10s3.18,10,8.52,10c4.56,0,8.34-3.66,8.34-9.42Z"/><path d="M432.38,762.1c-2.1,4.62-6.24,7.26-12.24,7.26-7.86,0-13.62-5.4-13.62-13.44,0-8.28,5.76-14.22,13.38-14.22,8.4,0,12.6,6.12,12.6,12.9v1.56H411.44c0,5.7,4,9.3,8.82,9.3,4.38,0,6.9-1.92,8.28-5.64Zm-4.62-9.18a7.48,7.48,0,0,0-7.86-7.32,8.29,8.29,0,0,0-8.28,7.32Z"/><path d="M444.86,755.32v13.32h-5V742.42h5v6.3c1.14-3.42,4-7,8.82-7,5,0,7.8,3.72,7.8,8.52a5.77,5.77,0,0,1-.24,1.74L457,753.28a8.15,8.15,0,0,0,.24-1.8c0-3.18-1.38-5.4-4.8-5.4C448.28,746.08,444.86,750.22,444.86,755.32Z"/><path d="M473.24,730.84v37.8h-5v-37.8Z"/><path d="M491.18,768.58l-11.82-26.16h5.46l8.76,20.22h.24l7.74-20.22h4.86l-11.22,28c-2.1,5-4.44,9.06-9.48,9.06a6.49,6.49,0,0,1-6.9-6.06l4-2.1c0,2.64,1,4.14,3.18,4.14,1.86,0,2.94-1.5,4.14-4.5Z"/><path d="M512.24,730.84h5.7v5.52h-5.7Zm5.34,11.58v26.22h-5V742.42Z"/><path d="M532,768.64h-5V742.42h5v5.34a9.87,9.87,0,0,1,9.42-6.06c6.9,0,9.84,4.56,9.84,10.68v16.26h-5V753c0-4.38-2.28-7.14-6.6-7.14s-7.68,3.42-7.68,8.58Z"/><path d="M571.34,779.44c-7.26,0-13.74-2.28-13.74-7.38,0-2.76,2.52-5,5.82-5.4-2.46-.72-3.84-2.4-3.84-4.62s1.56-4,3.9-4.92a8,8,0,0,1-3.12-6.54c0-5.4,4.44-8.88,10.8-8.88a12.57,12.57,0,0,1,7.56,2.28,7.81,7.81,0,0,1,8-4.26l.54,4.38c-2.4-.48-5.4.24-6.72,1.86a8.07,8.07,0,0,1,1.38,4.62c0,5.46-4.5,8.88-10.8,8.88a13.62,13.62,0,0,1-5.58-1.08,3,3,0,0,0-1.86,2.7c0,1.32,1,2.22,3.42,2.22h10c5.7,0,9.24,2.82,9.24,7C586.34,776.86,578.66,779.44,571.34,779.44Zm0-3.3c5.76,0,10.26-1.62,10.26-5.22,0-2.52-2.52-3.42-5.7-3.42h-8.22c-2.82,0-5.4,1.38-5.4,3.9C562.28,774.7,566.36,776.14,571.34,776.14ZM571.16,745c-3.3,0-5.94,2.22-5.94,5.58s2.64,5.64,5.94,5.64a5.55,5.55,0,0,0,5.88-5.64C577,747.22,574.46,745,571.16,745Z"/><path d="M612.56,755.32v13.32h-5V742.42h5v6.3c1.14-3.42,4-7,8.82-7,5,0,7.8,3.72,7.8,8.52a5.77,5.77,0,0,1-.24,1.74l-4.26,1.32a8.15,8.15,0,0,0,.24-1.8c0-3.18-1.38-5.4-4.8-5.4C616,746.08,612.56,750.22,612.56,755.32Z"/><path d="M634.46,749c1.86-4.14,6.06-7.26,12.24-7.26,6,0,9.6,2.58,9.6,7.86v12.9c0,2,1,2.82,2.34,2.82a5.34,5.34,0,0,0,2.88-1l.3,3.72a7.32,7.32,0,0,1-4.14,1.2,6,6,0,0,1-6.06-5.82c-1.26,3.3-5,5.76-9.78,5.76s-8.34-2.94-8.34-7.62,4.14-6.84,10.26-8.28l7.8-1.8v-2.1c0-1.8-1.14-3.72-5-3.72-4.14,0-6.78,2.28-7.68,4.92Zm17.1,5.7-6.6,1.62c-4,1-6.48,2-6.48,5,0,2.28,1.5,4.08,4.56,4.08,4.62,0,8.52-3.48,8.52-7.32Z"/><path d="M686.66,763a9.6,9.6,0,0,1-9.42,6.36c-7.8,0-12.42-6.12-12.42-13.8s4.62-13.86,12.42-13.86a9.64,9.64,0,0,1,9.42,6.42V730.84h5v37.8h-5Zm.18-8c0-5.7-3.78-9.36-8.34-9.36-5.34,0-8.52,4-8.52,10s3.18,10,8.52,10c4.56,0,8.34-3.66,8.34-9.42Z"/><path d="M700.76,730.84h5.7v5.52h-5.7Zm5.34,11.58v26.22h-5V742.42Z"/><path d="M738.5,761.5c-1.44,4.32-5.34,7.86-11.76,7.86-7.92,0-13.56-5.64-13.56-13.8s5.64-13.86,13.74-13.86c5.88,0,9.6,3,11.28,7.08l-4,2.4c-1.08-3.06-3.42-5.4-7.2-5.4-5.16,0-8.64,3.72-8.64,9.78s3.48,9.72,8.52,9.72c4.08,0,6.54-2.46,7.56-5.82Z"/><path d="M750.8,730.84v37.8h-5v-37.8Z"/><path d="M784.16,762.1c-2.1,4.62-6.24,7.26-12.24,7.26-7.86,0-13.62-5.4-13.62-13.44,0-8.28,5.76-14.22,13.38-14.22,8.4,0,12.6,6.12,12.6,12.9v1.56H763.22c0,5.7,4,9.3,8.82,9.3,4.38,0,6.9-1.92,8.28-5.64Zm-4.62-9.18a7.48,7.48,0,0,0-7.86-7.32,8.29,8.29,0,0,0-8.28,7.32Z"/><path d="M805.76,749c1.86-4.14,6.06-7.26,12.24-7.26,6,0,9.6,2.58,9.6,7.86v12.9c0,2,1,2.82,2.34,2.82a5.34,5.34,0,0,0,2.88-1l.3,3.72a7.32,7.32,0,0,1-4.14,1.2,6,6,0,0,1-6.06-5.82c-1.26,3.3-5,5.76-9.78,5.76s-8.34-2.94-8.34-7.62,4.14-6.84,10.26-8.28l7.8-1.8v-2.1c0-1.8-1.14-3.72-5-3.72-4.14,0-6.78,2.28-7.68,4.92Zm17.1,5.7-6.6,1.62c-4,1-6.48,2-6.48,5,0,2.28,1.5,4.08,4.56,4.08,4.62,0,8.52-3.48,8.52-7.32Z"/><path d="M843.38,768.64h-5V742.42h5v5.34a9.87,9.87,0,0,1,9.42-6.06c6.9,0,9.84,4.56,9.84,10.68v16.26h-5V753c0-4.38-2.28-7.14-6.6-7.14s-7.68,3.42-7.68,8.58Z"/><path d="M891.74,763a9.6,9.6,0,0,1-9.42,6.36c-7.8,0-12.42-6.12-12.42-13.8s4.62-13.86,12.42-13.86a9.64,9.64,0,0,1,9.42,6.42V730.84h5v37.8h-5Zm.18-8c0-5.7-3.78-9.36-8.34-9.36-5.34,0-8.52,4-8.52,10s3.18,10,8.52,10c4.56,0,8.34-3.66,8.34-9.42Z"/><path d="M926.18,755.32v13.32h-5V742.42h5v6.3c1.14-3.42,4-7,8.82-7,5,0,7.8,3.72,7.8,8.52a5.77,5.77,0,0,1-.24,1.74l-4.26,1.32a8.15,8.15,0,0,0,.24-1.8c0-3.18-1.38-5.4-4.8-5.4C929.6,746.08,926.18,750.22,926.18,755.32Z"/><path d="M972.68,762.1c-2.1,4.62-6.24,7.26-12.24,7.26-7.86,0-13.62-5.4-13.62-13.44,0-8.28,5.76-14.22,13.38-14.22,8.4,0,12.6,6.12,12.6,12.9v1.56H951.74c0,5.7,4,9.3,8.82,9.3,4.38,0,6.9-1.92,8.28-5.64Zm-4.62-9.18a7.48,7.48,0,0,0-7.86-7.32,8.29,8.29,0,0,0-8.28,7.32Z"/><path d="M985.28,730.84v37.8h-5v-37.8Z"/><path d="M1018.64,762.1c-2.1,4.62-6.24,7.26-12.24,7.26-7.86,0-13.62-5.4-13.62-13.44,0-8.28,5.76-14.22,13.38-14.22,8.4,0,12.6,6.12,12.6,12.9v1.56H997.7c0,5.7,4,9.3,8.82,9.3,4.38,0,6.9-1.92,8.28-5.64Zm-4.62-9.18a7.48,7.48,0,0,0-7.86-7.32,8.29,8.29,0,0,0-8.28,7.32Z"/><path d="M1025.12,749c1.86-4.14,6.06-7.26,12.24-7.26,6,0,9.6,2.58,9.6,7.86v12.9c0,2,1,2.82,2.34,2.82a5.34,5.34,0,0,0,2.88-1l.3,3.72a7.32,7.32,0,0,1-4.14,1.2,6,6,0,0,1-6.06-5.82c-1.26,3.3-5,5.76-9.78,5.76s-8.34-2.94-8.34-7.62,4.14-6.84,10.26-8.28l7.8-1.8v-2.1c0-1.8-1.14-3.72-5-3.72-4.14,0-6.78,2.28-7.68,4.92Zm17.1,5.7-6.6,1.62c-4,1-6.48,2-6.48,5,0,2.28,1.5,4.08,4.56,4.08,4.62,0,8.52-3.48,8.52-7.32Z"/><path d="M1058.3,760.06c1.86,3.54,5.88,5.46,9.84,5.46,3.78,0,6.3-1.14,6.3-3.78,0-1.92-1.5-2.88-4.14-3.54l-5.88-1.38c-4.26-1-7.5-2.94-7.5-7.38,0-4.62,4.38-7.74,10.14-7.74,5.22,0,9.18,2,11.16,5.4l-3.12,2.76a8.87,8.87,0,0,0-8-4.26c-3.06,0-5.46,1.32-5.46,3.42,0,1.92,1.32,2.94,4.08,3.6l6.66,1.62c3.78.9,6.84,2.94,6.84,7.14,0,4.92-4.62,8-11,8-5.52,0-10.62-2.28-12.78-6Z"/><path d="M1086.62,730.84h5.7v5.52h-5.7Zm5.34,11.58v26.22h-5V742.42Z"/><path d="M1106.42,768.64h-5V742.42h5v5.34a9.87,9.87,0,0,1,9.42-6.06c6.9,0,9.84,4.56,9.84,10.68v16.26h-5V753c0-4.38-2.28-7.14-6.6-7.14s-7.68,3.42-7.68,8.58Z"/><path d="M1145.72,779.44c-7.26,0-13.74-2.28-13.74-7.38,0-2.76,2.52-5,5.82-5.4-2.46-.72-3.84-2.4-3.84-4.62s1.56-4,3.9-4.92a8,8,0,0,1-3.12-6.54c0-5.4,4.44-8.88,10.8-8.88a12.57,12.57,0,0,1,7.56,2.28,7.81,7.81,0,0,1,8-4.26l.54,4.38c-2.4-.48-5.4.24-6.72,1.86a8.07,8.07,0,0,1,1.38,4.62c0,5.46-4.5,8.88-10.8,8.88a13.62,13.62,0,0,1-5.58-1.08,3,3,0,0,0-1.86,2.7c0,1.32,1,2.22,3.42,2.22h10c5.7,0,9.24,2.82,9.24,7C1160.72,776.86,1153,779.44,1145.72,779.44Zm0-3.3c5.76,0,10.26-1.62,10.26-5.22,0-2.52-2.52-3.42-5.7-3.42h-8.22c-2.82,0-5.4,1.38-5.4,3.9C1136.66,774.7,1140.74,776.14,1145.72,776.14Zm-.18-31.14c-3.3,0-5.94,2.22-5.94,5.58s2.64,5.64,5.94,5.64a5.55,5.55,0,0,0,5.88-5.64C1151.42,747.22,1148.84,745,1145.54,745Z"/><path d="M1201.94,763a9.6,9.6,0,0,1-9.42,6.36c-7.8,0-12.42-6.12-12.42-13.8s4.62-13.86,12.42-13.86a9.64,9.64,0,0,1,9.42,6.42V730.84h5v37.8h-5Zm.18-8c0-5.7-3.78-9.36-8.34-9.36-5.34,0-8.52,4-8.52,10s3.18,10,8.52,10c4.56,0,8.34-3.66,8.34-9.42Z"/><path d="M1228.22,769.36a13.83,13.83,0,1,1,13.86-13.8A13.47,13.47,0,0,1,1228.22,769.36Zm0-4c5.34,0,8.7-4,8.7-9.84s-3.36-9.9-8.7-9.9-8.64,4-8.64,9.9S1222.94,765.4,1228.22,765.4Z"/><path d="M1272.68,761.5c-1.44,4.32-5.34,7.86-11.76,7.86-7.92,0-13.56-5.64-13.56-13.8s5.64-13.86,13.74-13.86c5.88,0,9.6,3,11.28,7.08l-4,2.4c-1.08-3.06-3.42-5.4-7.2-5.4-5.16,0-8.64,3.72-8.64,9.78s3.48,9.72,8.52,9.72c4.08,0,6.54-2.46,7.56-5.82Z"/><path d="M1298.9,742.42h5v26.22h-5V763.3a9.93,9.93,0,0,1-9.42,6.06c-6.9,0-9.72-4.56-9.72-10.62V742.42h5V758c0,4.44,2.16,7.2,6.42,7.2,4.44,0,7.74-3.48,7.74-8.58Z"/><path d="M1346.12,741.7c6.6,0,9.48,4.56,9.48,10.68v16.26h-5V753c0-4.38-2.16-7.14-6.3-7.14s-7.32,3.42-7.32,8.58v14.16h-5V753c0-4.38-2.22-7.14-6.3-7.14s-7.38,3.42-7.38,8.58v14.16h-5V742.42h5v5.34a9.56,9.56,0,0,1,9.12-6.06c4.86,0,7.68,2.52,8.82,6.36C1337.42,744.76,1341,741.7,1346.12,741.7Z"/><path d="M1388.72,762.1c-2.1,4.62-6.24,7.26-12.24,7.26-7.86,0-13.62-5.4-13.62-13.44,0-8.28,5.76-14.22,13.38-14.22,8.4,0,12.6,6.12,12.6,12.9v1.56h-21.06c0,5.7,4,9.3,8.82,9.3,4.38,0,6.9-1.92,8.28-5.64Zm-4.62-9.18a7.48,7.48,0,0,0-7.86-7.32,8.29,8.29,0,0,0-8.28,7.32Z"/><path d="M1401.32,768.64h-5V742.42h5v5.34a9.87,9.87,0,0,1,9.42-6.06c6.9,0,9.84,4.56,9.84,10.68v16.26h-5V753c0-4.38-2.28-7.14-6.6-7.14s-7.68,3.42-7.68,8.58Z"/><path d="M1431.92,742.42v-7.26l4.92-1.5v8.76H1448v3.78h-11.16V760c0,3.6,2.16,5.16,4.5,5.16,3.12,0,4.44-1.74,5.94-4.74l2.52,3.48a9.75,9.75,0,0,1-8.82,5.46c-4.86,0-9.06-2.88-9.06-9V746.2h-5.46v-3.78Z"/><path d="M1455,749c1.86-4.14,6.06-7.26,12.24-7.26,6,0,9.6,2.58,9.6,7.86v12.9c0,2,1,2.82,2.34,2.82a5.34,5.34,0,0,0,2.88-1l.3,3.72a7.32,7.32,0,0,1-4.14,1.2,6,6,0,0,1-6.06-5.82c-1.26,3.3-5,5.76-9.78,5.76s-8.34-2.94-8.34-7.62,4.14-6.84,10.26-8.28l7.8-1.8v-2.1c0-1.8-1.14-3.72-5-3.72-4.14,0-6.78,2.28-7.68,4.92Zm17.1,5.7-6.6,1.62c-4,1-6.48,2-6.48,5,0,2.28,1.5,4.08,4.56,4.08,4.62,0,8.52-3.48,8.52-7.32Z"/><path d="M1489.46,742.42v-7.26l4.92-1.5v8.76h11.16v3.78h-11.16V760c0,3.6,2.16,5.16,4.5,5.16,3.12,0,4.44-1.74,5.94-4.74l2.52,3.48a9.75,9.75,0,0,1-8.82,5.46c-4.86,0-9.06-2.88-9.06-9V746.2H1484v-3.78Z"/><path d="M1513.34,730.84h5.7v5.52h-5.7Zm5.34,11.58v26.22h-5V742.42Z"/><path d="M1540,769.36a13.83,13.83,0,1,1,13.86-13.8A13.47,13.47,0,0,1,1540,769.36Zm0-4c5.34,0,8.7-4,8.7-9.84s-3.36-9.9-8.7-9.9-8.64,4-8.64,9.9S1534.7,765.4,1540,765.4Z"/><path d="M1566.32,768.64h-5V742.42h5v5.34a9.87,9.87,0,0,1,9.42-6.06c6.9,0,9.84,4.56,9.84,10.68v16.26h-5V753c0-4.38-2.28-7.14-6.6-7.14s-7.68,3.42-7.68,8.58Z"/><path d="M1612,742.42v-7.26l4.92-1.5v8.76h11.16v3.78H1617V760c0,3.6,2.16,5.16,4.5,5.16,3.12,0,4.44-1.74,5.94-4.74l2.52,3.48a9.75,9.75,0,0,1-8.82,5.46c-4.86,0-9.06-2.88-9.06-9V746.2h-5.46v-3.78Z"/><path d="M1641.26,747.76a9.87,9.87,0,0,1,9.42-6.06c6.9,0,9.84,4.56,9.84,10.68v16.26h-5V753c0-4.38-2.28-7.14-6.6-7.14s-7.68,3.42-7.68,8.58v14.16h-5v-37.8h5Z"/><path d="M1668.62,749c1.86-4.14,6.06-7.26,12.24-7.26,6,0,9.6,2.58,9.6,7.86v12.9c0,2,1,2.82,2.34,2.82a5.34,5.34,0,0,0,2.88-1l.3,3.72a7.32,7.32,0,0,1-4.14,1.2,6,6,0,0,1-6.06-5.82c-1.26,3.3-5,5.76-9.78,5.76s-8.34-2.94-8.34-7.62,4.14-6.84,10.26-8.28l7.8-1.8v-2.1c0-1.8-1.14-3.72-5-3.72-4.14,0-6.78,2.28-7.68,4.92Zm17.1,5.7-6.6,1.62c-4,1-6.48,2-6.48,5,0,2.28,1.5,4.08,4.56,4.08,4.62,0,8.52-3.48,8.52-7.32Z"/><path d="M1703.06,742.42v-7.26l4.92-1.5v8.76h11.16v3.78H1708V760c0,3.6,2.16,5.16,4.5,5.16,3.12,0,4.44-1.74,5.94-4.74l2.52,3.48a9.75,9.75,0,0,1-8.82,5.46c-4.86,0-9.06-2.88-9.06-9V746.2h-5.46v-3.78Z"/><path d="M168.86,829.94h.24L175.34,810H180l-8.46,26.22h-4.8l-6.48-19.62H160l-6.42,19.62h-4.8L140.3,810h4.92l6.3,19.92h.24L158.12,810h4.26Z"/><path d="M185.84,798.44h5.7V804h-5.7ZM191.18,810v26.22h-5V810Z"/><path d="M205.64,798.44v37.8h-5v-37.8Z"/><path d="M220.1,798.44v37.8h-5v-37.8Z"/><path d="M243.56,816.56c1.86-4.14,6.06-7.26,12.24-7.26,6,0,9.6,2.58,9.6,7.86v12.9c0,2,1,2.82,2.34,2.82a5.34,5.34,0,0,0,2.88-1l.3,3.72a7.32,7.32,0,0,1-4.14,1.2,6,6,0,0,1-6.06-5.82c-1.26,3.3-5,5.76-9.78,5.76s-8.34-2.94-8.34-7.62,4.14-6.84,10.26-8.28l7.8-1.8V817c0-1.8-1.14-3.72-5-3.72-4.14,0-6.78,2.28-7.68,4.92Zm17.1,5.7-6.6,1.62c-4,1-6.48,2-6.48,5,0,2.28,1.5,4.08,4.56,4.08,4.62,0,8.52-3.48,8.52-7.32Z"/><path d="M281.18,798.44v37.8h-5v-37.8Z"/><path d="M295.64,798.44v37.8h-5v-37.8Z"/><path d="M316.94,837a13.83,13.83,0,1,1,13.86-13.8A13.47,13.47,0,0,1,316.94,837Zm0-4c5.34,0,8.7-4,8.7-9.84s-3.36-9.9-8.7-9.9-8.64,4-8.64,9.9S311.66,833,316.94,833Z"/><path d="M363.5,829.94h.24L370,810h4.68l-8.46,26.22h-4.8l-6.48-19.62h-.24l-6.42,19.62h-4.8L334.94,810h4.92l6.3,19.92h.24L352.76,810H357Z"/><path d="M404.42,836.18,392.6,810h5.46l8.76,20.22h.24L414.8,810h4.86l-11.22,28C406.34,843,404,847,399,847a6.49,6.49,0,0,1-6.9-6.06l4-2.1c0,2.64,1,4.14,3.18,4.14,1.86,0,2.94-1.5,4.14-4.5Z"/><path d="M437,837a13.83,13.83,0,1,1,13.86-13.8A13.47,13.47,0,0,1,437,837Zm0-4c5.34,0,8.7-4,8.7-9.84s-3.36-9.9-8.7-9.9-8.64,4-8.64,9.9S431.72,833,437,833Z"/><path d="M477.26,810h5v26.22h-5V830.9a9.93,9.93,0,0,1-9.42,6.06c-6.9,0-9.72-4.56-9.72-10.62V810h5v15.6c0,4.44,2.16,7.2,6.42,7.2,4.44,0,7.74-3.48,7.74-8.58Z"/><path d="M508.94,810v-7.26l4.92-1.5V810H525v3.78H513.86v13.8c0,3.6,2.16,5.16,4.5,5.16,3.12,0,4.44-1.74,5.94-4.74l2.52,3.48A9.75,9.75,0,0,1,518,837c-4.86,0-9.06-2.88-9.06-9V813.8h-5.46V810Z"/><path d="M545,837a13.83,13.83,0,1,1,13.86-13.8A13.47,13.47,0,0,1,545,837Zm0-4c5.34,0,8.7-4,8.7-9.84s-3.36-9.9-8.7-9.9-8.64,4-8.64,9.9S539.72,833,545,833Z"/><path d="M606.74,829.94H607L613.22,810h4.68l-8.46,26.22h-4.8l-6.48-19.62h-.24l-6.42,19.62h-4.8L578.18,810h4.92l6.3,19.92h.24L596,810h4.26Z"/><path d="M628.94,822.92v13.32h-5V810h5v6.3c1.14-3.42,4-7,8.82-7,5,0,7.8,3.72,7.8,8.52a5.77,5.77,0,0,1-.24,1.74l-4.26,1.32a8.16,8.16,0,0,0,.24-1.8c0-3.18-1.38-5.4-4.8-5.4C632.36,813.68,628.94,817.82,628.94,822.92Z"/><path d="M652,798.44h5.7V804H652ZM657.32,810v26.22h-5V810Z"/><path d="M668.9,810v-7.26l4.92-1.5V810H685v3.78H673.82v13.8c0,3.6,2.16,5.16,4.5,5.16,3.12,0,4.44-1.74,5.94-4.74l2.52,3.48A9.75,9.75,0,0,1,678,837c-4.86,0-9.06-2.88-9.06-9V813.8h-5.46V810Z"/><path d="M717,829.7c-2.1,4.62-6.24,7.26-12.24,7.26-7.86,0-13.62-5.4-13.62-13.44,0-8.28,5.76-14.22,13.38-14.22,8.4,0,12.6,6.12,12.6,12.9v1.56H696.08c0,5.7,4,9.3,8.82,9.3,4.38,0,6.9-1.92,8.28-5.64Zm-4.62-9.18a7.48,7.48,0,0,0-7.86-7.32,8.29,8.29,0,0,0-8.28,7.32Z"/><path d="M748.22,836.18,736.4,810h5.46l8.76,20.22h.24L758.6,810h4.86l-11.22,28c-2.1,5-4.44,9.06-9.48,9.06a6.49,6.49,0,0,1-6.9-6.06l4-2.1c0,2.64,1,4.14,3.18,4.14,1.86,0,2.94-1.5,4.14-4.5Z"/><path d="M780.8,837a13.83,13.83,0,1,1,13.86-13.8A13.47,13.47,0,0,1,780.8,837Zm0-4c5.34,0,8.7-4,8.7-9.84s-3.36-9.9-8.7-9.9-8.64,4-8.64,9.9S775.52,833,780.8,833Z"/><path d="M821.06,810h5v26.22h-5V830.9a9.93,9.93,0,0,1-9.42,6.06c-6.9,0-9.72-4.56-9.72-10.62V810h5v15.6c0,4.44,2.16,7.2,6.42,7.2,4.44,0,7.74-3.48,7.74-8.58Z"/><path d="M840.38,822.92v13.32h-5V810h5v6.3c1.14-3.42,4-7,8.82-7,5,0,7.8,3.72,7.8,8.52a5.77,5.77,0,0,1-.24,1.74l-4.26,1.32a8.16,8.16,0,0,0,.24-1.8c0-3.18-1.38-5.4-4.8-5.4C843.8,813.68,840.38,817.82,840.38,822.92Z"/><path d="M890.72,837a13.83,13.83,0,1,1,13.86-13.8A13.47,13.47,0,0,1,890.72,837Zm0-4c5.34,0,8.7-4,8.7-9.84s-3.36-9.9-8.7-9.9-8.64,4-8.64,9.9S885.44,833,890.72,833Z"/><path d="M937.28,829.94h.24L943.76,810h4.68L940,836.24h-4.8l-6.48-19.62h-.24L922,836.24h-4.8L908.72,810h4.92l6.3,19.92h.24L926.54,810h4.26Z"/><path d="M959.6,836.24h-5V810h5v5.34A9.87,9.87,0,0,1,969,809.3c6.9,0,9.84,4.56,9.84,10.68v16.26h-5v-15.6c0-4.38-2.28-7.14-6.6-7.14s-7.68,3.42-7.68,8.58Z"/><path d="M1002.08,816.56c1.86-4.14,6.06-7.26,12.24-7.26,6,0,9.6,2.58,9.6,7.86v12.9c0,2,1,2.82,2.34,2.82a5.34,5.34,0,0,0,2.88-1l.3,3.72a7.32,7.32,0,0,1-4.14,1.2,6,6,0,0,1-6.06-5.82c-1.26,3.3-5,5.76-9.78,5.76s-8.34-2.94-8.34-7.62,4.14-6.84,10.26-8.28l7.8-1.8V817c0-1.8-1.14-3.72-5-3.72-4.14,0-6.78,2.28-7.68,4.92Zm17.1,5.7-6.6,1.62c-4,1-6.48,2-6.48,5,0,2.28,1.5,4.08,4.56,4.08,4.62,0,8.52-3.48,8.52-7.32Z"/><path d="M1039.7,846.32h-5V810h5v5.7a9.65,9.65,0,0,1,9.42-6.42c7.8,0,12.42,6.12,12.42,13.86s-4.62,13.8-12.42,13.8a9.6,9.6,0,0,1-9.42-6.36Zm-.18-22.62c0,5.76,3.78,9.42,8.28,9.42,5.4,0,8.58-4,8.58-10s-3.18-10-8.58-10c-4.5,0-8.28,3.66-8.28,9.36Z"/><path d="M1074,846.32h-5V810h5v5.7a9.65,9.65,0,0,1,9.42-6.42c7.8,0,12.42,6.12,12.42,13.86s-4.62,13.8-12.42,13.8a9.6,9.6,0,0,1-9.42-6.36Zm-.18-22.62c0,5.76,3.78,9.42,8.28,9.42,5.4,0,8.58-4,8.58-10s-3.18-10-8.58-10c-4.5,0-8.28,3.66-8.28,9.36Z"/><path d="M1104,827.66c1.86,3.54,5.88,5.46,9.84,5.46,3.78,0,6.3-1.14,6.3-3.78,0-1.92-1.5-2.88-4.14-3.54l-5.88-1.38c-4.26-1-7.5-2.94-7.5-7.38,0-4.62,4.38-7.74,10.14-7.74,5.22,0,9.18,2,11.16,5.4l-3.12,2.76a8.87,8.87,0,0,0-8-4.26c-3.06,0-5.46,1.32-5.46,3.42,0,1.92,1.32,2.94,4.08,3.6l6.66,1.62c3.78.9,6.84,2.94,6.84,7.14,0,4.92-4.62,8-11,8-5.52,0-10.62-2.28-12.78-6Z"/><path d="M1166.72,810h5v26.22h-5V830.9a9.93,9.93,0,0,1-9.42,6.06c-6.9,0-9.72-4.56-9.72-10.62V810h5v15.6c0,4.44,2.16,7.2,6.42,7.2,4.44,0,7.74-3.48,7.74-8.58Z"/><path d="M1181.72,827.66c1.86,3.54,5.88,5.46,9.84,5.46,3.78,0,6.3-1.14,6.3-3.78,0-1.92-1.5-2.88-4.14-3.54l-5.88-1.38c-4.26-1-7.5-2.94-7.5-7.38,0-4.62,4.38-7.74,10.14-7.74,5.22,0,9.18,2,11.16,5.4l-3.12,2.76a8.87,8.87,0,0,0-8-4.26c-3.06,0-5.46,1.32-5.46,3.42,0,1.92,1.32,2.94,4.08,3.6l6.66,1.62c3.78.9,6.84,2.94,6.84,7.14,0,4.92-4.62,8-11,8-5.52,0-10.62-2.28-12.78-6Z"/><path d="M1210,798.44h5.7V804H1210Zm5.34,11.58v26.22h-5V810Z"/><path d="M1229.84,836.24h-5V810h5v5.34a9.87,9.87,0,0,1,9.42-6.06c6.9,0,9.84,4.56,9.84,10.68v16.26h-5v-15.6c0-4.38-2.28-7.14-6.6-7.14s-7.68,3.42-7.68,8.58Z"/><path d="M1269.14,847c-7.26,0-13.74-2.28-13.74-7.38,0-2.76,2.52-5,5.82-5.4-2.46-.72-3.84-2.4-3.84-4.62s1.56-4,3.9-4.92a8,8,0,0,1-3.12-6.54c0-5.4,4.44-8.88,10.8-8.88a12.57,12.57,0,0,1,7.56,2.28,7.81,7.81,0,0,1,8-4.26l.54,4.38c-2.4-.48-5.4.24-6.72,1.86a8.07,8.07,0,0,1,1.38,4.62c0,5.46-4.5,8.88-10.8,8.88a13.62,13.62,0,0,1-5.58-1.08,3,3,0,0,0-1.86,2.7c0,1.32,1,2.22,3.42,2.22h10c5.7,0,9.24,2.82,9.24,7C1284.14,844.46,1276.46,847,1269.14,847Zm0-3.3c5.76,0,10.26-1.62,10.26-5.22,0-2.52-2.52-3.42-5.7-3.42h-8.22c-2.82,0-5.4,1.38-5.4,3.9C1260.08,842.3,1264.16,843.74,1269.14,843.74ZM1269,812.6c-3.3,0-5.94,2.22-5.94,5.58s2.64,5.64,5.94,5.64a5.55,5.55,0,0,0,5.88-5.64C1274.84,814.82,1272.26,812.6,1269,812.6Z"/><path d="M1307.6,810v-7.26l4.92-1.5V810h11.16v3.78h-11.16v13.8c0,3.6,2.16,5.16,4.5,5.16,3.12,0,4.44-1.74,5.94-4.74l2.52,3.48a9.75,9.75,0,0,1-8.82,5.46c-4.86,0-9.06-2.88-9.06-9V813.8h-5.46V810Z"/><path d="M1336.82,815.36a9.87,9.87,0,0,1,9.42-6.06c6.9,0,9.84,4.56,9.84,10.68v16.26h-5v-15.6c0-4.38-2.28-7.14-6.6-7.14s-7.68,3.42-7.68,8.58v14.16h-5v-37.8h5Z"/><path d="M1365,798.44h5.7V804H1365ZM1370.3,810v26.22h-5V810Z"/><path d="M1380.32,827.66c1.86,3.54,5.88,5.46,9.84,5.46,3.78,0,6.3-1.14,6.3-3.78,0-1.92-1.5-2.88-4.14-3.54l-5.88-1.38c-4.26-1-7.5-2.94-7.5-7.38,0-4.62,4.38-7.74,10.14-7.74,5.22,0,9.18,2,11.16,5.4l-3.12,2.76a8.87,8.87,0,0,0-8-4.26c-3.06,0-5.46,1.32-5.46,3.42,0,1.92,1.32,2.94,4.08,3.6l6.66,1.62c3.78.9,6.84,2.94,6.84,7.14,0,4.92-4.62,8-11,8-5.52,0-10.62-2.28-12.78-6Z"/><path d="M1424.66,827.66c1.86,3.54,5.88,5.46,9.84,5.46,3.78,0,6.3-1.14,6.3-3.78,0-1.92-1.5-2.88-4.14-3.54l-5.88-1.38c-4.26-1-7.5-2.94-7.5-7.38,0-4.62,4.38-7.74,10.14-7.74,5.22,0,9.18,2,11.16,5.4l-3.12,2.76a8.87,8.87,0,0,0-8-4.26c-3.06,0-5.46,1.32-5.46,3.42,0,1.92,1.32,2.94,4.08,3.6l6.66,1.62c3.78.9,6.84,2.94,6.84,7.14,0,4.92-4.62,8-11,8-5.52,0-10.62-2.28-12.78-6Z"/><path d="M1452.2,816.56c1.86-4.14,6.06-7.26,12.24-7.26,6,0,9.6,2.58,9.6,7.86v12.9c0,2,1,2.82,2.34,2.82a5.34,5.34,0,0,0,2.88-1l.3,3.72a7.32,7.32,0,0,1-4.14,1.2,6,6,0,0,1-6.06-5.82c-1.26,3.3-5,5.76-9.78,5.76s-8.34-2.94-8.34-7.62,4.14-6.84,10.26-8.28l7.8-1.8V817c0-1.8-1.14-3.72-5-3.72-4.14,0-6.78,2.28-7.68,4.92Zm17.1,5.7-6.6,1.62c-4,1-6.48,2-6.48,5,0,2.28,1.5,4.08,4.56,4.08,4.62,0,8.52-3.48,8.52-7.32Z"/><path d="M1517.6,809.3c6.6,0,9.48,4.56,9.48,10.68v16.26h-5v-15.6c0-4.38-2.16-7.14-6.3-7.14s-7.32,3.42-7.32,8.58v14.16h-5v-15.6c0-4.38-2.22-7.14-6.3-7.14s-7.38,3.42-7.38,8.58v14.16h-5V810h5v5.34a9.56,9.56,0,0,1,9.12-6.06c4.86,0,7.68,2.52,8.82,6.36C1508.9,812.36,1512.44,809.3,1517.6,809.3Z"/><path d="M1560.2,829.7c-2.1,4.62-6.24,7.26-12.24,7.26-7.86,0-13.62-5.4-13.62-13.44,0-8.28,5.76-14.22,13.38-14.22,8.4,0,12.6,6.12,12.6,12.9v1.56h-21.06c0,5.7,4,9.3,8.82,9.3,4.38,0,6.9-1.92,8.28-5.64Zm-4.62-9.18a7.48,7.48,0,0,0-7.86-7.32,8.29,8.29,0,0,0-8.28,7.32Z"/><path d="M148.58,913.92h-5v-36.3h5v5.7A9.65,9.65,0,0,1,158,876.9c7.8,0,12.42,6.12,12.42,13.86s-4.62,13.8-12.42,13.8a9.6,9.6,0,0,1-9.42-6.36Zm-.18-22.62c0,5.76,3.78,9.42,8.28,9.42,5.4,0,8.58-4,8.58-10s-3.18-10-8.58-10c-4.5,0-8.28,3.66-8.28,9.36Z"/><path d="M202,897.3c-2.1,4.62-6.24,7.26-12.24,7.26-7.86,0-13.62-5.4-13.62-13.44,0-8.28,5.76-14.22,13.38-14.22,8.4,0,12.6,6.12,12.6,12.9v1.56H181c0,5.7,4,9.3,8.82,9.3,4.38,0,6.9-1.92,8.28-5.64Zm-4.62-9.18a7.48,7.48,0,0,0-7.86-7.32,8.29,8.29,0,0,0-8.28,7.32Z"/><path d="M233.66,897.3c-2.1,4.62-6.24,7.26-12.24,7.26-7.86,0-13.62-5.4-13.62-13.44,0-8.28,5.76-14.22,13.38-14.22,8.4,0,12.6,6.12,12.6,12.9v1.56H212.72c0,5.7,4,9.3,8.82,9.3,4.38,0,6.9-1.92,8.28-5.64ZM229,888.12a7.48,7.48,0,0,0-7.86-7.32,8.29,8.29,0,0,0-8.28,7.32Z"/><path d="M246.14,890.52v13.32h-5V877.62h5v6.3c1.14-3.42,4-7,8.82-7,5,0,7.8,3.72,7.8,8.52a5.77,5.77,0,0,1-.24,1.74l-4.26,1.32a8.16,8.16,0,0,0,.24-1.8c0-3.18-1.38-5.4-4.8-5.4C249.56,881.28,246.14,885.42,246.14,890.52Z"/><path d="M268.82,886.32h13.8v4.44h-13.8Z"/><path d="M293.48,877.62v-7.26l4.92-1.5v8.76h11.16v3.78H298.4v13.8c0,3.6,2.16,5.16,4.5,5.16,3.12,0,4.44-1.74,5.94-4.74l2.52,3.48a9.75,9.75,0,0,1-8.82,5.46c-4.86,0-9.06-2.88-9.06-9V881.4H288v-3.78Z"/><path d="M329.54,904.56a13.83,13.83,0,1,1,13.86-13.8A13.47,13.47,0,0,1,329.54,904.56Zm0-4c5.34,0,8.7-4,8.7-9.84s-3.36-9.9-8.7-9.9-8.64,4-8.64,9.9S324.26,900.6,329.54,900.6Z"/><path d="M350.54,886.32h13.8v4.44h-13.8Z"/><path d="M378.08,913.92h-5v-36.3h5v5.7a9.65,9.65,0,0,1,9.42-6.42c7.8,0,12.42,6.12,12.42,13.86s-4.62,13.8-12.42,13.8a9.6,9.6,0,0,1-9.42-6.36Zm-.18-22.62c0,5.76,3.78,9.42,8.28,9.42,5.4,0,8.58-4,8.58-10s-3.18-10-8.58-10c-4.5,0-8.28,3.66-8.28,9.36Z"/><path d="M431.48,897.3c-2.1,4.62-6.24,7.26-12.24,7.26-7.86,0-13.62-5.4-13.62-13.44,0-8.28,5.76-14.22,13.38-14.22,8.4,0,12.6,6.12,12.6,12.9v1.56H410.54c0,5.7,4,9.3,8.82,9.3,4.38,0,6.9-1.92,8.28-5.64Zm-4.62-9.18A7.48,7.48,0,0,0,419,880.8a8.29,8.29,0,0,0-8.28,7.32Z"/><path d="M463.16,897.3c-2.1,4.62-6.24,7.26-12.24,7.26-7.86,0-13.62-5.4-13.62-13.44,0-8.28,5.76-14.22,13.38-14.22,8.4,0,12.6,6.12,12.6,12.9v1.56H442.22c0,5.7,4,9.3,8.82,9.3,4.38,0,6.9-1.92,8.28-5.64Zm-4.62-9.18a7.48,7.48,0,0,0-7.86-7.32,8.29,8.29,0,0,0-8.28,7.32Z"/><path d="M475.64,890.52v13.32h-5V877.62h5v6.3c1.14-3.42,4-7,8.82-7,5,0,7.8,3.72,7.8,8.52a5.77,5.77,0,0,1-.24,1.74l-4.26,1.32a8.16,8.16,0,0,0,.24-1.8c0-3.18-1.38-5.4-4.8-5.4C479.06,881.28,475.64,885.42,475.64,890.52Z"/><path d="M513.8,866h5.7v5.52h-5.7Zm5.34,11.58v26.22h-5V877.62Z"/><path d="M533.6,903.84h-5V877.62h5V883A9.87,9.87,0,0,1,543,876.9c6.9,0,9.84,4.56,9.84,10.68v16.26h-5v-15.6c0-4.38-2.28-7.14-6.6-7.14s-7.68,3.42-7.68,8.58Z"/><path d="M558.68,881.4v-3.78h4.56v-2.28c0-6.24,4.32-10,10.32-10,4.62,0,7.56,2.1,8.7,5.34L579,872.94a5,5,0,0,0-5.22-3.84c-3.36,0-5.64,2.1-5.64,6.42v2.1h7.38v3.78h-7.38v22.44h-4.92V881.4Z"/><path d="M587.12,890.52v13.32h-5V877.62h5v6.3c1.14-3.42,4-7,8.82-7,5,0,7.8,3.72,7.8,8.52a5.77,5.77,0,0,1-.24,1.74l-4.26,1.32a8.16,8.16,0,0,0,.24-1.8c0-3.18-1.38-5.4-4.8-5.4C590.54,881.28,587.12,885.42,587.12,890.52Z"/><path d="M609,884.16c1.86-4.14,6.06-7.26,12.24-7.26,6,0,9.6,2.58,9.6,7.86v12.9c0,2,1,2.82,2.34,2.82a5.34,5.34,0,0,0,2.88-1l.3,3.72a7.32,7.32,0,0,1-4.14,1.2,6,6,0,0,1-6.06-5.82c-1.26,3.3-5,5.76-9.78,5.76s-8.34-2.94-8.34-7.62,4.14-6.84,10.26-8.28l7.8-1.8v-2.1c0-1.8-1.14-3.72-5-3.72-4.14,0-6.78,2.28-7.68,4.92Zm17.1,5.7-6.6,1.62c-4,1-6.48,2-6.48,5,0,2.28,1.5,4.08,4.56,4.08,4.62,0,8.52-3.48,8.52-7.32Z"/><path d="M642.2,895.26c1.86,3.54,5.88,5.46,9.84,5.46,3.78,0,6.3-1.14,6.3-3.78,0-1.92-1.5-2.88-4.14-3.54L648.32,892c-4.26-1-7.5-2.94-7.5-7.38,0-4.62,4.38-7.74,10.14-7.74,5.22,0,9.18,2,11.16,5.4L659,885.06a8.87,8.87,0,0,0-8-4.26c-3.06,0-5.46,1.32-5.46,3.42,0,1.92,1.32,2.94,4.08,3.6l6.66,1.62c3.78.9,6.84,2.94,6.84,7.14,0,4.92-4.62,8-11,8-5.52,0-10.62-2.28-12.78-6Z"/><path d="M673,877.62v-7.26l4.92-1.5v8.76h11.16v3.78H677.9v13.8c0,3.6,2.16,5.16,4.5,5.16,3.12,0,4.44-1.74,5.94-4.74l2.52,3.48a9.75,9.75,0,0,1-8.82,5.46c-4.86,0-9.06-2.88-9.06-9V881.4h-5.46v-3.78Z"/><path d="M702.08,890.52v13.32h-5V877.62h5v6.3c1.14-3.42,4-7,8.82-7,5,0,7.8,3.72,7.8,8.52a5.77,5.77,0,0,1-.24,1.74l-4.26,1.32a8.16,8.16,0,0,0,.24-1.8c0-3.18-1.38-5.4-4.8-5.4C705.5,881.28,702.08,885.42,702.08,890.52Z"/><path d="M744.38,877.62h5v26.22h-5V898.5a9.93,9.93,0,0,1-9.42,6.06c-6.9,0-9.72-4.56-9.72-10.62V877.62h5v15.6c0,4.44,2.16,7.2,6.42,7.2,4.44,0,7.74-3.48,7.74-8.58Z"/><path d="M781.76,896.7c-1.44,4.32-5.34,7.86-11.76,7.86-7.92,0-13.56-5.64-13.56-13.8s5.64-13.86,13.74-13.86c5.88,0,9.6,3,11.28,7.08l-4,2.4c-1.08-3.06-3.42-5.4-7.2-5.4-5.16,0-8.64,3.72-8.64,9.78s3.48,9.72,8.52,9.72c4.08,0,6.54-2.46,7.56-5.82Z"/><path d="M791.18,877.62v-7.26l4.92-1.5v8.76h11.16v3.78H796.1v13.8c0,3.6,2.16,5.16,4.5,5.16,3.12,0,4.44-1.74,5.94-4.74l2.52,3.48a9.75,9.75,0,0,1-8.82,5.46c-4.86,0-9.06-2.88-9.06-9V881.4h-5.46v-3.78Z"/><path d="M834.32,877.62h5v26.22h-5V898.5a9.93,9.93,0,0,1-9.42,6.06c-6.9,0-9.72-4.56-9.72-10.62V877.62h5v15.6c0,4.44,2.16,7.2,6.42,7.2,4.44,0,7.74-3.48,7.74-8.58Z"/><path d="M853.64,890.52v13.32h-5V877.62h5v6.3c1.14-3.42,4-7,8.82-7,5,0,7.8,3.72,7.8,8.52a5.77,5.77,0,0,1-.24,1.74l-4.26,1.32a8.16,8.16,0,0,0,.24-1.8c0-3.18-1.38-5.4-4.8-5.4C857.06,881.28,853.64,885.42,853.64,890.52Z"/><path d="M900.14,897.3c-2.1,4.62-6.24,7.26-12.24,7.26-7.86,0-13.62-5.4-13.62-13.44,0-8.28,5.76-14.22,13.38-14.22,8.4,0,12.6,6.12,12.6,12.9v1.56H879.2c0,5.7,4,9.3,8.82,9.3,4.38,0,6.9-1.92,8.28-5.64Zm-4.62-9.18a7.48,7.48,0,0,0-7.86-7.32,8.29,8.29,0,0,0-8.28,7.32Z"/><path d="M906.5,897.48h6.36v6.36H906.5Z"/></svg>