<svg id="Layer_1" data-name="Layer 1" xmlns="http://www.w3.org/2000/svg" viewBox="0 0 1920 1080"><defs><style>.cls-1{fill:#f1f2f2;}</style></defs><title>guideline-0101</title><rect class="cls-1" width="1920" height="1080"/><path d="M701.46,506.24V642.43H660.22V628.6c-7.6,9.23-22.52,17.09-40.42,17.09-36.9,0-65.38-30.93-65.38-71.35S582.9,503,619.8,503c17.91,0,32.83,7.87,40.42,17.09V506.24Zm-73,103.91c19,0,33.1-14.92,33.1-35.81s-14.11-35.81-33.1-35.81c-18.72,0-33.1,14.92-33.1,35.81S609.76,610.15,628.48,610.15Z"/><path d="M875.74,422.86V642.43H834.5V628.6c-7.6,9.23-22.52,17.09-40.42,17.09-36.9,0-65.39-30.93-65.39-71.35S757.18,503,794.08,503c17.91,0,32.83,7.87,40.42,17.09V422.86Zm-73,187.29c19,0,33.1-14.92,33.1-35.81s-14.11-35.81-33.1-35.81c-18.72,0-33.1,14.92-33.1,35.81S784,610.15,802.76,610.15Z"/><path d="M908.55,609.34h48.84v-70H908.55v-33.1h90.07v103.1h48.84v33.1H908.55Zm38.25-161.84a27.13,27.13,0,1,1,27.13,26.86A27,27,0,0,1,946.81,447.49Z"/><path d="M1204.18,609.34H1253V456h-48.84v-33.1h90.07V609.34h48.84v33.1H1204.18Z"/><path d="M1128.29,609.88c-18.45,0-32.56-14.38-32.56-35.54s14.11-35.54,32.56-35.54c13.08,0,23.48,9.21,26,19h42.11c-4.35-30.86-33.79-54.8-68.08-54.8-39.88,0-73.25,30.38-73.25,71.35s33.37,71.35,73.25,71.35c34.28,0,63.73-23.94,68.08-54.8h-42.11C1151.76,600.67,1141.36,609.88,1128.29,609.88Z"/><path d="M1487.1,578.41c0-44-26.32-75.42-68.37-75.42-37.44,0-70.27,30.11-70.27,71.35,0,41,27.1,71.35,71.35,71.35,42.75,0,62.47-31.09,64.49-46.85h-36.52c-3.34,8.39-12.13,14.72-28,14.72-17.9,0-31.77-12.37-33.1-28.64h100.11A53.12,53.12,0,0,0,1487.1,578.41Zm-99-19c4.88-14.38,16.82-22.79,30.93-22.79,17.36,0,26.59,11.12,28.49,22.79Z"/><polygon points="533.89 506.24 423.2 506.24 423.2 642.43 464.44 642.43 464.44 539.34 533.89 539.34 533.89 506.24"/></svg>